<svg width="42" height="43" viewBox="0 0 42 43" fill="none" xmlns="http://www.w3.org/2000/svg"><g clip-path="url(#clip0_3_87)" fill="#fff"><path d="M32.25 24.57c-4.962 0-9 4.134-9 9.215 0 5.081 4.038 9.215 9 9.215 4.964 0 9.002-4.134 9.002-9.215 0-5.081-4.038-9.215-9.001-9.215zm0 16.894c-4.135 0-7.5-3.445-7.5-7.679s3.365-7.68 7.5-7.68c4.137 0 7.501 3.446 7.501 7.68s-3.364 7.68-7.5 7.68z"/><path d="M36.751 33.017h-3.75v-3.84a.758.758 0 00-.75-.767.758.758 0 00-.75.768v4.607c0 .425.335.768.75.768h4.5c.415 0 .75-.343.75-.768a.758.758 0 00-.75-.768z"/><path d="M40.92 1.663a.737.737 0 00-.704-.073L27.79 6.83 15.35.087c-.01-.006-.02-.007-.03-.013a.743.743 0 00-.107-.04c-.024-.007-.046-.015-.07-.02a.83.83 0 00-.115-.012c-.022 0-.044-.003-.067-.002-.037.002-.073.01-.11.018-.025.005-.05.008-.076.016-.004.001-.009.001-.013.003L1.26 4.644a.767.767 0 00-.512.728v33.02c0 .247.115.479.31.624a.74.74 0 00.677.105l13.248-4.522 5.752 2.209a.752.752 0 00.967-.45.774.774 0 00-.439-.989l-5.514-2.117V2.042L27 8.138V21.5c0 .424.336.767.75.767.415 0 .75-.343.75-.768V8.191l11.251-4.744V24.57c0 .425.336.768.75.768.415 0 .75-.343.75-.768V2.3a.773.773 0 00-.332-.637zM2.248 5.925l12-4.095v31.401l-12 4.095v-31.4z"/></g><defs><clipPath id="clip0_3_87"><path fill="#fff" d="M0 0h42v43H0z"/></clipPath></defs></svg>