<svg width="45" height="45" viewBox="0 0 45 45" fill="none" xmlns="http://www.w3.org/2000/svg"><path d="M22.5 45c-.13.001-.26-.002-.39-.004-.04.002-.08 0-.117.003a2.2 2.2 0 01-.23-.012c-7.475-.242-14.038-4.147-17.952-9.971a.657.657 0 01-.108-.163A22.372 22.372 0 010 22.468a22.352 22.352 0 016.612-15.9A22.344 22.344 0 0121.826.01c.077-.006.165-.002.232-.01.039 0 .079.001.118.003.119-.002.237-.002.356-.002a22.352 22.352 0 0115.9 6.612A22.352 22.352 0 0145 22.533a22.375 22.375 0 01-3.732 12.363.649.649 0 01-.121.181C37.099 41.062 30.249 45 22.5 45zm-.763-1.34c.126.011.253.019.38.024 1.244-.134 2.576-2.321 3.588-5.909.222-.79.425-1.63.609-2.513L17.7 35.25c.18.884.381 1.725.601 2.515.965 3.46 2.232 5.62 3.435 5.896zm5.911-8.396a38.756 38.756 0 01-.684 2.866c-.67 2.374-1.464 4.156-2.358 5.31 3.605-.861 6.754-3.88 8.87-8.168l-5.828-.008zm-16.16-.024c1.86 3.8 4.534 6.607 7.62 7.808-.778-1.153-1.473-2.806-2.066-4.932a38.758 38.758 0 01-.676-2.868l-4.878-.008zm23.413.034c-1.429 3.075-3.358 5.597-5.61 7.301a21.283 21.283 0 0010.102-7.294l-4.492-.007zm-29.33-.042a21.283 21.283 0 0010.08 7.324c-2.247-1.711-4.168-4.238-5.59-7.318l-4.49-.006zm29.895-1.265l4.844.007a21.06 21.06 0 003.37-10.79l-6.102-.008c-.082 3.931-.842 7.613-2.112 10.79zm-7.574-.011l6.18.009c1.317-3.13 2.113-6.825 2.197-10.791l-7.468-.01c-.037 3.86-.352 7.555-.91 10.792zm-10.439-.015l9.111.013c.57-3.214.89-6.914.928-10.793l-10.936-.015c.027 3.878.337 7.58.897 10.795zm-6.558-.01l5.231.008c-.548-3.239-.852-6.934-.878-10.795l-6.519-.01c.073 3.967.858 7.664 2.166 10.798zm-6.237-.008l4.844.006C8.24 30.748 7.49 27.064 7.42 23.132l-6.103-.008a21.055 21.055 0 003.34 10.799zM37.58 21.867l6.102.01a21.029 21.029 0 00-3.114-10.465l-4.92-.007c1.199 3.166 1.866 6.74 1.932 10.463zm-8.777-.012l7.468.01c-.068-3.75-.77-7.333-2.028-10.462l-6.263-.01c.513 3.159.797 6.733.823 10.462zm-12.245-.018l10.936.016c-.025-3.745-.316-7.324-.84-10.461l-9.225-.013c-.534 3.135-.834 6.714-.87 10.458zm-7.827-.01l6.52.009c.035-3.73.33-7.303.852-10.46l-5.314-.007c-1.267 3.126-1.98 6.707-2.058 10.457zm-7.411-.011l6.102.008c.076-3.723.754-7.295 1.963-10.457l-4.921-.007A21.03 21.03 0 001.32 21.816zm33.79-11.72l4.582.006a21.5 21.5 0 00-2.186-2.565 21.106 21.106 0 00-8.108-5.086c1.419 1.084 2.726 2.512 3.875 4.257a23.31 23.31 0 011.837 3.388zm-7.36-.011l5.922.009a21.705 21.705 0 00-1.492-2.667c-2.079-3.156-4.692-5.179-7.514-5.86.89 1.155 1.68 2.94 2.343 5.316.277.995.524 2.066.74 3.202zm-10.08-.014l8.747.012a37.559 37.559 0 00-.669-2.849c-1-3.59-2.326-5.78-3.569-5.919a8.887 8.887 0 00-.382.023c-1.204.272-2.476 2.429-3.45 5.886-.251.888-.477 1.84-.678 2.847zm-6.306-.01l4.973.008c.22-1.136.47-2.206.75-3.2.599-2.125 1.299-3.777 2.08-4.927-2.353.907-4.522 2.769-6.304 5.458a21.726 21.726 0 00-1.499 2.661zm-6.02-.008l4.582.006a23.266 23.266 0 011.847-3.382c1.154-1.741 2.465-3.166 3.887-4.246a21.11 21.11 0 00-8.123 5.063 21.445 21.445 0 00-2.193 2.56z" fill="#fff"/></svg>