<svg width="46" height="46" viewBox="0 0 46 46" fill="none" xmlns="http://www.w3.org/2000/svg"><path d="M12.35 23.769H9.107a.719.719 0 00-.718.719v4.861c0 .397.321.719.718.719h3.241a.719.719 0 00.719-.719v-4.861a.719.719 0 00-.719-.72zm-.72 4.861H9.827v-3.424h1.803v3.424zm8.822-4.861h-3.241a.719.719 0 00-.719.719v4.861a.72.72 0 00.719.719h3.241a.719.719 0 00.719-.719v-4.861a.719.719 0 00-.719-.72zm-.719 4.861H17.93v-3.424h1.803v3.424zm8.821-4.861h-3.24a.719.719 0 00-.72.719v4.861a.72.72 0 00.72.719h3.24a.719.719 0 00.719-.719v-4.861a.719.719 0 00-.719-.72zm-.719 4.861h-1.803v-3.424h1.803v3.424zm8.821-4.861h-3.241a.719.719 0 00-.719.719v4.861a.72.72 0 00.719.719h3.241a.719.719 0 00.719-.719v-4.861a.719.719 0 00-.719-.72zm-.719 4.861h-1.803v-3.424h1.803v3.424z" fill="#3B40A5"/><path d="M45.281 43.45h-3.593V19.73a.719.719 0 00-.72-.718H36.11v-5.026c0-.021-.01-.039-.012-.06a.684.684 0 00-.032-.158.693.693 0 00-.038-.1.709.709 0 00-.087-.129c-.023-.028-.042-.056-.069-.08-.038-.035-.084-.06-.13-.088-.032-.018-.06-.039-.094-.052-.009-.003-.015-.01-.024-.013L23.146 9.034V7.566c1.164.207 2.311.316 3.436.316 1.411 0 2.787-.163 4.118-.49a.719.719 0 00.548-.698V1.833a.719.719 0 00-.823-.712c-2.87.42-5.518.421-7.873.004-.02-.004-.039.004-.06.002-.022-.002-.042-.013-.065-.013-.036 0-.066.015-.1.02-.045.006-.086.011-.128.026a.696.696 0 00-.16.083c-.024.016-.052.02-.074.039-.008.006-.01.016-.018.023a.707.707 0 00-.127.166c-.015.024-.036.044-.047.07a.71.71 0 00-.065.292v7.201L9.23 13.306c-.008.003-.015.01-.023.013-.035.013-.063.034-.095.052-.046.027-.091.053-.13.088-.026.024-.046.052-.068.08a.708.708 0 00-.087.129.689.689 0 00-.039.1.681.681 0 00-.032.158c-.001.021-.012.039-.012.06v5.026H5.031a.719.719 0 00-.718.719v23.718H.719a.719.719 0 100 1.438H45.28a.719.719 0 100-1.438zm-35.1-25.876h24.49v1.365h-24.49v-1.365zm24.49-1.437h-24.49v-1.432h24.49v1.432zm-4.86-13.483V6.12c-2.113.436-4.35.433-6.665-.011V2.672c2.05.276 4.286.27 6.664-.018zm-7.384 7.654l8.645 2.96h-17.29l8.645-2.96zm-4.458 33.141v-8.625h4.312v8.625H17.97zm5.75 0v-8.625h4.312v8.625H23.72zm5.75 0v-9.343a.719.719 0 00-.719-.72h-11.5a.719.719 0 00-.719.72v9.343H5.75v-23h34.5v23H29.469z" fill="#3B40A5"/></svg>