<svg width="45" height="45" viewBox="0 0 45 45" fill="none" xmlns="http://www.w3.org/2000/svg"><path d="M4.602 19.162h5.08c.4 0 .725-.325.725-.726v-3.483c0-.4-.325-.725-.726-.725h-5.08c-.4 0-.725.325-.725.725v3.483c0 .401.325.726.726.726zm.725-3.483h3.628v2.032H5.327v-2.032zm6.858 3.483h5.08c.4 0 .725-.325.725-.726v-3.483c0-.4-.325-.725-.726-.725h-5.08c-.4 0-.725.325-.725.725v3.483c0 .401.325.726.726.726zm.725-3.483h3.628v2.032H12.91v-2.032zm6.857 3.483h5.08c.4 0 .725-.325.725-.726v-3.483c0-.4-.325-.725-.726-.725h-5.08c-.4 0-.725.325-.725.725v3.483c0 .401.325.726.726.726zm.725-3.483h3.628v2.032h-3.628v-2.032zm6.858 3.483h5.08c.4 0 .725-.325.725-.726v-3.483c0-.4-.325-.725-.726-.725h-5.08c-.4 0-.725.325-.725.725v3.483c0 .401.325.726.726.726zm.725-3.483h3.628v2.032h-3.628v-2.032zm6.858 3.483h5.08c.4 0 .725-.325.725-.726v-3.483c0-.4-.325-.725-.726-.725h-5.08c-.4 0-.725.325-.725.725v3.483c0 .401.325.726.726.726zm.725-3.483h3.628v2.032h-3.628v-2.032zM4.602 25.91h5.08c.4 0 .725-.324.725-.725v-3.483a.726.726 0 00-.726-.726h-5.08c-.4 0-.725.325-.725.726v3.483c0 .4.325.725.726.725zm.725-3.483h3.628v2.032H5.327v-2.032zm6.858 3.483h5.08c.4 0 .725-.324.725-.725v-3.483a.726.726 0 00-.726-.726h-5.08c-.4 0-.725.325-.725.726v3.483c0 .4.325.725.726.725zm.725-3.483h3.628v2.032H12.91v-2.032zm6.857 3.483h5.08c.4 0 .725-.324.725-.725v-3.483a.726.726 0 00-.726-.726h-5.08c-.4 0-.725.325-.725.726v3.483c0 .4.325.725.726.725zm.725-3.483h3.628v2.032h-3.628v-2.032zm6.858 3.483h5.08c.4 0 .725-.324.725-.725v-3.483a.726.726 0 00-.726-.726h-5.08c-.4 0-.725.325-.725.726v3.483c0 .4.325.725.726.725zm.725-3.483h3.628v2.032h-3.628v-2.032zm6.858 3.483h5.08c.4 0 .725-.324.725-.725v-3.483a.726.726 0 00-.726-.726h-5.08c-.4 0-.725.325-.725.726v3.483c0 .4.325.725.726.725zm.725-3.483h3.628v2.032h-3.628v-2.032zM4.602 32.659h5.08c.4 0 .725-.325.725-.726V28.45c0-.4-.325-.726-.726-.726h-5.08c-.4 0-.725.325-.725.726v3.483c0 .4.325.726.726.726zm.725-3.483h3.628v2.031H5.327v-2.031zm29.606 3.483h5.08c.4 0 .725-.325.725-.726V28.45c0-.4-.325-.726-.726-.726h-5.08c-.4 0-.725.325-.725.726v3.483c0 .4.325.726.726.726zm.725-3.483h3.628v2.031h-3.628v-2.031z" fill="#3B40A5"/><path d="M44.274 8.278H.726A.726.726 0 000 9.003v3.048c0 .4.325.726.726.726h.489v23.22c0 .4.325.725.726.725h41.118a.726.726 0 00.726-.726v-23.22h.49c.4 0 .725-.324.725-.725V9.003c0-.4-.325-.725-.726-.725zM1.451 9.729H43.55v1.596H1.45V9.73zm28.87 22.93h-3.87v-2.765c0-.4-.325-.725-.726-.725h-6.45c-.4 0-.726.325-.726.725v2.765h-3.87v-4.085h15.642v4.085zm-10.32 0V30.62h1.773v2.039H20zm3.225-2.039h1.773v2.039h-1.773V30.62zm-9.357 4.65l.402-1.16h16.458l.402 1.16H13.87zm28.465 0h-9.667s-.261-.687-.895-2.382v-5.04c0-.4-.325-.725-.725-.725H13.953c-.4 0-.725.325-.725.726v5.039c-.476 1.26-.895 2.383-.895 2.383H2.666V12.777h39.668V35.27z" fill="#3B40A5"/></svg>