<svg width="43" height="43" viewBox="0 0 43 43" fill="none" xmlns="http://www.w3.org/2000/svg"><path d="M38.042 43h-.001l-15.981-.03H4.958a.61.61 0 01-.61-.611V14.88a.61.61 0 01.61-.61h8.53V.61a.61.61 0 01.61-.61h23.944a.61.61 0 01.61.61v41.78a.612.612 0 01-.61.61zm-15.37-1.25l14.759.027V1.222H14.709v13.047h7.352a.61.61 0 01.61.611v26.87zm-17.103-.002h15.88V15.49H5.57v26.257zm13.995-3.968h-4.832a.61.61 0 01-.61-.61v-2.83a.61.61 0 01.61-.61h4.832a.61.61 0 01.611.61v2.828a.61.61 0 01-.61.61zm-4.221-1.222h3.61v-1.606h-3.61v1.606zm-3.056 1.222H7.455a.61.61 0 01-.61-.61v-2.83a.61.61 0 01.61-.61h4.832a.61.61 0 01.611.61v2.828a.61.61 0 01-.61.61zm-4.221-1.222h3.61v-1.606h-3.61v1.606zm25.825.908h-2.337a.61.61 0 01-.61-.61v-2.54a.61.61 0 01.61-.61h2.337a.61.61 0 01.61.61v2.54a.61.61 0 01-.61.61zm-1.726-1.221h1.115v-1.318h-1.115v1.318zm-5.012 1.221h-2.337a.61.61 0 01-.61-.61v-2.54a.61.61 0 01.61-.61h2.337a.61.61 0 01.61.61v2.54a.61.61 0 01-.61.61zm-1.726-1.221h1.115v-1.318h-1.115v1.318zm-5.863-3.99h-4.832a.61.61 0 01-.61-.612v-2.828a.61.61 0 01.61-.61h4.832a.61.61 0 01.611.61v2.828a.61.61 0 01-.61.611zm-4.221-1.222h3.61v-1.607h-3.61v1.607zm-3.056 1.221H7.455a.61.61 0 01-.61-.61v-2.829a.61.61 0 01.61-.61h4.832a.61.61 0 01.611.61v2.828a.61.61 0 01-.61.611zm-4.221-1.221h3.61v-1.607h-3.61v1.607zm25.825.347h-2.337a.61.61 0 01-.61-.61v-2.54a.61.61 0 01.61-.61h2.337a.61.61 0 01.61.61v2.54a.61.61 0 01-.61.61zm-1.726-1.222h1.115v-1.317h-1.115v1.317zm-5.012 1.222h-2.337a.61.61 0 01-.61-.61v-2.54a.61.61 0 01.61-.61h2.337a.61.61 0 01.61.61v2.54a.61.61 0 01-.61.61zm-1.726-1.222h1.115v-1.317h-1.115v1.317zm-5.863-3.43h-4.832a.61.61 0 01-.61-.61v-2.829a.61.61 0 01.61-.61h4.832a.61.61 0 01.611.61v2.828a.61.61 0 01-.61.611zm-4.221-1.221h3.61V23.9h-3.61v1.607zm-3.056 1.221H7.455a.61.61 0 01-.61-.61v-2.829a.61.61 0 01.61-.61h4.832a.61.61 0 01.611.61v2.828a.61.61 0 01-.61.611zm-4.221-1.221h3.61V23.9h-3.61v1.607zm25.825-.213h-2.337a.61.61 0 01-.61-.611v-2.539a.61.61 0 01.61-.61h2.337a.61.61 0 01.61.61v2.54a.61.61 0 01-.61.61zm-1.726-1.222h1.115v-1.317h-1.115v1.317zm-5.012 1.222h-2.337a.61.61 0 01-.61-.611v-2.539a.61.61 0 01.61-.61h2.337a.61.61 0 01.61.61v2.54a.61.61 0 01-.61.61zm-1.726-1.222h1.115v-1.317h-1.115v1.317zm-5.863-2.87h-4.832a.61.61 0 01-.61-.61v-2.829a.61.61 0 01.61-.61h4.832a.61.61 0 01.611.61v2.829a.61.61 0 01-.61.61zm-4.221-1.221h3.61v-1.607h-3.61v1.607zm-3.056 1.221H7.455a.61.61 0 01-.61-.61v-2.829a.61.61 0 01.61-.61h4.832a.61.61 0 01.611.61v2.829a.61.61 0 01-.61.61zm-4.221-1.221h3.61v-1.607h-3.61v1.607zm25.825-.773h-2.337a.61.61 0 01-.61-.611v-2.539a.61.61 0 01.61-.61h2.337a.61.61 0 01.61.61v2.539a.61.61 0 01-.61.61zm-1.726-1.222h1.115v-1.317h-1.115v1.317zm-5.012 1.222h-2.337a.61.61 0 01-.61-.611v-2.539a.61.61 0 01.61-.61h2.337a.61.61 0 01.61.61v2.539a.61.61 0 01-.61.61zm-1.726-1.222h1.115v-1.317h-1.115v1.317zm8.464-4.864h-2.337a.61.61 0 01-.61-.611V9.97a.61.61 0 01.61-.61h2.337a.61.61 0 01.61.61v2.54a.61.61 0 01-.61.61zM32.165 11.9h1.115v-1.317h-1.115V11.9zm-5.012 1.222h-2.337a.61.61 0 01-.61-.611V9.97a.61.61 0 01.61-.61h2.337a.61.61 0 01.61.61v2.54a.61.61 0 01-.61.61zM25.427 11.9h1.115v-1.317h-1.115V11.9zm-5.013 1.222h-2.336a.61.61 0 01-.61-.611V9.97a.61.61 0 01.61-.61h2.336a.61.61 0 01.611.61v2.54a.61.61 0 01-.61.61zM18.69 11.9h1.115v-1.317H18.69V11.9zm15.2-4.865h-2.337a.61.61 0 01-.61-.61v-2.54a.61.61 0 01.61-.61h2.337a.61.61 0 01.61.61v2.54a.61.61 0 01-.61.61zm-1.726-1.221h1.115V4.496h-1.115v1.318zm-5.012 1.221h-2.337a.61.61 0 01-.61-.61v-2.54a.61.61 0 01.61-.61h2.337a.61.61 0 01.61.61v2.54a.61.61 0 01-.61.61zm-1.726-1.221h1.115V4.496h-1.115v1.318zm-5.013 1.221h-2.336a.61.61 0 01-.61-.61v-2.54a.61.61 0 01.61-.61h2.336a.61.61 0 01.611.61v2.54a.61.61 0 01-.61.61zM18.69 5.814h1.115V4.496H18.69v1.318z" fill="#3B40A5"/></svg>