<svg width="43" height="43" viewBox="0 0 43 43" fill="none" xmlns="http://www.w3.org/2000/svg"><g clip-path="url(#clip0_261_432)" fill="#3B40A5"><path d="M41.986 13.761L21.878.116a.673.673 0 00-.756 0L1.013 13.761a.673.673 0 00-.295.557v28.009c0 .372.301.673.673.673h40.217a.673.673 0 00.674-.673V14.318a.673.673 0 00-.296-.557zM16.517 41.654H9.246v-7.272h1.526v3.636c0 .372.301.673.673.673h2.873a.673.673 0 00.673-.673v-3.636h1.526v7.272zM7.81 17.236V15.71h27.38v1.526H7.81zm4.309 20.108v-2.962h1.526v2.962h-1.526zm4.398-4.309H9.245v-7.27h1.527V29.4c0 .372.301.673.673.673h2.873a.673.673 0 00.673-.673v-3.636h1.526v7.271zm-4.398-4.308v-2.963h1.526v2.963h-1.526zm13.016 12.927h-7.271v-7.272h1.526v3.636c0 .372.301.673.673.673h2.873a.673.673 0 00.673-.673v-3.636h1.526v7.272zm-4.399-4.31v-2.962h1.527v2.962h-1.527zm20.199 4.31H35.1V27.245a.673.673 0 00-1.347 0v14.408h-7.271V33.71a.673.673 0 00-.673-.674h-7.945v-7.944a.673.673 0 00-.673-.673H9.246v-5.835h24.507v5.79a.673.673 0 101.347 0v-5.79h.763a.673.673 0 00.673-.674v-2.872a.673.673 0 00-.673-.674H7.136a.673.673 0 00-.673.674v2.872c0 .372.301.674.673.674H7.9v23.07H2.064V14.676L21.5 1.487l19.435 13.188v26.979z"/><path d="M24.373 5.745h-5.746a.673.673 0 000 1.347h5.746a.673.673 0 100-1.347zm0 2.873h-5.746a.673.673 0 000 1.347h5.746a.673.673 0 100-1.347zm0 2.872h-5.746a.673.673 0 000 1.347h5.746a.673.673 0 100-1.346zM14.318 30.881h-2.872a.673.673 0 000 1.347h2.872a.673.673 0 100-1.347zm0 8.618h-2.872a.673.673 0 000 1.347h2.872a.673.673 0 100-1.347zm8.619 0h-2.873a.673.673 0 000 1.347h2.873a.673.673 0 100-1.347z"/></g><defs><clipPath id="clip0_261_432"><path fill="#fff" d="M0 0h43v43H0z"/></clipPath></defs></svg>