<svg width="43" height="43" viewBox="0 0 43 43" fill="none" xmlns="http://www.w3.org/2000/svg"><path d="M8.207 28.043c.101 1.001.643 1.9 1.414 2.506a2.896 2.896 0 00-.693 1.881v2.688a2.9 2.9 0 001.649 2.625 4.08 4.08 0 003.99 4.904 4.08 4.08 0 004.037-4.618h6.702a4.08 4.08 0 004.037 4.618 4.08 4.08 0 004.075-4.075 4.071 4.071 0 00-7.386-2.37h-8.155a4.07 4.07 0 00-6.533-.12 1.078 1.078 0 01-.588-.964V32.43c0-.597.486-1.082 1.083-1.082H33.23c1.766 0 3.596-1.31 4.166-2.982l5.43-15.942c.307-.902.202-1.812-.288-2.496-.489-.684-1.316-1.076-2.27-1.076H38.32l-5.872-5.9a2.366 2.366 0 00-3.317-.025l-9.91 2.666-2.66-4.77A.914.914 0 0015.319.47L9.998 3.437a.913.913 0 00-.353 1.243l2.327 4.172H9.767c-.587 0-1.141.15-1.621.432l-.432-4.315a.914.914 0 00-.909-.822H.914a.914.914 0 100 1.827h5.064l2.229 22.069zm21.137 8.282a2.25 2.25 0 012.246 2.246 2.25 2.25 0 01-2.246 2.247 2.25 2.25 0 01-2.247-2.246 2.25 2.25 0 012.247-2.248zm-14.777 0a2.25 2.25 0 012.247 2.246 2.25 2.25 0 01-2.247 2.247 2.25 2.25 0 01-2.247-2.246 2.25 2.25 0 012.247-2.248zM31.155 4.242l4.588 4.61H25.79l4.61-4.608a.536.536 0 01.756-.002zm-4.613 1.274l-3.336 3.336H21.04l-.9-1.614 6.402-1.722zm-14.856-.928l3.725-2.077 3.536 6.341h-4.883l-2.378-4.264zm29.41 7.246l-5.43 15.942c-.315.93-1.454 1.744-2.435 1.744H11.864c-.905 0-1.748-.761-1.839-1.662l-.323-3.185H29.35a.914.914 0 100-1.827H9.517L8.435 12.178v-.003a1.362 1.362 0 01.332-1.067c.25-.276.604-.428 1-.428h30.504c.36 0 .639.11.783.312.144.201.159.5.042.842z" fill="#3B40A5"/></svg>