<svg width="44" height="42" viewBox="0 0 44 42" fill="none" xmlns="http://www.w3.org/2000/svg"><path d="M43.306 36.516h-.363a3.572 3.572 0 00-2.722-2.785v-2.962a.692.692 0 00-.692-.692h-.365V18.62h.365c.382 0 .692-.31.692-.692v-1.954h2.128c.739 0 1.357-.456 1.574-1.162a1.619 1.619 0 00-.646-1.846L26.294 1.396A7.596 7.596 0 0022 .072a7.597 7.597 0 00-4.294 1.324L.723 12.966a1.619 1.619 0 00-.646 1.847 1.619 1.619 0 001.574 1.161h2.128v1.954c0 .383.31.692.692.692h.365v11.457H4.47a.692.692 0 00-.692.692v2.962a3.572 3.572 0 00-2.721 2.785H.694a.692.692 0 00-.692.692v4.029c0 .382.31.691.692.691h42.612c.382 0 .692-.31.692-.691v-4.03a.692.692 0 00-.692-.691zM4.471 14.59h-2.82a.248.248 0 01-.252-.186.248.248 0 01.103-.296L18.485 2.54A6.218 6.218 0 0122 1.455a6.22 6.22 0 013.515 1.084l16.983 11.57c.14.096.125.226.103.296a.248.248 0 01-.252.186H4.471zm29.576 2.646h-.364v-1.263h5.154v1.263h-4.79zm3.734 1.383v11.457h-3.042V18.62h3.042zm-4.098 12.84h5.154v2.185h-5.154V31.46zm-3.66-1.383h-.365V18.62h.364c.383 0 .692-.31.692-.692v-1.954H32.3v1.954c0 .383.31.692.692.692h.365v11.457h-.365a.692.692 0 00-.692.692v2.877h-1.585v-2.877a.692.692 0 00-.692-.692zm-5.482-12.84h-.365v-1.263h5.155v1.263h-4.79zm3.733 1.383v11.457h-3.041V18.62h3.041zm-4.098 12.84h5.155v2.185h-5.155V31.46zm-3.66-1.383h-.365V18.62h.365c.382 0 .692-.31.692-.692v-1.954h1.585v1.954c0 .383.31.692.691.692h.365v11.457h-.365a.692.692 0 00-.691.692v2.877h-1.585v-2.877a.692.692 0 00-.692-.692zm-5.482-12.84h-.365v-1.263h5.155v1.263h-4.79zm3.734 1.383v11.457h-3.042V18.62h3.042zm-4.099 12.84h5.155v2.185H14.67V31.46zm-3.66-1.383h-.364V18.62h.364c.382 0 .692-.31.692-.692v-1.954h1.585v1.954c0 .383.31.692.692.692h.364v11.457h-.364a.692.692 0 00-.692.692v2.877H11.7v-2.877a.692.692 0 00-.692-.692zm-5.482-12.84h-.364v-1.263h5.154v1.263h-4.79zm3.734 1.383v11.457H6.219V18.62h3.042zM5.163 31.46h5.154v2.185H5.163v-2.184zm-.611 3.57h34.896c.96 0 1.776.623 2.066 1.486H2.486a2.182 2.182 0 012.066-1.487zm38.063 5.515H1.385v-2.646h41.23v2.646z" fill="#3B40A5"/></svg>