<svg width="57" height="57" viewBox="0 0 57 57" fill="none" xmlns="http://www.w3.org/2000/svg"><g clip-path="url(#clip0_261_344)" fill="#3B40A5"><path d="M19.232 28.345a1.113 1.113 0 100-2.227 1.113 1.113 0 000 2.227z"/><path d="M27.655 17.423a9.868 9.868 0 00-8.338 4.56 1.115 1.115 0 001.878 1.204 7.646 7.646 0 016.46-3.533c4.23 0 7.67 3.44 7.67 7.67s-3.44 7.67-7.67 7.67a7.624 7.624 0 01-6.553-3.681 1.116 1.116 0 00-1.904 1.162 9.84 9.84 0 008.457 4.75c5.46 0 9.901-4.442 9.901-9.901 0-5.46-4.441-9.901-9.901-9.901z"/><path d="M53.255 38.039l1.47-3.43a1.116 1.116 0 00-.585-1.464L48.907 30.9a21.29 21.29 0 00.084-6.618l5.285-2.114c.572-.228.85-.877.622-1.45l-2.95-7.383a1.116 1.116 0 00-1.45-.623l-5.286 2.114a21.243 21.243 0 00-4.624-4.74l2.245-5.232a1.116 1.116 0 00-.585-1.465L34.942.254a1.116 1.116 0 00-1.465.585l-2.245 5.234a21.298 21.298 0 00-6.62-.085L22.497.702a1.116 1.116 0 00-1.45-.622l-7.382 2.95a1.115 1.115 0 00-.622 1.45l2.114 5.287a21.319 21.319 0 00-4.738 4.622l-5.234-2.246a1.116 1.116 0 00-1.465.586L.584 20.04c-.242.566.02 1.221.586 1.464l5.233 2.244a21.25 21.25 0 00-.083 6.62L1.034 32.48c-.572.228-.85.877-.622 1.45l2.95 7.382a1.115 1.115 0 001.45.622l5.285-2.113a21.256 21.256 0 004.624 4.74l-2.245 5.233c-.243.566.02 1.222.585 1.465l7.308 3.135a1.116 1.116 0 001.465-.585l2.244-5.234c2.2.373 4.42.401 6.62.085l2.114 5.286a1.116 1.116 0 001.45.622l3.179-1.27A10.979 10.979 0 0045.665 57c6.067 0 11.003-4.936 11.003-11.003 0-3.127-1.312-5.953-3.413-7.958zM34.469 52.083L32.437 47a1.115 1.115 0 00-1.241-.682c-2.508.47-5.05.437-7.557-.097a1.115 1.115 0 00-1.258.652l-2.158 5.032-5.257-2.255 2.16-5.033c.21-.49.044-1.06-.396-1.361a19.077 19.077 0 01-5.277-5.409 1.115 1.115 0 00-1.35-.43L5.018 39.45l-2.122-5.312 5.084-2.032c.495-.198.78-.718.682-1.242a19.08 19.08 0 01.095-7.554 1.115 1.115 0 00-.65-1.258l-5.034-2.159 2.255-5.259 5.033 2.16c.49.21 1.06.044 1.36-.395a19.138 19.138 0 015.409-5.276c.447-.29.627-.856.43-1.35l-2.033-5.084 5.313-2.123 2.032 5.083c.197.495.717.78 1.241.683a19.11 19.11 0 017.556.096 1.115 1.115 0 001.258-.651l2.16-5.033 5.255 2.255-2.159 5.034c-.21.49-.044 1.06.396 1.36a19.064 19.064 0 015.277 5.408c.29.448.855.627 1.35.43l5.084-2.033 2.121 5.313-5.082 2.032a1.117 1.117 0 00-.683 1.242c.471 2.51.44 5.052-.096 7.553a1.116 1.116 0 00.651 1.258l5.033 2.16-.804 1.875a10.936 10.936 0 00-5.766-1.636c-6.067 0-11.003 4.936-11.003 11.002 0 1.975.523 3.83 1.438 5.434l-1.63.653zm11.196 2.686c-4.837 0-8.772-3.935-8.772-8.772s3.935-8.772 8.772-8.772 8.772 3.935 8.772 8.772-3.935 8.772-8.772 8.772z"/><path d="M51.281 42.055a1.115 1.115 0 00-1.574.11l-4.823 5.544-2.727-2.444a1.116 1.116 0 00-1.489 1.662l3.57 3.2a1.116 1.116 0 001.587-.1l5.566-6.398a1.115 1.115 0 00-.11-1.574z"/></g><defs><clipPath id="clip0_261_344"><path fill="#fff" d="M0 0h57v57H0z"/></clipPath></defs></svg>