<svg width="54" height="54" viewBox="0 0 54 54" fill="none" xmlns="http://www.w3.org/2000/svg"><path d="M27 0C12.15 0 0 12.06 0 27s12.15 27 27 27 27-12.15 27-27S41.85 0 27 0zm0 52.2C13.14 52.2 1.8 40.86 1.8 27S13.14 1.8 27 1.8 52.2 13.14 52.2 27 40.86 52.2 27 52.2z" fill="#3B40A5"/><path d="M27 9C17.1 9 9 17.1 9 27c0 .99.09 1.98.27 2.88 0 .45.54.81.99.72.45 0 .81-.54.72-.99-.09-.81-.18-1.71-.18-2.61 0-8.91 7.29-16.2 16.2-16.2S43.2 18.09 43.2 27 35.91 43.2 27 43.2c-4.026 0-7.817-1.408-10.791-4.149l5.062-5.062c1.61 1.32 3.6 2.01 5.729 2.01 4.95 0 9-4.049 9-8.999s-4.05-9-9-9-9 4.05-9 9c0 .54 0 .99.18 1.44 0 .45.54.81.99.72.45 0 .81-.54.72-.99-.09-.36-.09-.81-.09-1.17 0-3.96 3.24-7.2 7.2-7.2s7.2 3.24 7.2 7.2-3.24 7.2-7.2 7.2c-1.668 0-3.207-.513-4.458-1.481l2.624-2.625A3.57 3.57 0 0027 30.6c1.98 0 3.6-1.62 3.6-3.6s-1.62-3.6-3.6-3.6a3.61 3.61 0 00-3.6 3.6c0 .669.186 1.296.506 1.834L20.61 32.13l-6.3 6.3-3.24 3.24a.87.87 0 000 1.26c.18.18.36.27.63.27s.45-.09.63-.27l2.618-2.618C18.214 43.338 22.528 45 27 45c9.9 0 18-8.01 18-18 0-9.9-8.1-18-18-18zm0 16.2c.99 0 1.8.81 1.8 1.8s-.81 1.8-1.8 1.8a1.79 1.79 0 01-1.174-.44.978.978 0 00-.185-.186A1.79 1.79 0 0125.2 27c-.001-.99.809-1.8 1.799-1.8zM9.9 17.1c0-.99-.81-1.8-1.8-1.8s-1.8.81-1.8 1.8.81 1.8 1.8 1.8 1.8-.81 1.8-1.8z" fill="#3B40A5"/><path d="M34.2 35.1c0 .99.81 1.8 1.8 1.8s1.8-.81 1.8-1.8-.81-1.8-1.8-1.8-1.8.81-1.8 1.8zm4.5-23.4c.99 0 1.8-.81 1.8-1.8s-.81-1.8-1.8-1.8-1.8.81-1.8 1.8.81 1.8 1.8 1.8z" fill="#3B40A5"/></svg>