<svg width="54" height="54" viewBox="0 0 54 54" fill="none" xmlns="http://www.w3.org/2000/svg"><path d="M44.1 5.4h-.9v-.9A4.505 4.505 0 0038.7 0H9.9a4.505 4.505 0 00-4.5 4.5v39.6a4.505 4.505 0 004.5 4.5h.9v.9a4.505 4.505 0 004.5 4.5h28.8a4.505 4.505 0 004.5-4.5V9.9a4.505 4.505 0 00-4.5-4.5zM36 1.8v4.127l-1.163-1.163a.9.9 0 00-1.273 0L32.4 5.927V1.8H36zM7.2 44.1V4.5a2.7 2.7 0 012.7-2.7h20.7v6.3a.9.9 0 001.537.636L34.2 6.673l2.064 2.063A.9.9 0 0037.8 8.1V1.8h.9a2.7 2.7 0 012.7 2.7v39.6a2.7 2.7 0 01-2.7 2.7H9.9a2.7 2.7 0 01-2.7-2.7zm39.6 5.4a2.7 2.7 0 01-2.7 2.7H15.3a2.7 2.7 0 01-2.7-2.7v-.9h26.1a4.505 4.505 0 004.5-4.5V7.2h.9a2.7 2.7 0 012.7 2.7v39.6z" fill="#3B40A5"/><path d="M19.738 8.69a.9.9 0 00-.838-.59h-7.2a.9.9 0 00-.9.9v7.2a.9.9 0 00.9.9h7.2a.9.9 0 00.9-.9v-5.027l2.436-2.436-1.273-1.273-1.225 1.226zM18 15.3h-5.4V9.9H18v.527l-1.8 1.8-1.164-1.163-1.272 1.272 1.8 1.8a.9.9 0 001.272 0L18 12.973V15.3zm2.963 4.764l-1.225 1.225a.9.9 0 00-.838-.59h-7.2a.9.9 0 00-.9.9v7.2a.9.9 0 00.9.9h7.2a.9.9 0 00.9-.9v-5.026l2.436-2.437-1.273-1.272zM18 27.9h-5.4v-5.4H18v.527l-1.8 1.8-1.164-1.164-1.272 1.273 1.8 1.8a.9.9 0 001.272 0L18 25.573V27.9zm.9 4.5h-7.2a.9.9 0 00-.9.9v7.2a.9.9 0 00.9.9h7.2a.9.9 0 00.9-.9v-7.2a.9.9 0 00-.9-.9zm-.9 7.2h-5.4v-5.4H18v5.4zm5.4-26.1h9v1.8h-9v-1.8zm0-3.6h5.4v1.8h-5.4V9.9zm0 16.2h9v1.8h-9v-1.8zm0-3.6h5.4v1.8h-5.4v-1.8zm0 15.3h9v1.8h-9v-1.8zm0-3.6h5.4V36h-5.4v-1.8zm7.2 0h1.8V36h-1.8v-1.8z" fill="#3B40A5"/></svg>