<svg width="51" height="51" viewBox="0 0 51 51" fill="none" xmlns="http://www.w3.org/2000/svg"><path d="M46.647 21.297a21.286 21.286 0 00-3.22-7.782l3.079-3.08-5.941-5.94-3.08 3.079a21.284 21.284 0 00-7.782-3.221V0h-8.406v4.353a21.286 21.286 0 00-7.782 3.22l-3.08-3.079-5.94 5.941 3.079 3.08a21.284 21.284 0 00-3.221 7.782H0v8.406h4.353a21.287 21.287 0 003.22 7.781l-3.08 3.068 5.942 5.955 3.08-3.08a21.287 21.287 0 007.782 3.22V51h8.406v-4.353a21.286 21.286 0 007.782-3.22l3.08 3.08 5.942-5.956-3.08-3.067a21.287 21.287 0 003.22-7.78H51v-8.407h-4.353zm2.672 6.725H45.23l-.116.705a19.672 19.672 0 01-3.462 8.366l-.417.58 2.892 2.882-3.564 3.573-2.891-2.892-.58.417a19.673 19.673 0 01-8.366 3.462l-.705.116v4.088h-5.044V45.23l-.705-.116a19.672 19.672 0 01-8.365-3.462l-.58-.417-2.892 2.892-3.564-3.573 2.893-2.881-.417-.581a19.672 19.672 0 01-3.463-8.366l-.115-.705H1.68v-5.044h4.09l.116-.705a19.67 19.67 0 013.462-8.366l.417-.58-2.892-2.892 3.563-3.563 2.892 2.892.58-.417a19.672 19.672 0 018.366-3.462l.705-.116V1.681h5.044V5.77l.705.116a19.67 19.67 0 018.366 3.462l.58.417 2.892-2.892 3.563 3.563-2.892 2.892.417.58a19.673 19.673 0 013.462 8.366l.116.705h4.088v5.044z" fill="#3B40A5"/><path d="M25.5 10.088c-8.498 0-15.412 6.914-15.412 15.412 0 8.498 6.914 15.412 15.412 15.412 8.498 0 15.412-6.914 15.412-15.412 0-8.498-6.914-15.412-15.412-15.412zm.84 1.708c6.904.419 12.445 5.96 12.864 12.863h-6.75a7.017 7.017 0 00-6.113-6.112v-6.751zm-1.68 0v6.75a7.017 7.017 0 00-6.113 6.113h-6.751c.419-6.903 5.96-12.444 12.863-12.863zm0 27.408c-6.904-.419-12.445-5.96-12.864-12.863h6.75a7.017 7.017 0 006.113 6.112v6.751zM20.175 25.5a5.33 5.33 0 015.324-5.324 5.33 5.33 0 015.324 5.324 5.33 5.33 0 01-5.324 5.324 5.33 5.33 0 01-5.324-5.324zm6.165 13.704v-6.75a7.017 7.017 0 006.112-6.113h6.751c-.419 6.903-5.96 12.444-12.863 12.863z" fill="#3B40A5"/><path d="M27.918 14.266l-.353 1.644a9.808 9.808 0 017.525 7.524l1.644-.352a11.492 11.492 0 00-8.816-8.816zm-4.836 0a11.492 11.492 0 00-8.816 8.816l1.644.352a9.808 9.808 0 017.524-7.524l-.352-1.644zm-7.172 13.3l-1.643.352a11.492 11.492 0 008.816 8.816l.352-1.644a9.808 9.808 0 01-7.524-7.524zm19.18 0a9.808 9.808 0 01-7.525 7.524l.353 1.644a11.492 11.492 0 008.816-8.816l-1.644-.352zm-9.59-5.709a3.647 3.647 0 00-3.643 3.643 3.647 3.647 0 003.643 3.643 3.647 3.647 0 003.643-3.643 3.647 3.647 0 00-3.643-3.643zm0 5.605a1.964 1.964 0 01-1.96-1.962c0-1.081.88-1.962 1.961-1.962 1.082 0 1.962.88 1.962 1.962 0 1.081-.88 1.962-1.962 1.962z" fill="#3B40A5"/></svg>