<svg width="58" height="58" viewBox="0 0 58 58" fill="none" xmlns="http://www.w3.org/2000/svg"><path d="M47.405 4.36H3.815A3.819 3.819 0 000 8.172V41.11a3.819 3.819 0 003.814 3.814h20.343a.908.908 0 000-1.817H3.814a2 2 0 01-1.998-1.998V13.925h47.587v6.842a.908.908 0 101.816 0V8.173a3.819 3.819 0 00-3.814-3.814zm1.998 7.749H1.816V8.173a2 2 0 011.998-1.998h43.591a2 2 0 011.998 1.998v3.936z" fill="#3B40A5"/><path d="M46.436 8.234H14.47a.908.908 0 000 1.816h31.966a.908.908 0 100-1.816zM13.502 18.89H7.689a.908.908 0 000 1.816h5.813a.908.908 0 000-1.817zm10.655 3.874h-4.843a.908.908 0 100 1.817h4.843a.908.908 0 000-1.817zm-14.53 5.812H7.689a.908.908 0 000 1.817h1.938a.908.908 0 000-1.817zm0 3.875H7.689a.908.908 0 100 1.816h1.938a.908.908 0 100-1.816zm9.686 0h-5.812a.908.908 0 000 1.816h5.812a.908.908 0 100-1.816zm0 3.875h-5.812a.908.908 0 000 1.816h5.812a.908.908 0 100-1.816zm2.907-7.75H13.5a.908.908 0 000 1.817h8.72a.908.908 0 000-1.817zm-12.593 7.75H7.689a.908.908 0 100 1.816h1.938a.908.908 0 100-1.816zM29.969 18.89H17.376a.908.908 0 000 1.816h12.593a.908.908 0 000-1.817zm-14.53 3.874h-7.75a.908.908 0 100 1.817h7.75a.908.908 0 000-1.817zM58 37.234a.908.908 0 00-.909-.908h-.088c-.043-.75-.14-1.486-.288-2.204l.083-.022a.908.908 0 00-.47-1.755l-.084.023a15.33 15.33 0 00-.853-2.052l.078-.045a.908.908 0 00-.908-1.573l-.08.046a15.647 15.647 0 00-1.355-1.76l.068-.068a.908.908 0 10-1.285-1.284l-.067.067a15.528 15.528 0 00-1.76-1.353l.046-.08a.908.908 0 00-1.573-.909l-.045.078a15.357 15.357 0 00-2.052-.853l.023-.084a.908.908 0 00-1.755-.47l-.022.082a15.392 15.392 0 00-2.204-.287v-.088a.908.908 0 00-1.816 0v.088c-.75.043-1.486.14-2.204.287l-.022-.082a.908.908 0 00-1.755.47l.023.084c-.708.236-1.394.521-2.052.853l-.045-.078a.908.908 0 00-1.573.908l.047.08c-.62.41-1.208.863-1.76 1.355l-.068-.068a.908.908 0 10-1.285 1.284l.068.068a15.532 15.532 0 00-1.354 1.76l-.08-.046a.908.908 0 10-.909 1.573l.078.045a15.334 15.334 0 00-.853 2.052l-.084-.023a.909.909 0 00-.47 1.755l.082.022a15.391 15.391 0 00-.287 2.204h-.088a.908.908 0 100 1.816h.088c.043.75.14 1.486.288 2.204l-.083.022a.908.908 0 00.47 1.755l.084-.023c.236.708.522 1.393.853 2.052l-.078.045a.908.908 0 10.909 1.573l.08-.047c.41.62.862 1.208 1.354 1.76l-.068.068a.908.908 0 101.285 1.284l.067-.067c.553.492 1.14.944 1.76 1.354l-.046.08a.908.908 0 001.573.908l.045-.077c.658.331 1.344.617 2.052.853l-.023.084a.908.908 0 101.755.47l.022-.083c.718.148 1.454.244 2.204.288v.088a.908.908 0 001.816 0v-.088c.75-.044 1.486-.14 2.204-.288l.022.083a.909.909 0 001.754-.47l-.022-.084a15.344 15.344 0 002.052-.853l.045.077a.908.908 0 101.573-.908l-.047-.08a15.46 15.46 0 001.76-1.354l.068.067a.905.905 0 001.284 0 .908.908 0 000-1.284l-.067-.067a15.52 15.52 0 001.354-1.76l.08.046a.908.908 0 00.908-1.573l-.078-.045c.332-.659.618-1.344.854-2.052l.083.023a.909.909 0 10.47-1.755l-.082-.022c.147-.718.244-1.454.288-2.204h.088a.908.908 0 00.908-.908zM41.593 50.856c-7.512 0-13.623-6.11-13.623-13.622s6.111-13.622 13.623-13.622c7.51 0 13.622 6.11 13.622 13.622 0 7.511-6.111 13.622-13.623 13.622z" fill="#3B40A5"/><path d="M41.593 25.67c-6.376 0-11.564 5.188-11.564 11.564s5.188 11.563 11.564 11.563 11.564-5.187 11.564-11.563c0-6.377-5.188-11.564-11.564-11.564zm0 21.311c-5.375 0-9.748-4.372-9.748-9.747s4.373-9.748 9.748-9.748c5.375 0 9.747 4.373 9.747 9.748 0 5.375-4.372 9.747-9.747 9.747z" fill="#3B40A5"/><path d="M41.593 29.545c-4.24 0-7.689 3.45-7.689 7.689 0 4.24 3.45 7.689 7.69 7.689 4.239 0 7.688-3.45 7.688-7.69 0-4.239-3.45-7.688-7.689-7.688zm0 13.561a5.88 5.88 0 01-5.872-5.872 5.88 5.88 0 015.872-5.873 5.88 5.88 0 015.873 5.873 5.88 5.88 0 01-5.873 5.872zM4.783 10.05a.908.908 0 100-1.816.908.908 0 000 1.816zm2.907 0a.908.908 0 100-1.816.908.908 0 000 1.816zm2.905 0a.908.908 0 100-1.816.908.908 0 000 1.816z" fill="#3B40A5"/></svg>