<svg width="51" height="51" viewBox="0 0 51 51" fill="none" xmlns="http://www.w3.org/2000/svg"><path d="M25.5 1.443C12.235 1.443 1.443 12.235 1.443 25.5c0 13.265 10.792 24.056 24.057 24.056 2.825 0 5.415-.454 7.905-1.341a5.762 5.762 0 004.605 2.304 5.78 5.78 0 005.773-5.774 5.733 5.733 0 00-.73-2.804A23.903 23.903 0 0049.556 25.5c0-13.265-10.792-24.057-24.057-24.057zm12.51 47.151a3.853 3.853 0 01-3.85-3.849 3.853 3.853 0 013.85-3.849 3.853 3.853 0 013.848 3.85 3.853 3.853 0 01-3.849 3.848zm3.807-8.178a5.743 5.743 0 00-3.808-1.444 5.78 5.78 0 00-5.773 5.773c0 .608.095 1.193.27 1.744-2.204.753-4.502 1.143-7.006 1.143-12.204 0-22.132-9.929-22.132-22.132 0-12.204 9.928-22.132 22.132-22.132 12.203 0 22.132 9.928 22.132 22.132 0 5.572-2.072 10.828-5.815 14.916z" fill="#3B40A5"/><path d="M38.49 15.877c-.327 0-.643.044-.95.113-.035-.087-.07-.174-.132-.25A15.351 15.351 0 0025.5 10.104c-8.49 0-15.396 6.906-15.396 15.396 0 8.49 6.906 15.396 15.396 15.396 8.49 0 15.396-6.907 15.396-15.396 0-.671-.046-1.086-.128-1.626a4.32 4.32 0 002.053-3.667 4.335 4.335 0 00-4.33-4.33zM25.5 38.972c-7.428 0-13.472-6.044-13.472-13.472S18.072 12.028 25.5 12.028c3.994 0 7.736 1.755 10.306 4.809-.994.794-1.645 2.002-1.645 3.37a4.335 4.335 0 004.33 4.33c.144 0 .28-.028.42-.042.04.308.06.589.06 1.005 0 7.428-6.042 13.472-13.471 13.472zm12.99-16.359a2.409 2.409 0 01-2.405-2.406 2.408 2.408 0 012.406-2.405 2.408 2.408 0 012.405 2.405 2.409 2.409 0 01-2.405 2.406z" fill="#3B40A5"/><path d="M25.5 17.802c-4.245 0-7.698 3.453-7.698 7.698 0 4.244 3.453 7.698 7.698 7.698 4.244 0 7.698-3.454 7.698-7.698 0-4.245-3.454-7.698-7.698-7.698zm0 13.471a5.78 5.78 0 01-5.774-5.773 5.78 5.78 0 015.774-5.774 5.78 5.78 0 015.773 5.774 5.78 5.78 0 01-5.773 5.773zM50.718.282a.962.962 0 00-1.36 0l-5.774 5.773a.962.962 0 101.36 1.361l5.774-5.773a.962.962 0 000-1.361zM6.055 43.584L.282 49.357a.962.962 0 101.36 1.361l5.774-5.774a.962.962 0 10-1.36-1.36z" fill="#3B40A5"/></svg>