<svg width="42" height="42" viewBox="0 0 42 42" fill="none" xmlns="http://www.w3.org/2000/svg">
<g clip-path="url(#clip0_3_47)">
<path d="M41.9157 40.8387L33.422 16.7988C33.3362 16.4384 32.9759 16.1725 32.6155 16.1725H28.7032C29.81 13.5042 30.3848 11.4623 30.3848 10.0981C30.3848 4.55574 26.0951 0 20.7328 0C15.4564 0 11.0808 4.46995 11.0808 10.0981C11.0808 11.6081 11.7844 13.7959 12.7882 16.1725H9.38208C9.02174 16.1725 8.66998 16.4384 8.57561 16.7988L0.081849 40.8387C-0.192697 41.7224 0.622361 41.9969 0.888327 41.9969H41.1093C41.4696 42.0398 42.1817 41.6366 41.9157 40.8387ZM20.7328 1.77597C25.1084 1.77597 28.6003 5.52523 28.6003 10.0896C28.6003 14.937 21.8053 25.7301 20.7328 27.5146C18.0474 22.9589 12.8654 13.6586 12.8654 10.0896C12.8654 5.53381 16.3487 1.77597 20.7328 1.77597ZM2.14094 40.2124L10.0084 17.957H13.5861C16.1514 23.4565 20.7328 30.9121 20.7328 30.9121C20.7328 30.9121 27.7166 18.4117 27.9225 17.957H31.9892L39.8567 40.2124H2.14094Z" fill="white"/>
<path d="M26.9015 32.5251H15.1904V34.3096H26.9015V32.5251Z" fill="white"/>
<path d="M24.8424 9.28307C24.8424 7.05238 22.9635 5.17346 20.7328 5.17346C18.5022 5.17346 16.6232 7.05238 16.6232 9.28307C16.6232 11.5137 18.4078 13.3927 20.7328 13.3927C23.0579 13.3927 24.8424 11.5223 24.8424 9.28307ZM18.4078 9.19727C18.4078 7.94466 19.3944 6.87221 20.7328 6.87221C22.0712 6.87221 23.0579 7.94466 23.0579 9.19727C23.0579 10.4499 22.0712 11.5223 20.7328 11.5223C19.4802 11.5223 18.4078 10.4499 18.4078 9.19727Z" fill="white"/>
</g>
<defs>
<clipPath id="clip0_3_47">
<rect width="42" height="42" fill="white"/>
</clipPath>
</defs>
</svg>
