<svg width="1241" height="632" viewBox="0 0 1241 632" fill="none" xmlns="http://www.w3.org/2000/svg">
<g opacity="0.07">
<path d="M518.935 133.269L519.664 138.48L511.981 140.056L510.849 151.079H520.255L532.655 149.926L539.067 142.312L532.202 139.642L528.439 135.377L522.796 126.413L520.255 113.499L509.677 115.657L506.732 120.198V125.231L511.784 128.807L518.935 133.269Z" fill="white"/>
<path d="M510.061 137.525L510.563 130.59L504.486 127.96L495.809 129.91L489.397 140.155V146.863H496.892L510.061 137.525Z" fill="white"/>
<path d="M330.677 171.814H321.527V176.592H323.724C323.724 176.592 323.881 177.577 324.019 178.897L329.712 178.385L333.09 176.277L334.115 171.824L338.616 171.479L340.428 167.716L336.213 166.81L332.647 166.909L330.677 171.814Z" fill="white"/>
<path d="M308.546 180.177L315.293 179.616L315.844 174.957L311.826 171.814L308.93 175.577L308.546 180.177Z" fill="white"/>
<path d="M1012.14 402.769L992.504 403.36L991.726 392.672L994.908 394.051L1002.6 393.155L1001.81 383.363L980.469 383.62L974.687 375.916L974.953 371.799L947.543 347.114L940.678 352.453L980.016 400.425L985.551 402.276V404.867H978.144L980.016 410.846L1028.17 412.954L1012.14 402.769Z" fill="white"/>
<path d="M1046.42 349.261L1043.09 347.902L1041.53 339.657H1036.69L1033.61 347.941L1029.93 351.231L1002.06 366.411V381.364L1011.33 393.657H1034.78L1037.82 386.013L1043.09 381.206V377.69L1046.42 375.582V349.261Z" fill="white"/>
<path d="M1063.77 375.582L1049.67 381.019L1049.96 384.151H1046.42V403.646H1053.54L1052.56 391.214L1058.1 393.273V401.981L1063.96 401.587L1063.77 375.582Z" fill="white"/>
<path d="M1182.47 493.61L1178.6 477.869L1164.25 465.566L1163.11 442.112L1153.72 425.898L1145.2 425.445L1141.67 454.888L1125.5 453.716L1120.8 450.928L1120.36 439.314L1128.87 441.087L1136.17 433.975L1120.65 424.617H1102.53L1089.45 443.235H1084.2V437.364L1068.43 438.477L1043.68 466.649L1030.52 466.945L1015.88 476.933L1014.94 520.738L1006.03 529.259V536.952L1048.74 522.305L1083.22 520.926L1096.01 549.098L1135.26 550.428L1173.08 514.858L1182.47 493.61Z" fill="white"/>
<path d="M1101.2 570.799L1115.07 572.237L1126.24 566.1L1126.53 557.629L1114.23 556.309L1101.2 570.799Z" fill="white"/>
<path d="M1234.69 532.342L1228.92 533.475L1228.75 520.443L1218.12 521.123L1216.7 541.513L1207.4 547.877L1190.11 550.231L1162.38 569.971L1157.73 573.843V580.403L1172.12 578.246L1207.36 556.693L1217.24 550.132L1227.87 545.424L1238.66 539.356L1234.69 532.342Z" fill="white"/>
<path d="M1125.7 386.791L1116.73 387.087L1117.47 377.729L1108.9 372.686L1096.84 384.841L1104.97 394.829L1122.56 397.381L1132.35 402.523L1132.65 407.32H1126.19L1126.53 417.21L1147.78 415.85L1155.51 407.566L1163.9 406.788V421.977H1178.25V415.85H1170.94L1169.73 397.381L1135.26 381.738L1125.7 386.791Z" fill="white"/>
<path d="M869.902 342.563L873.28 351.625L885.394 347.114L886.606 334.584L876.954 332.722L869.902 342.563Z" fill="white"/>
<path d="M727.551 448.13L711.044 445.983V458.808L716.973 465.664L712.462 472.619L705.755 480.322V494.477L714.915 503.293L723.148 490.015L739.36 466.255L747.102 428.922H737.252L727.551 448.13Z" fill="white"/>
<path d="M1067.29 408.738H1061.81V411.634L1066.02 412.954L1067.29 408.738Z" fill="white"/>
<path d="M1043.16 412.954H1036.69V416.481H1043.16V412.954Z" fill="white"/>
<path d="M1052.32 416.481H1056.29V413.388L1059.23 412.954V409.92H1052.84L1050.21 412.954L1046.42 416.481V419.564L1052.32 419.022V416.481Z" fill="white"/>
<path d="M1068.73 419.337H1075.14V415.998L1079.56 416.481L1078.97 410.846L1071.71 411.979L1071.02 415.614L1062.91 416.481H1062.5V422.066H1068.73V419.337Z" fill="white"/>
<path d="M952.428 340.061L990.387 376.508L992.396 370.036L961.539 326.142L964.779 313.307L981.04 331.776L990.101 332.702L1002.05 324.763L1000.09 312.804L980.292 296.965L979.523 282.563L985.137 274.988L995.046 278.15L994.307 284.918L999.99 293.704L1005.04 290.079L1002.25 279.697L1030.22 269.669L1042.47 259.434L1040.57 240.915L1016.27 215.344L1015.82 194.52H1026.6L1060.21 220.091L1069.71 217.599L1063.35 209.364L1045.38 198.42L1046.51 182.128L1067.82 182.177L1069.55 162.013L1061.41 151.384L1066.26 146.144L1076.59 156.576L1079.98 152.162L1066.51 136.983L1033.58 133.013L1029.17 124.197L1038.73 110.574L1046.28 116.248L1069.09 118.218L1097.8 99.0388L1102.6 105.008L1096.19 115.046V124.965L1122.59 146.548L1130.96 142.184L1127.84 127.783L1109.03 110.219L1133.82 108.554V101.403L1145.73 98.9797L1136.61 92.6556L1136.95 87.7994L1162.21 91.8479L1167.01 87.7994L1132.96 73.4472L1009.14 67.0838L997.616 61.203L979.149 58.3858L965.4 57.9425L952.822 70.6398L947.572 70.2359L930.868 57.844H881.691L858.92 44.2109L813.269 47.0774L778.668 62.6806L778.875 80.6282L768.159 83.8493L765.756 65.8327L761.728 59.6171L749.82 56.6422L747.033 67.4285L750.519 76.2743L707.892 73.457L687.613 82.8347L684.53 73.9496L679.388 75.2695L675.665 85.1397L665.038 93.4732L639.076 92.764L637.854 87.0113L665.097 85.8588L670.632 81.0813L637.864 65.8426L597.935 67.0444L575.588 78.4808L567.157 93.4929L552.265 99.2653L546.05 106.082L547.478 113.962L555.16 115.016L559.809 126.551L572.84 121.232L575.144 136.618H571.027L560.311 135.023L548.355 137.032L536.792 153.374L520.137 156.044L517.792 170.209L524.854 171.854L522.835 180.995L506.249 177.734L491.17 180.995L488.018 189.417L490.579 207.079L499.532 211.236L514.326 211.187L524.421 210.231L527.514 202.203L543.174 181.891L553.516 183.989L563.66 174.799L565.561 181.98L590.558 198.883L587.466 202.991L576.198 202.331L580.463 208.497L587.466 210.024L595.591 206.646L595.453 196.825L599.127 195.002L596.133 191.899L579.429 182.61L575.125 170.189H588.933L593.346 174.553L605.352 184.896L605.775 197.386L618.215 210.566L622.824 192.51L631.403 187.782L632.999 202.577L641.39 211.807L666.644 211.423L674.149 216.979V230.237L664.93 238.61H639.312L623.74 226.967L607.381 228.612V238.601H602.131L596.557 234.582L568.191 227.351V209L532.143 211.797L520.964 217.777H506.761L499.719 217.077L482.385 226.721V244.816L446.918 270.467L449.902 281.342H457.052L455.24 291.734L450.197 293.645L449.902 320.833L480.474 355.713H493.8L494.726 353.566H518.62L525.593 347.202H539.155L546.651 354.689L566.891 356.747L564.241 383.748L586.717 423.475L574.859 446.111L575.696 456.74L585.102 466.049V491.719L597.295 508.179V529.535H633.54L660.773 501.609L669.303 486.38L680.226 483.976V471.25L687.406 462.719L702.554 441.846L699.402 410.196L692.744 398.445L722.636 369.839L755.503 322.753L749.219 319.769L714.974 326.969L706.109 322.606L670.17 254.805L672.661 251.859L708.375 295.152L709.251 308.539L717.387 316.823L734.337 315.75L769.253 290.375L780.333 283.213L780.146 274.368L768.445 272.93C768.445 272.93 727.334 253.544 727.334 252.687C727.334 251.8 727.581 236.079 727.581 236.079H736.691L738.011 247.545L757.02 258.518L778.816 259.562L825.905 267.285L837.005 274.269V285.046L835.577 299.762L859.836 339.499L867.518 341.312L875.358 329.993L879.633 297.812L887.709 280.485L900.671 275.619L923.54 277.825L952.399 303.427V340.071H952.428V340.061ZM620.805 87.0212L605.047 96.7436V103.107L613.95 107.274L614.64 115.923L601.895 134.776L579.852 134.56L578.483 130.048L592.252 123.015L592.4 96.9308L615.723 80.5789H620.825V87.0212H620.805ZM669.746 198.184V198.135L648.994 197.238L642.808 198.135V183.999L647.477 178.739L652.461 177.163L663.541 175.912L665.885 172.139L670.426 174.375L671.026 187.309L683.131 192.284L684.155 198.194L669.746 198.184ZM749.446 208.281H749.397L745.723 211.728L737.321 211.098L735.726 208.576L722.548 207.562L723.473 203.355L730.535 197.347V192.274L717.111 182.571L716.52 170.149L719.258 164.072L730.082 163.067L739.252 166.919L739.695 173.331L726.576 172.602L725.946 178.522L742.295 189.397V197.426L749.446 202.567V208.281Z" fill="white"/>
<path d="M396.174 385.767L367.917 385.521L345.52 377L344.446 361.032L336.961 347.941L316.829 347.705L305.069 329.274L294.678 324.28L294.147 329.777L275.236 330.949L268.283 321.305L248.495 317.286L232.225 336.052L206.715 331.737L204.854 302.885L186.14 299.674L193.645 285.587L191.478 277.451L167.043 293.872L151.609 292.01L146.024 279.904L149.462 267.413L157.981 251.781L177.522 241.832H215.392L215.294 253.366L228.915 259.641L227.792 239.921L237.592 230.1L257.379 217.097L258.64 207.975L278.447 187.447L299.455 175.863L297.574 174.375L311.727 160.969L316.977 162.318L319.38 165.333L324.758 159.314L325.989 158.693L320.168 157.905L314.19 155.906V150.064L317.322 147.474H324.374L327.614 148.872L330.352 154.428L333.731 153.936V153.601L334.755 153.886L344.555 152.32L345.914 147.523L351.4 148.922V154.093L346.269 157.718L347.047 163.471L364.884 168.938C364.884 168.938 364.933 169.036 364.933 169.135L369.001 168.79L369.296 161.117L355.192 154.704L354.355 150.931L366.065 146.912L366.548 135.771L354.345 128.295L353.557 109.441L336.666 117.676H330.549L332.155 103.294L309.423 97.8567L299.928 104.979V126.857L282.918 132.176L276.063 146.429L268.716 147.582V129.408L252.74 127.152L244.763 121.99L241.522 110.258L270.115 93.5028L284.081 89.2375L285.45 98.625L293.29 98.231L293.92 93.5028L302.055 92.3503L302.144 90.7545L298.717 89.2375L297.879 84.2729L307.876 83.406L313.904 77.0918L314.337 76.6486V76.6978L316.15 74.7868L337.316 72.1371L346.564 80.047L322.079 93.0595L353.183 100.378L357.162 89.9369H370.823L375.56 80.904L366.026 78.4906V67.0542L335.897 53.7068L315.175 56.1103L303.365 62.2373L304.252 77.1904L292.039 75.2794L290.177 67.0542L301.799 56.3763L280.584 55.3222L274.399 57.115L271.7 64.3355L279.747 65.7145L278.122 73.723L264.56 74.5406L262.452 79.8007L242.616 80.3622C242.616 80.3622 242.172 69.172 241.384 69.172C240.547 69.172 256.818 68.9356 256.818 68.9356L268.568 57.4401L262.156 54.1993L253.637 62.523L239.474 61.7448L231.003 49.9931H212.871L193.931 64.1483H211.266L212.871 69.2115L208.321 73.4767L227.527 74.048L230.462 80.9532L208.862 80.0864L207.789 74.777L194.226 71.812L187.027 67.8718L155.027 68.1673L145.187 77.742L138.48 77.1707L131.024 72.8561L108.932 66.2366H68.4224L45.001 82.1846L29.2718 84.6176L22.0819 90.2226L33.2509 91.8676V96.3496H9.3469L0 103.008L11.9372 113.155L44.7056 113.44L49.2657 108.564H76.6465L86.5351 117.361L85.9442 131.004L94.2865 138.717L87.3329 143.691L88.8989 161.639L64.1676 191.752V219.993L77.4345 226.416V251.761L90.3369 273.56L100.61 275.126L101.939 267.66L89.7952 248.796L87.392 230.425H94.5918L97.6746 249.338L115.403 275.175L110.656 283.509L122.012 300.757L150.043 307.692V303.18L161.202 304.717L160.178 312.755L168.943 314.272L182.565 318.094L201.771 339.942L226.256 341.765L228.659 361.801L211.866 373.503L211.029 391.283L208.685 402.267L232.924 432.636L234.785 442.969C234.785 442.969 243.61 445.372 244.585 445.372C245.659 445.372 264.372 459.537 264.372 459.537V514.355L271.03 516.316L266.382 541.592L277.6 556.486L275.581 581.555L290.335 607.62L309.334 624.188L328.353 624.533L330.254 618.455L316.297 606.655L317.125 600.764L319.686 593.524L320.217 586.274L310.664 585.988L305.769 580.009L313.746 572.375L314.82 566.691L306.005 564.199L306.488 558.85L319.035 556.998L338.084 547.886L344.506 536.125L364.48 510.455L359.939 490.517L366.065 479.839L384.424 480.381L396.765 470.678L400.784 432.025L414.514 414.54L416.956 403.37L404.408 399.351L396.174 385.767ZM246.683 193.328H236.489L238.124 186.393L242.921 185.881L243.994 183.526L251.293 182.522V188.747H251.332L246.683 193.328ZM253.725 176.158L248.919 179.271L242.901 180.315C242.901 180.315 242.901 170.79 242.901 169.785H253.725V176.158ZM262.836 168.79L267.78 171.804L263.821 175.065L260.049 171.804L262.836 168.79ZM256.375 176.769H257.163L269.405 180.315V186.6H259.123L256.385 182.571L256.375 176.769ZM248.387 159.55L255.006 165.579L248.387 167.194V159.55ZM220.376 160.555L229.575 156.753H242.222V160.555H244.96V167.194H225.714L218.603 165.234L220.376 160.555ZM218.603 177.793L225.901 169.805H236.479L222.917 188.767L217.283 185.753L218.603 177.793ZM208.813 132.639L216.358 134.382L213.747 144.627L205.563 147.257L200.422 136.599L208.813 132.639ZM170.844 84.263V83.6621H177.857L178.487 81.2389H189.962V86.2627L186.574 90.6166H170.844V84.263ZM181.974 99.8563C181.974 99.8563 189.026 98.6152 189.568 98.6152C190.109 98.6152 189.568 105.639 189.568 105.639L173.779 106.643L170.805 103.068L181.974 99.8563Z" fill="white"/>
</g>
</svg>
