<svg width="42" height="43" viewBox="0 0 42 43" fill="none" xmlns="http://www.w3.org/2000/svg">
<g clip-path="url(#clip0_3_87)">
<path d="M32.2508 24.5701C27.2877 24.5701 23.2502 28.7037 23.2502 33.785C23.2502 38.8663 27.2877 43 32.2508 43C37.2139 43 41.2515 38.8663 41.2515 33.785C41.2515 28.7037 37.2139 24.5701 32.2508 24.5701ZM32.2508 41.4641C28.115 41.4641 24.7503 38.0193 24.7503 33.785C24.7503 29.5507 28.115 26.1059 32.2508 26.1059C36.3866 26.1059 39.7514 29.5507 39.7514 33.785C39.7514 38.0193 36.3866 41.4641 32.2508 41.4641Z" fill="white"/>
<path d="M36.7511 33.0171H33.0009V29.1776C33.0009 28.7529 32.6656 28.4097 32.2508 28.4097C31.836 28.4097 31.5008 28.7529 31.5008 29.1776V33.785C31.5008 34.2097 31.836 34.553 32.2508 34.553H36.7511C37.1659 34.553 37.5012 34.2097 37.5012 33.785C37.5012 33.3604 37.1659 33.0171 36.7511 33.0171Z" fill="white"/>
<path d="M40.9192 1.6625C40.7114 1.52044 40.4481 1.49279 40.2156 1.59032L27.7902 6.82901L15.3506 0.0867455C15.3409 0.0813701 15.3296 0.0798343 15.3191 0.0744589C15.2846 0.0575649 15.2494 0.0452783 15.2126 0.0337596C15.1893 0.0268484 15.1668 0.0191693 15.1436 0.0145618C15.1053 0.00688266 15.0671 0.00457892 15.0281 0.00227518C15.0056 0.00150727 14.9838 -0.000796463 14.9606 -2.85514e-05C14.9238 0.00227518 14.8878 0.00995431 14.8518 0.0176334C14.8263 0.0230088 14.8008 0.0260805 14.7753 0.0337596C14.7708 0.0352954 14.7663 0.0352954 14.7618 0.0368312L1.26085 4.6443C0.95558 4.74874 0.748566 5.04208 0.748566 5.37228V38.3925C0.748566 38.639 0.864074 38.8709 1.05984 39.016C1.1896 39.1113 1.34336 39.1604 1.49862 39.1604C1.57812 39.1604 1.65838 39.1474 1.73564 39.1205L14.9838 34.599L20.736 36.8075C20.823 36.8405 20.9115 36.8559 21 36.8559C21.303 36.8559 21.5896 36.6662 21.7028 36.3583C21.8476 35.9605 21.6518 35.5182 21.264 35.3692L15.7496 33.2521V2.04108L27.0004 8.13907V21.4984C27.0004 21.9231 27.3357 22.2663 27.7505 22.2663C28.1653 22.2663 28.5005 21.9231 28.5005 21.4984V8.19052L39.7514 3.44713V24.5701C39.7514 24.9947 40.0866 25.338 40.5014 25.338C40.9162 25.338 41.2515 24.9947 41.2515 24.5701V2.30064C41.2515 2.04415 41.1269 1.80533 40.9192 1.6625ZM2.24867 5.92595L14.2495 1.83067V33.2321L2.24867 37.3274V5.92595Z" fill="white"/>
</g>
<defs>
<clipPath id="clip0_3_87">
<rect width="42" height="43" fill="white"/>
</clipPath>
</defs>
</svg>
