<svg width="45" height="45" viewBox="0 0 45 45" fill="none" xmlns="http://www.w3.org/2000/svg">
<path d="M22.5002 44.9995C22.3702 45.001 22.2396 44.9984 22.1091 44.9961C22.0704 44.9979 22.0295 44.9969 21.9929 44.9987C21.9155 44.9987 21.8385 44.9948 21.7621 44.9874C14.2878 44.7452 7.72482 40.8404 3.81144 35.0158C3.76749 34.9674 3.7306 34.9124 3.7026 34.8525C1.35777 31.296 -0.00590726 27.0375 0.000633776 22.4677C0.00926795 16.4578 2.35776 10.811 6.61336 6.56773C10.7018 2.49109 16.0811 0.17844 21.8263 0.0104657C21.9029 0.00366298 21.9906 0.00837253 22.0575 0C22.097 0 22.1366 0.00104657 22.1758 0.0031397C22.2948 0.00130821 22.4131 0.00104657 22.5322 0.000784925C28.5421 0.00915746 34.1888 2.35765 38.4324 6.61325C42.6759 10.8689 45.0082 16.5224 44.9996 22.5323C44.993 27.0974 43.6192 31.3483 41.2683 34.8964C41.2382 34.9637 41.1969 35.0247 41.1469 35.0775C37.0988 41.0607 30.2493 44.999 22.5002 44.9995ZM21.737 43.6607C21.8634 43.6711 21.9903 43.6787 22.1177 43.6839C23.3613 43.55 24.6931 41.3629 25.7046 37.775C25.9272 36.9857 26.1303 36.1455 26.3137 35.262L17.7007 35.2497C17.8812 36.134 18.0822 36.9747 18.3025 37.7646C19.2674 41.225 20.5337 43.3857 21.737 43.6607ZM27.648 35.2638C27.4447 36.2753 27.2163 37.2337 26.9638 38.1298C26.2946 40.5037 25.4997 42.2865 24.6062 43.4398C28.2111 42.5788 31.3605 39.5605 33.4764 35.2722L27.648 35.2638ZM11.4875 35.2405C13.3485 39.0398 16.0217 41.8475 19.1078 43.0479C18.3302 41.8954 17.635 40.242 17.0421 38.1157C16.7923 37.219 16.5665 36.2593 16.3663 35.2476L11.4875 35.2405ZM34.9015 35.2743C33.4722 38.3493 31.5431 40.8708 29.2917 42.5751C33.3469 41.1994 36.8552 38.6272 39.3934 35.2805L34.9015 35.2743ZM5.57046 35.2321C8.09923 38.5859 11.5995 41.1683 15.6505 42.5555C13.404 40.8446 11.4825 38.3179 10.0618 35.2384L5.57046 35.2321ZM35.4659 33.9668L40.3097 33.9736C42.3327 30.8444 43.5538 27.1505 43.6804 23.1843L37.5776 23.1757C37.4962 27.1074 36.7359 30.7887 35.4659 33.9668ZM27.8916 33.9558L34.0726 33.9647C35.3895 30.8345 36.1851 27.1401 36.2694 23.1739L28.8008 23.1631C28.7637 27.0239 28.4492 30.7188 27.8916 33.9558ZM17.4534 33.9412L26.5643 33.9543C27.1336 30.74 27.4549 27.0399 27.4924 23.1613L16.5563 23.1456C16.5827 27.0242 16.8935 30.7251 17.4534 33.9412ZM10.8951 33.9318L16.1264 33.9391C15.578 30.7 15.2742 27.0048 15.2483 23.1438L8.729 23.1343C8.80199 27.1008 9.58718 30.7976 10.8951 33.9318ZM4.65811 33.9226L9.50162 33.9294C8.24077 30.7476 7.49091 27.0645 7.42079 23.1323L1.318 23.1239C1.43312 27.0904 2.64374 30.7876 4.65811 33.9226ZM37.5797 21.8675L43.6825 21.8761C43.5749 18.126 42.4972 14.5413 40.5684 11.4115L35.6472 11.4047C36.8468 14.5706 37.5143 18.1441 37.5797 21.8675ZM28.8027 21.8549L36.2712 21.8657C36.2029 18.1148 35.5009 14.5324 34.243 11.4026L27.9798 11.3937C28.4934 14.5515 28.7775 18.1263 28.8027 21.8549ZM16.5584 21.8374L27.4945 21.8531C27.4691 18.1082 27.1784 14.529 26.6543 11.3919L17.4286 11.3785C16.8954 14.514 16.5945 18.0925 16.5584 21.8374ZM8.73109 21.8261L15.2502 21.8356C15.2857 18.1069 15.5803 14.5329 16.1028 11.3764L10.7892 11.3689C9.52203 14.4949 8.80984 18.0755 8.73109 21.8261ZM1.31957 21.8157L7.42236 21.8243C7.49823 18.1012 8.17615 14.5295 9.38493 11.3668L4.46372 11.36C2.526 14.484 1.43809 18.0656 1.31957 21.8157ZM35.1103 10.0957L39.6922 10.102C39.0381 9.19932 38.3084 8.3414 37.5062 7.53685C35.1851 5.20928 32.4185 3.48716 29.3976 2.45106C30.8165 3.53452 32.1237 4.96334 33.2728 6.70771C33.9638 7.75741 34.5779 8.89215 35.1103 10.0957ZM27.7493 10.085L33.6715 10.0936C33.2273 9.15327 32.7291 8.26159 32.1799 7.42748C30.1012 4.27078 27.4884 2.24829 24.6661 1.56619C25.5562 2.72238 26.3461 4.5073 27.0086 6.88301C27.2859 7.87777 27.5334 8.94945 27.7493 10.085ZM17.6695 10.0706L26.417 10.0831C26.2195 9.07582 25.9963 8.12319 25.7485 7.23413C24.7475 3.64493 23.4223 1.45447 22.1795 1.31527C22.0518 1.31998 21.9241 1.32731 21.7969 1.33751C20.5929 1.60988 19.321 3.76659 18.3464 7.22366C18.096 8.11167 17.87 9.06405 17.6695 10.0706ZM11.3642 10.0614L16.337 10.0685C16.5563 8.93349 16.8067 7.86259 17.0869 6.86888C17.686 4.74356 18.3859 3.09208 19.1672 1.9419C16.814 2.84875 14.6455 4.7106 12.8635 7.39975C12.3119 8.23229 11.8111 9.12266 11.3642 10.0614ZM5.34388 10.0531L9.92575 10.0593C10.4616 8.85735 11.0788 7.72471 11.7732 6.67709C12.9273 4.93561 14.2384 3.51071 15.6604 2.43117C12.6369 3.4589 9.86504 5.17292 7.53748 7.49394C6.73267 8.29639 6.00034 9.15196 5.34388 10.0531Z" fill="white"/>
</svg>
