<svg width="44" height="42" viewBox="0 0 44 42" fill="none" xmlns="http://www.w3.org/2000/svg">
<path d="M43.3063 36.5158H42.9426C42.6692 35.1328 41.5927 34.0355 40.2209 33.7309V30.7691C40.2209 30.387 39.9112 30.0773 39.5291 30.0773H39.1644V18.6202H39.5291C39.9112 18.6202 40.2209 18.3106 40.2209 17.9284V15.9743H42.3493C43.0879 15.9743 43.7058 15.5183 43.9233 14.8124C44.1409 14.1066 43.887 13.3818 43.2767 12.9659L26.2939 1.39556C25.0228 0.529566 23.5381 0.0717773 22 0.0717773C20.4619 0.0717773 18.9772 0.529566 17.706 1.39556L0.723439 12.966C0.113026 13.3819 -0.140747 14.1067 0.0767604 14.8125C0.294354 15.5183 0.912243 15.9744 1.65079 15.9744H3.7792V17.9285C3.7792 18.3107 4.08892 18.6203 4.47099 18.6203H4.83571V30.0774H4.47099C4.08892 30.0774 3.7792 30.387 3.7792 30.7692V33.7309C2.40738 34.0355 1.33093 35.1328 1.05756 36.5158H0.69379C0.311713 36.5158 0.00199486 36.8255 0.00199486 37.2076V41.2365C0.00199486 41.6187 0.311713 41.9283 0.69379 41.9283H43.3063C43.6884 41.9283 43.9981 41.6187 43.9981 41.2365V37.2076C43.9981 36.8255 43.6884 36.5158 43.3063 36.5158ZM4.47108 14.5909V14.5908H1.65087C1.48158 14.5908 1.42039 14.4743 1.39899 14.4048C1.37759 14.3354 1.36256 14.2047 1.50246 14.1094L18.4852 2.53895C19.5257 1.83006 20.7411 1.45537 22.0002 1.45537C23.2591 1.45537 24.4746 1.83014 25.5151 2.53895L42.4977 14.1095C42.6376 14.2048 42.6225 14.3355 42.6011 14.4049C42.5797 14.4744 42.5185 14.5909 42.3493 14.5909H39.5292H32.991H30.0226H23.4845H20.5158H13.9776H11.0092H4.47108ZM34.0473 17.2366H33.6826V15.9743H38.8373V17.2366H38.4726H34.0473ZM37.7808 18.6202V30.0773H34.739V18.6202H37.7808ZM33.6826 31.4608H34.0474H38.4726H38.8373V33.6455H33.6826V31.4608ZM30.0224 30.0773H29.6577V18.6202H30.0224C30.4045 18.6202 30.7142 18.3106 30.7142 17.9284V15.9743H32.2991V17.9284C32.2991 18.3106 32.6089 18.6202 32.9909 18.6202H33.3557V30.0773H32.9909C32.6089 30.0773 32.2991 30.387 32.2991 30.7691V33.6456H30.7142V30.7691C30.7142 30.387 30.4045 30.0773 30.0224 30.0773ZM24.5406 17.2366H24.1759V15.9743H29.3305V17.2366H28.9659H24.5406ZM28.2742 18.6202V30.0773H25.2325V18.6202H28.2742ZM24.1761 31.4608H24.5408H28.966H29.3307V33.6455H24.1761V31.4608ZM20.5158 30.0773H20.1511V18.6202H20.5158C20.8979 18.6202 21.2076 18.3106 21.2076 17.9284V15.9743H22.7926V17.9284C22.7926 18.3106 23.1023 18.6202 23.4844 18.6202H23.8491V30.0773H23.4844C23.1023 30.0773 22.7926 30.387 22.7926 30.7691V33.6456H21.2076V30.7691C21.2076 30.387 20.8978 30.0773 20.5158 30.0773ZM15.0341 17.2366H14.6694V15.9743H19.824V17.2366H19.4594H15.0341ZM18.7676 18.6202V30.0773H15.7258V18.6202H18.7676ZM14.6694 31.4608H15.0342H19.4594H19.8241V33.6455H14.6694V31.4608ZM11.0092 30.0773H10.6445V18.6202H11.0092C11.3913 18.6202 11.701 18.3106 11.701 17.9284V15.9743H13.2859V17.9284C13.2859 18.3106 13.5957 18.6202 13.9777 18.6202H14.3424V30.0773H13.9777C13.5957 30.0773 13.2859 30.387 13.2859 30.7691V33.6456H11.701V30.7691C11.701 30.387 11.3913 30.0773 11.0092 30.0773ZM5.52742 17.2366H5.1627V15.9743H10.3173V17.2366H9.95268H5.52742ZM9.26089 18.6202V30.0773H6.21922V18.6202H9.26089ZM5.16279 31.4608H5.52751H9.95268H10.3174V33.6455H5.16279V31.4608ZM4.5516 35.0291H11.0092H13.9776H20.5158H23.4843H30.0224H32.9909H39.4484C40.4079 35.0291 41.2245 35.6528 41.5143 36.5158H2.48576C2.77545 35.6528 3.59211 35.0291 4.5516 35.0291ZM42.6146 40.5447H42.6145H1.3855V37.8994H1.6813H42.3188H42.6146V40.5447Z" fill="#3B40A5"/>
</svg>
