<svg width="43" height="43" viewBox="0 0 43 43" fill="none" xmlns="http://www.w3.org/2000/svg">
<g clip-path="url(#clip0_261_432)">
<path d="M41.9862 13.7613L21.8776 0.116182C21.6495 -0.0387693 21.3499 -0.0386853 21.1216 0.116182L1.01306 13.7613C0.828381 13.8866 0.717773 14.0952 0.717773 14.3184V42.3268C0.717773 42.6986 1.01919 43.0001 1.39108 43.0001H41.6082C41.98 43.0001 42.2815 42.6987 42.2815 42.3268V14.3184C42.2815 14.0952 42.1709 13.8866 41.9862 13.7613ZM16.5173 41.6535H9.24597V34.3821H10.772V38.0178C10.772 38.3896 11.0735 38.6911 11.4453 38.6911H14.318C14.6898 38.6911 14.9913 38.3897 14.9913 38.0178V34.3821H16.5174V41.6535H16.5173ZM7.80966 17.236V15.7099H35.1897V17.236H7.80966ZM12.1187 37.3445V34.3821H13.6447V37.3445H12.1187ZM16.5173 33.0355H14.3179H11.4453H9.24588V25.7642H10.772V29.3998C10.772 29.7716 11.0734 30.0731 11.4453 30.0731H14.3179C14.6897 30.0731 14.9913 29.7717 14.9913 29.3998V25.7642H16.5173V33.0355ZM12.1187 28.7265V25.7642H13.6447V28.7265H12.1187ZM25.1353 41.6535H17.8639V34.3821H19.39V38.0178C19.39 38.3896 19.6914 38.6911 20.0633 38.6911H22.936C23.3079 38.6911 23.6093 38.3897 23.6093 38.0178V34.3821H25.1354V41.6535H25.1353ZM20.7365 37.3445V34.3821H22.2626V37.3445H20.7365ZM40.9349 41.6535H35.0999V27.2453C35.0999 26.8735 34.7985 26.572 34.4266 26.572C34.0547 26.572 33.7533 26.8734 33.7533 27.2453V41.6534H26.4819V33.7088C26.4819 33.337 26.1806 33.0355 25.8086 33.0355H17.8639V25.0909C17.8639 24.7191 17.5625 24.4176 17.1906 24.4176H9.24597V18.5825H33.7533V24.3727C33.7533 24.7445 34.0546 25.046 34.4266 25.046C34.7985 25.046 35.0999 24.7446 35.0999 24.3727V18.5825H35.863C36.2348 18.5825 36.5363 18.2811 36.5363 17.9092V15.0366C36.5363 14.6648 36.2349 14.3633 35.863 14.3633H7.13636C6.76456 14.3633 6.46306 14.6647 6.46306 15.0366V17.9093C6.46306 18.2811 6.76448 18.5826 7.13636 18.5826H7.89944V41.6536H2.06438V14.6752L21.4996 1.48697L40.9349 14.6752V41.6535H40.9349Z" fill="#3B40A5"/>
<path d="M24.3727 5.74536H18.6274C18.2556 5.74536 17.9541 6.04678 17.9541 6.41866C17.9541 6.79055 18.2555 7.09197 18.6274 7.09197H24.3727C24.7446 7.09197 25.046 6.79055 25.046 6.41866C25.046 6.04678 24.7446 5.74536 24.3727 5.74536Z" fill="#3B40A5"/>
<path d="M24.3727 8.61792H18.6274C18.2556 8.61792 17.9541 8.91934 17.9541 9.29122C17.9541 9.66311 18.2555 9.96453 18.6274 9.96453H24.3727C24.7446 9.96453 25.046 9.66311 25.046 9.29122C25.046 8.91934 24.7446 8.61792 24.3727 8.61792Z" fill="#3B40A5"/>
<path d="M24.3727 11.4905H18.6274C18.2556 11.4905 17.9541 11.7919 17.9541 12.1638C17.9541 12.5357 18.2555 12.8371 18.6274 12.8371H24.3727C24.7446 12.8371 25.046 12.5357 25.046 12.1638C25.046 11.7919 24.7446 11.4905 24.3727 11.4905Z" fill="#3B40A5"/>
<path d="M14.3184 30.8811H11.4458C11.074 30.8811 10.7725 31.1825 10.7725 31.5544C10.7725 31.9262 11.0739 32.2277 11.4458 32.2277H14.3184C14.6902 32.2277 14.9918 31.9263 14.9918 31.5544C14.9917 31.1825 14.6902 30.8811 14.3184 30.8811Z" fill="#3B40A5"/>
<path d="M14.3184 39.499H11.4458C11.074 39.499 10.7725 39.8004 10.7725 40.1723C10.7725 40.5441 11.0739 40.8456 11.4458 40.8456H14.3184C14.6902 40.8456 14.9918 40.5442 14.9918 40.1723C14.9917 39.8005 14.6902 39.499 14.3184 39.499Z" fill="#3B40A5"/>
<path d="M22.9366 39.499H20.0639C19.6921 39.499 19.3906 39.8004 19.3906 40.1723C19.3906 40.5441 19.692 40.8456 20.0639 40.8456H22.9366C23.3085 40.8456 23.6099 40.5442 23.6099 40.1723C23.6099 39.8005 23.3086 39.499 22.9366 39.499Z" fill="#3B40A5"/>
</g>
<defs>
<clipPath id="clip0_261_432">
<rect width="43" height="43" fill="white"/>
</clipPath>
</defs>
</svg>
