<svg width="43" height="43" viewBox="0 0 43 43" fill="none" xmlns="http://www.w3.org/2000/svg">
<path d="M8.20671 28.0429C8.30837 29.0441 8.85007 29.9422 9.62093 30.5488C9.18941 31.0565 8.92822 31.7132 8.92822 32.4301V35.1177C8.92822 36.2761 9.59682 37.274 10.5768 37.7427C10.5213 38.0105 10.4919 38.2877 10.4919 38.5716C10.4919 40.8183 12.3198 42.6462 14.5665 42.6462C16.8133 42.6462 18.6411 40.8183 18.6411 38.5716C18.6411 38.3874 18.6277 38.2064 18.6039 38.0286H25.306C25.2823 38.2065 25.2688 38.3874 25.2688 38.5716C25.2688 40.8183 27.0967 42.6462 29.3435 42.6462C31.5902 42.6462 33.4181 40.8183 33.4181 38.5716C33.4181 36.3248 31.5902 34.4969 29.3435 34.4969C27.9805 34.4969 26.7727 35.1702 26.0325 36.2009H17.8773C17.1372 35.1702 15.9293 34.4969 14.5664 34.4969C13.257 34.4969 12.0906 35.1185 11.3446 36.0813C10.9937 35.9022 10.7557 35.5389 10.7557 35.1178V32.4302C10.7557 31.8333 11.2416 31.3477 11.8389 31.3477C11.8417 31.3477 11.8444 31.3474 11.8472 31.3473C11.8527 31.3474 11.8583 31.3477 11.8638 31.3477H33.2307C34.9974 31.3477 36.8273 30.038 37.3968 28.3659L42.8264 12.4235C43.1336 11.5215 43.0291 10.612 42.5395 9.92819C42.05 9.24437 41.2228 8.8521 40.2699 8.8521H38.3212L32.4489 2.95162C31.5359 2.03881 30.056 2.03089 29.1324 2.92691L19.2222 5.59259L16.5619 0.822595C16.3161 0.381855 15.7596 0.223888 15.3187 0.469585L9.99787 3.4371C9.78612 3.55512 9.63007 3.75251 9.56392 3.98568C9.49769 4.21884 9.52684 4.46872 9.64495 4.68038L11.9715 8.85202H9.76741C9.17966 8.85202 8.62604 9.00215 8.14596 9.28362L7.71444 4.96942C7.66771 4.50222 7.27457 4.14652 6.80511 4.14652H0.913858C0.409148 4.14652 0 4.55566 0 5.06037C0 5.56509 0.409148 5.97423 0.913858 5.97423H5.97811L8.20671 28.0429ZM29.3436 36.3245C30.5826 36.3245 31.5905 37.3325 31.5905 38.5715C31.5905 39.8104 30.5826 40.8184 29.3436 40.8184C28.1047 40.8184 27.0967 39.8105 27.0967 38.5715C27.0967 37.3325 28.1047 36.3245 29.3436 36.3245ZM14.5666 36.3245C15.8055 36.3245 16.8135 37.3325 16.8135 38.5715C16.8135 39.8104 15.8055 40.8184 14.5666 40.8184C13.3276 40.8184 12.3197 39.8105 12.3197 38.5715C12.3197 37.3325 13.3276 36.3245 14.5666 36.3245ZM31.1553 4.24243L35.7429 8.85202H25.7911L30.3989 4.24408C30.6079 4.03511 30.9478 4.03511 31.1553 4.24243ZM26.5418 5.51643L23.2063 8.85202H21.0401L20.1401 7.23849L26.5418 5.51643ZM11.6862 4.58821L15.4108 2.51097L18.9473 8.85202H14.0642L11.6862 4.58821ZM41.0965 11.8342L35.6669 27.7765C35.3506 28.7052 34.2122 29.5198 33.2309 29.5198H11.8641C10.9586 29.5198 10.1164 28.7589 10.025 27.8584L9.70213 24.6734H29.3499C29.8546 24.6734 30.2638 24.2643 30.2638 23.7596C30.2638 23.2549 29.8546 22.8457 29.3499 22.8457H9.51692L8.43544 12.1778C8.43544 12.1775 8.43544 12.1774 8.43544 12.1772L8.43526 12.1752C8.39409 11.7689 8.51176 11.3898 8.76677 11.1077C9.01613 10.8317 9.37149 10.6797 9.76741 10.6797H37.9332C37.9363 10.6798 37.9391 10.6802 37.9422 10.6802C37.9451 10.6802 37.9481 10.6798 37.9511 10.6797H40.2703C40.6313 10.6797 40.9096 10.7906 41.0537 10.9919C41.1978 11.1931 41.2129 11.4923 41.0965 11.8342Z" fill="#3B40A5"/>
</svg>
