<svg width="43" height="43" viewBox="0 0 43 43" fill="none" xmlns="http://www.w3.org/2000/svg">
<path d="M38.0421 43C38.0418 43 38.0413 43 38.0408 43L22.0597 42.9695H4.95845C4.62105 42.9695 4.34766 42.6961 4.34766 42.3587V14.88C4.34766 14.5426 4.62105 14.2692 4.95845 14.2692H13.4878V0.610795C13.4878 0.273392 13.7612 0 14.0986 0H38.0418C38.3792 0 38.6526 0.273392 38.6526 0.610795V42.3892C38.6526 42.5514 38.5881 42.7068 38.4733 42.8217C38.3589 42.9357 38.2038 43 38.0421 43ZM22.6715 41.7491L37.431 41.7772V1.22159H14.7094V14.2692H22.0607C22.3981 14.2692 22.6715 14.5426 22.6715 14.88V41.7491ZM5.56925 41.7479H21.4499V15.4908H5.56925V41.7479ZM19.5643 37.7799H14.7319C14.3945 37.7799 14.1211 37.5065 14.1211 37.1691V34.3411C14.1211 34.0037 14.3945 33.7303 14.7319 33.7303H19.5643C19.9017 33.7303 20.1751 34.0037 20.1751 34.3411V37.1691C20.1751 37.5065 19.9017 37.7799 19.5643 37.7799ZM15.3427 36.5583H18.9535V34.9519H15.3427V36.5583ZM12.2875 37.7799H7.45514C7.11774 37.7799 6.84434 37.5065 6.84434 37.1691V34.3411C6.84434 34.0037 7.11774 33.7303 7.45514 33.7303H12.2875C12.6249 33.7303 12.8983 34.0037 12.8983 34.3411V37.1691C12.8983 37.5065 12.6249 37.7799 12.2875 37.7799ZM8.06593 36.5583H11.6767V34.9519H8.06593V36.5583ZM33.8906 37.4662H31.5542C31.2168 37.4662 30.9434 37.1928 30.9434 36.8554V34.3164C30.9434 33.979 31.2168 33.7056 31.5542 33.7056H33.8906C34.228 33.7056 34.5014 33.979 34.5014 34.3164V36.8554C34.5014 37.1928 34.228 37.4662 33.8906 37.4662ZM32.1652 36.2446H33.2801V34.9272H32.1652V36.2446ZM27.1526 37.4662H24.8161C24.4787 37.4662 24.2053 37.1928 24.2053 36.8554V34.3164C24.2053 33.979 24.4787 33.7056 24.8161 33.7056H27.1526C27.49 33.7056 27.7634 33.979 27.7634 34.3164V36.8554C27.7634 37.1928 27.49 37.4662 27.1526 37.4662ZM25.4269 36.2446H26.5418V34.9272H25.4269V36.2446ZM19.5643 32.2542H14.7319C14.3945 32.2542 14.1211 31.9808 14.1211 31.6434V28.8154C14.1211 28.478 14.3945 28.2046 14.7319 28.2046H19.5643C19.9017 28.2046 20.1751 28.478 20.1751 28.8154V31.6434C20.1751 31.9805 19.9017 32.2542 19.5643 32.2542ZM15.3427 31.0326H18.9535V29.4262H15.3427V31.0326ZM12.2875 32.2542H7.45514C7.11774 32.2542 6.84434 31.9808 6.84434 31.6434V28.8154C6.84434 28.478 7.11774 28.2046 7.45514 28.2046H12.2875C12.6249 28.2046 12.8983 28.478 12.8983 28.8154V31.6434C12.8983 31.9805 12.6249 32.2542 12.2875 32.2542ZM8.06593 31.0326H11.6767V29.4262H8.06593V31.0326ZM33.8906 31.38H31.5542C31.2168 31.38 30.9434 31.1066 30.9434 30.7692V28.2305C30.9434 27.8931 31.2168 27.6197 31.5542 27.6197H33.8906C34.228 27.6197 34.5014 27.8931 34.5014 28.2305V30.7692C34.5014 31.1066 34.228 31.38 33.8906 31.38ZM32.1652 30.1584H33.2801V28.8413H32.1652V30.1584ZM27.1526 31.38H24.8161C24.4787 31.38 24.2053 31.1066 24.2053 30.7692V28.2305C24.2053 27.8931 24.4787 27.6197 24.8161 27.6197H27.1526C27.49 27.6197 27.7634 27.8931 27.7634 28.2305V30.7692C27.7634 31.1066 27.49 31.38 27.1526 31.38ZM25.4269 30.1584H26.5418V28.8413H25.4269V30.1584ZM19.5643 26.7282H14.7319C14.3945 26.7282 14.1211 26.4548 14.1211 26.1174V23.2894C14.1211 22.952 14.3945 22.6786 14.7319 22.6786H19.5643C19.9017 22.6786 20.1751 22.952 20.1751 23.2894V26.1174C20.1751 26.4548 19.9017 26.7282 19.5643 26.7282ZM15.3427 25.5066H18.9535V23.9002H15.3427V25.5066ZM12.2875 26.7282H7.45514C7.11774 26.7282 6.84434 26.4548 6.84434 26.1174V23.2894C6.84434 22.952 7.11774 22.6786 7.45514 22.6786H12.2875C12.6249 22.6786 12.8983 22.952 12.8983 23.2894V26.1174C12.8983 26.4548 12.6249 26.7282 12.2875 26.7282ZM8.06593 25.5066H11.6767V23.9002H8.06593V25.5066ZM33.8906 25.2938H31.5542C31.2168 25.2938 30.9434 25.0204 30.9434 24.683V22.1443C30.9434 21.8069 31.2168 21.5335 31.5542 21.5335H33.8906C34.228 21.5335 34.5014 21.8069 34.5014 22.1443V24.6832C34.5014 25.0204 34.228 25.2938 33.8906 25.2938ZM32.1652 24.0722H33.2801V22.7548H32.1652V24.0722ZM27.1526 25.2938H24.8161C24.4787 25.2938 24.2053 25.0204 24.2053 24.683V22.1443C24.2053 21.8069 24.4787 21.5335 24.8161 21.5335H27.1526C27.49 21.5335 27.7634 21.8069 27.7634 22.1443V24.6832C27.7634 25.0204 27.49 25.2938 27.1526 25.2938ZM25.4269 24.0722H26.5418V22.7548H25.4269V24.0722ZM19.5643 21.2022H14.7319C14.3945 21.2022 14.1211 20.9288 14.1211 20.5914V17.7634C14.1211 17.426 14.3945 17.1526 14.7319 17.1526H19.5643C19.9017 17.1526 20.1751 17.426 20.1751 17.7634V20.5916C20.1751 20.9288 19.9017 21.2022 19.5643 21.2022ZM15.3427 19.9806H18.9535V18.3739H15.3427V19.9806ZM12.2875 21.2022H7.45514C7.11774 21.2022 6.84434 20.9288 6.84434 20.5914V17.7634C6.84434 17.426 7.11774 17.1526 7.45514 17.1526H12.2875C12.6249 17.1526 12.8983 17.426 12.8983 17.7634V20.5916C12.8983 20.9288 12.6249 21.2022 12.2875 21.2022ZM8.06593 19.9806H11.6767V18.3739H8.06593V19.9806ZM33.8906 19.2076H31.5542C31.2168 19.2076 30.9434 18.9342 30.9434 18.5968V16.0581C30.9434 15.7207 31.2168 15.4473 31.5542 15.4473H33.8906C34.228 15.4473 34.5014 15.7207 34.5014 16.0581V18.5968C34.5014 18.9342 34.228 19.2076 33.8906 19.2076ZM32.1652 17.986H33.2801V16.6689H32.1652V17.986ZM27.1526 19.2076H24.8161C24.4787 19.2076 24.2053 18.9342 24.2053 18.5968V16.0581C24.2053 15.7207 24.4787 15.4473 24.8161 15.4473H27.1526C27.49 15.4473 27.7634 15.7207 27.7634 16.0581V18.5968C27.7634 18.9342 27.49 19.2076 27.1526 19.2076ZM25.4269 17.986H26.5418V16.6689H25.4269V17.986ZM33.8906 13.1216H31.5542C31.2168 13.1216 30.9434 12.8482 30.9434 12.5108V9.97185C30.9434 9.63444 31.2168 9.36105 31.5542 9.36105H33.8906C34.228 9.36105 34.5014 9.63444 34.5014 9.97185V12.5108C34.5014 12.848 34.228 13.1216 33.8906 13.1216ZM32.1652 11.9H33.2801V10.5826H32.1652V11.9ZM27.1526 13.1216H24.8161C24.4787 13.1216 24.2053 12.8482 24.2053 12.5108V9.97185C24.2053 9.63444 24.4787 9.36105 24.8161 9.36105H27.1526C27.49 9.36105 27.7634 9.63444 27.7634 9.97185V12.5108C27.7634 12.848 27.49 13.1216 27.1526 13.1216ZM25.4269 11.9H26.5418V10.5826H25.4269V11.9ZM20.4143 13.1216H18.0778C17.7404 13.1216 17.4671 12.8482 17.4671 12.5108V9.97185C17.4671 9.63444 17.7404 9.36105 18.0778 9.36105H20.4143C20.7517 9.36105 21.0251 9.63444 21.0251 9.97185V12.5108C21.0251 12.848 20.7517 13.1216 20.4143 13.1216ZM18.6889 11.9H19.8037V10.5826H18.6889V11.9ZM33.8906 7.03514H31.5542C31.2168 7.03514 30.9434 6.76175 30.9434 6.42435V3.88564C30.9434 3.54823 31.2168 3.27484 31.5542 3.27484H33.8906C34.228 3.27484 34.5014 3.54823 34.5014 3.88564V6.42459C34.5014 6.76175 34.228 7.03514 33.8906 7.03514ZM32.1652 5.81355H33.2801V4.49619H32.1652V5.81355ZM27.1526 7.03514H24.8161C24.4787 7.03514 24.2053 6.76175 24.2053 6.42435V3.88564C24.2053 3.54823 24.4787 3.27484 24.8161 3.27484H27.1526C27.49 3.27484 27.7634 3.54823 27.7634 3.88564V6.42459C27.7634 6.76175 27.49 7.03514 27.1526 7.03514ZM25.4269 5.81355H26.5418V4.49619H25.4269V5.81355ZM20.4143 7.03514H18.0778C17.7404 7.03514 17.4671 6.76175 17.4671 6.42435V3.88564C17.4671 3.54823 17.7404 3.27484 18.0778 3.27484H20.4143C20.7517 3.27484 21.0251 3.54823 21.0251 3.88564V6.42459C21.0251 6.76175 20.7517 7.03514 20.4143 7.03514ZM18.6889 5.81355H19.8037V4.49619H18.6889V5.81355Z" fill="#3B40A5"/>
</svg>
