<svg width="46" height="46" viewBox="0 0 46 46" fill="none" xmlns="http://www.w3.org/2000/svg">
<path d="M12.3491 23.7688H9.1084C8.7115 23.7688 8.38965 24.0906 8.38965 24.4875V29.349C8.38965 29.7459 8.7115 30.0677 9.1084 30.0677H12.3491C12.7461 30.0677 13.0678 29.7459 13.0678 29.349V24.4875C13.0678 24.0906 12.7461 23.7688 12.3491 23.7688ZM11.6303 28.6302H9.82715V25.2063H11.6303V28.6302Z" fill="#3B40A5"/>
<path d="M20.452 23.7688H17.2109C16.814 23.7688 16.4922 24.0906 16.4922 24.4875V29.349C16.4922 29.7459 16.814 30.0677 17.2109 30.0677H20.452C20.8489 30.0677 21.1707 29.7459 21.1707 29.349V24.4875C21.1707 24.0906 20.8489 23.7688 20.452 23.7688ZM19.7332 28.6302H17.9297V25.2063H19.7332V28.6302Z" fill="#3B40A5"/>
<path d="M28.5541 23.7688H25.3135C24.9165 23.7688 24.5947 24.0906 24.5947 24.4875V29.349C24.5947 29.7459 24.9165 30.0677 25.3135 30.0677H28.5541C28.9511 30.0677 29.2729 29.7459 29.2729 29.349V24.4875C29.2729 24.0906 28.9511 23.7688 28.5541 23.7688ZM27.8354 28.6302H26.0322V25.2063H27.8354V28.6302Z" fill="#3B40A5"/>
<path d="M36.6561 23.7688H33.415C33.0181 23.7688 32.6963 24.0906 32.6963 24.4875V29.349C32.6963 29.7459 33.0181 30.0677 33.415 30.0677H36.6561C37.053 30.0677 37.3749 29.7459 37.3749 29.349V24.4875C37.3749 24.0906 37.053 23.7688 36.6561 23.7688ZM35.9374 28.6302H34.1338V25.2063H35.9374V28.6302Z" fill="#3B40A5"/>
<path d="M45.2812 43.4494H41.6875V19.7307C41.6875 19.3338 41.3656 19.0119 40.9688 19.0119H36.1091V13.9859C36.1091 13.9647 36.0989 13.947 36.097 13.9263C36.0925 13.8712 36.0819 13.8196 36.0651 13.768C36.0539 13.7333 36.043 13.7003 36.0268 13.668C36.0033 13.621 35.9731 13.5801 35.9399 13.5391C35.9174 13.5114 35.8977 13.4834 35.8712 13.4594C35.8326 13.4239 35.7873 13.3981 35.741 13.3715C35.7094 13.3533 35.6811 13.3322 35.6467 13.319C35.6381 13.3156 35.6318 13.3088 35.623 13.3059L23.1456 9.03403V7.56584C24.3098 7.77342 25.4575 7.88224 26.5825 7.88224C27.993 7.88224 29.3694 7.71865 30.7003 7.39191C31.0217 7.31299 31.2477 7.02484 31.2477 6.69386V1.83252C31.2477 1.62365 31.1568 1.42542 30.9989 1.28886C30.8413 1.15236 30.6311 1.08883 30.4251 1.12146C27.5557 1.54049 24.9067 1.54229 22.5521 1.12462C22.5322 1.12096 22.513 1.12901 22.4929 1.12706C22.4701 1.12491 22.4503 1.11377 22.4269 1.11377C22.3913 1.11377 22.3607 1.12901 22.3265 1.13404C22.2824 1.14043 22.2407 1.14532 22.1986 1.15991C22.1399 1.17982 22.0893 1.20994 22.0385 1.24343C22.0152 1.25888 21.9868 1.26363 21.965 1.28188C21.9574 1.28828 21.9546 1.29834 21.9473 1.30503C21.8949 1.35254 21.856 1.41032 21.8196 1.4712C21.8052 1.4955 21.7844 1.51469 21.7729 1.54049C21.7327 1.63019 21.7081 1.72794 21.7081 1.83252V6.69386V9.03403L9.2304 13.3059C9.22163 13.3088 9.21538 13.3156 9.20669 13.319C9.17233 13.3322 9.14408 13.3533 9.11246 13.3715C9.06617 13.3981 9.02074 13.4239 8.98215 13.4594C8.95577 13.4834 8.936 13.5114 8.91351 13.5391C8.8803 13.5801 8.85011 13.621 8.82661 13.668C8.81037 13.7003 8.79958 13.7333 8.78837 13.768C8.77148 13.8196 8.76099 13.8712 8.75646 13.9263C8.75459 13.947 8.74431 13.9647 8.74431 13.9859V19.0119H5.03125C4.63428 19.0119 4.3125 19.3338 4.3125 19.7307V43.4494H0.71875C0.321784 43.4494 0 43.7709 0 44.1682C0 44.5655 0.321784 44.8869 0.71875 44.8869H5.03125H17.25H28.75H40.9688H45.2812C45.6781 44.8869 46 44.5655 46 44.1682C46 43.7709 45.6781 43.4494 45.2812 43.4494ZM10.1818 17.5744H34.6716V18.939H10.1818V17.5744ZM34.6716 16.1369H10.1818V14.7047H34.6716V16.1369ZM29.8102 2.65369V6.11972C27.6982 6.55629 25.4616 6.55312 23.1456 6.10851V2.67159C25.1969 2.94816 27.4322 2.9422 29.8102 2.65369ZM22.4269 10.3077L31.0719 13.2672H13.7815L22.4269 10.3077ZM17.9688 43.4494V34.8244H22.2812V43.4494H17.9688ZM23.7188 43.4494V34.8244H28.0312V43.4494H23.7188ZM29.4688 43.4494V34.1057C29.4688 33.7088 29.1469 33.3869 28.75 33.3869H17.25C16.853 33.3869 16.5312 33.7088 16.5312 34.1057V43.4494H5.75V20.4494H40.25V43.4494H29.4688Z" fill="#3B40A5"/>
</svg>
