<svg width="45" height="45" viewBox="0 0 45 45" fill="none" xmlns="http://www.w3.org/2000/svg">
<path d="M4.60163 19.1622H9.68105C10.0818 19.1622 10.4067 18.8374 10.4067 18.4365V14.9534C10.4067 14.5526 10.0818 14.2278 9.68105 14.2278H4.60163C4.20088 14.2278 3.87598 14.5526 3.87598 14.9534V18.4365C3.87598 18.8374 4.20088 19.1622 4.60163 19.1622ZM5.32729 15.6791H8.95539V17.7108H5.32729V15.6791Z" fill="#3B40A5"/>
<path d="M12.1846 19.1622H17.2641C17.6648 19.1622 17.9897 18.8374 17.9897 18.4365V14.9534C17.9897 14.5526 17.6648 14.2278 17.2641 14.2278H12.1846C11.7839 14.2278 11.459 14.5526 11.459 14.9534V18.4365C11.459 18.8374 11.7839 19.1622 12.1846 19.1622ZM12.9103 15.6791H16.5384V17.7108H12.9103V15.6791Z" fill="#3B40A5"/>
<path d="M19.7667 19.1622H24.8461C25.2468 19.1622 25.5717 18.8374 25.5717 18.4365V14.9534C25.5717 14.5526 25.2468 14.2278 24.8461 14.2278H19.7667C19.3659 14.2278 19.041 14.5526 19.041 14.9534V18.4365C19.041 18.8374 19.3659 19.1622 19.7667 19.1622ZM20.4923 15.6791H24.1204V17.7108H20.4923V15.6791Z" fill="#3B40A5"/>
<path d="M27.3497 19.1622H32.4291C32.8299 19.1622 33.1548 18.8374 33.1548 18.4365V14.9534C33.1548 14.5526 32.8299 14.2278 32.4291 14.2278H27.3497C26.9489 14.2278 26.624 14.5526 26.624 14.9534V18.4365C26.624 18.8374 26.9489 19.1622 27.3497 19.1622ZM28.0753 15.6791H31.7034V17.7108H28.0753V15.6791Z" fill="#3B40A5"/>
<path d="M34.9327 19.1622H40.0121C40.4129 19.1622 40.7378 18.8374 40.7378 18.4365V14.9534C40.7378 14.5526 40.4129 14.2278 40.0121 14.2278H34.9327C34.5319 14.2278 34.207 14.5526 34.207 14.9534V18.4365C34.207 18.8374 34.5319 19.1622 34.9327 19.1622ZM35.6583 15.6791H39.2864V17.7108H35.6583V15.6791Z" fill="#3B40A5"/>
<path d="M4.60163 25.9104H9.68105C10.0818 25.9104 10.4067 25.5856 10.4067 25.1847V21.7017C10.4067 21.3009 10.0818 20.9761 9.68105 20.9761H4.60163C4.20088 20.9761 3.87598 21.3009 3.87598 21.7017V25.1847C3.87598 25.5856 4.20088 25.9104 4.60163 25.9104ZM5.32729 22.4274H8.95539V24.459H5.32729V22.4274Z" fill="#3B40A5"/>
<path d="M12.1846 25.9104H17.2641C17.6648 25.9104 17.9897 25.5856 17.9897 25.1847V21.7017C17.9897 21.3009 17.6648 20.9761 17.2641 20.9761H12.1846C11.7839 20.9761 11.459 21.3009 11.459 21.7017V25.1847C11.459 25.5856 11.7839 25.9104 12.1846 25.9104ZM12.9103 22.4274H16.5384V24.459H12.9103V22.4274Z" fill="#3B40A5"/>
<path d="M19.7667 25.9104H24.8461C25.2468 25.9104 25.5717 25.5856 25.5717 25.1847V21.7017C25.5717 21.3009 25.2468 20.9761 24.8461 20.9761H19.7667C19.3659 20.9761 19.041 21.3009 19.041 21.7017V25.1847C19.041 25.5856 19.3659 25.9104 19.7667 25.9104ZM20.4923 22.4274H24.1204V24.459H20.4923V22.4274Z" fill="#3B40A5"/>
<path d="M27.3497 25.9104H32.4291C32.8299 25.9104 33.1548 25.5856 33.1548 25.1847V21.7017C33.1548 21.3009 32.8299 20.9761 32.4291 20.9761H27.3497C26.9489 20.9761 26.624 21.3009 26.624 21.7017V25.1847C26.624 25.5856 26.9489 25.9104 27.3497 25.9104ZM28.0753 22.4274H31.7034V24.459H28.0753V22.4274Z" fill="#3B40A5"/>
<path d="M34.9327 25.9104H40.0121C40.4129 25.9104 40.7378 25.5856 40.7378 25.1847V21.7017C40.7378 21.3009 40.4129 20.9761 40.0121 20.9761H34.9327C34.5319 20.9761 34.207 21.3009 34.207 21.7017V25.1847C34.207 25.5856 34.5319 25.9104 34.9327 25.9104ZM35.6583 22.4274H39.2864V24.459H35.6583V22.4274Z" fill="#3B40A5"/>
<path d="M4.60163 32.6586H9.68105C10.0818 32.6586 10.4067 32.3338 10.4067 31.933V28.45C10.4067 28.0492 10.0818 27.7244 9.68105 27.7244H4.60163C4.20088 27.7244 3.87598 28.0492 3.87598 28.45V31.933C3.87598 32.3338 4.20088 32.6586 4.60163 32.6586ZM5.32729 29.1757H8.95539V31.2073H5.32729V29.1757Z" fill="#3B40A5"/>
<path d="M34.9327 32.6586H40.0121C40.4129 32.6586 40.7378 32.3338 40.7378 31.933V28.45C40.7378 28.0492 40.4129 27.7244 40.0121 27.7244H34.9327C34.5319 27.7244 34.207 28.0492 34.207 28.45V31.933C34.207 32.3338 34.5319 32.6586 34.9327 32.6586ZM35.6583 29.1757H39.2864V31.2073H35.6583V29.1757Z" fill="#3B40A5"/>
<path d="M44.2743 8.27783H0.725658C0.324901 8.27783 0 8.60264 0 9.00349V12.0511C0 12.4519 0.324901 12.7767 0.725658 12.7767H1.21485V35.9965C1.21485 36.3974 1.53975 36.7222 1.94051 36.7222H43.0595C43.4603 36.7222 43.7852 36.3974 43.7852 35.9965V12.7767H44.2743C44.6751 12.7767 45 12.4519 45 12.0511V9.00349C45 8.60264 44.6751 8.27783 44.2743 8.27783ZM1.45132 9.72915H43.5487V11.3254H1.45132V9.72915ZM30.321 32.6587H26.4508V29.8943C26.4508 29.4935 26.1259 29.1687 25.7252 29.1687H19.2748C18.8741 29.1687 18.5492 29.4935 18.5492 29.8943V32.6587H14.679V28.5742H30.321V32.6587ZM20.0005 32.6587V30.62H21.7743V32.6587H20.0005ZM23.2256 30.62H24.9994V32.6587H23.2256V30.62ZM13.8687 35.2709L14.271 34.11H30.7289L31.1312 35.2709H13.8687ZM42.3338 35.2709H32.6673C32.6673 35.2709 32.4056 34.5826 31.7723 32.8878V27.8485C31.7723 27.4477 31.4474 27.1229 31.0467 27.1229H13.9533C13.5526 27.1229 13.2277 27.4477 13.2277 27.8485V32.8878C12.7522 34.1472 12.3327 35.2709 12.3327 35.2709H2.66616V12.7767H42.3338V35.2709Z" fill="#3B40A5"/>
</svg>
