<svg width="139" height="58" viewBox="0 0 139 58" fill="none" xmlns="http://www.w3.org/2000/svg">
<path d="M0.1 23V1.4H14.2V5.21H4.18V9.83H12.4V13.64H4.18V19.19H14.2V23H0.1ZM18.9953 23V1.4H28.1153C28.3253 1.4 28.6053 1.41 28.9553 1.43C29.3153 1.44 29.6353 1.47 29.9153 1.52C31.2053 1.72 32.2603 2.145 33.0803 2.795C33.9103 3.445 34.5203 4.265 34.9103 5.255C35.3003 6.235 35.4953 7.33 35.4953 8.54C35.4953 9.75 35.2953 10.85 34.8953 11.84C34.5053 12.82 33.8953 13.635 33.0653 14.285C32.2453 14.935 31.1953 15.36 29.9153 15.56C29.6353 15.6 29.3153 15.63 28.9553 15.65C28.5953 15.67 28.3153 15.68 28.1153 15.68H23.0753V23H18.9953ZM23.0753 11.87H27.9353C28.1453 11.87 28.3753 11.86 28.6253 11.84C28.8753 11.82 29.1053 11.78 29.3153 11.72C29.8653 11.57 30.2903 11.32 30.5903 10.97C30.8903 10.61 31.0953 10.215 31.2053 9.785C31.3253 9.345 31.3853 8.93 31.3853 8.54C31.3853 8.15 31.3253 7.74 31.2053 7.31C31.0953 6.87 30.8903 6.475 30.5903 6.125C30.2903 5.765 29.8653 5.51 29.3153 5.36C29.1053 5.3 28.8753 5.26 28.6253 5.24C28.3753 5.22 28.1453 5.21 27.9353 5.21H23.0753V11.87ZM47.867 23.45C46.267 23.45 44.822 23.17 43.532 22.61C42.252 22.04 41.197 21.23 40.367 20.18C39.547 19.12 39.027 17.86 38.807 16.4L43.067 15.77C43.367 17.01 43.987 17.965 44.927 18.635C45.867 19.305 46.937 19.64 48.137 19.64C48.807 19.64 49.457 19.535 50.087 19.325C50.717 19.115 51.232 18.805 51.632 18.395C52.042 17.985 52.247 17.48 52.247 16.88C52.247 16.66 52.212 16.45 52.142 16.25C52.082 16.04 51.977 15.845 51.827 15.665C51.677 15.485 51.462 15.315 51.182 15.155C50.912 14.995 50.567 14.85 50.147 14.72L44.537 13.07C44.117 12.95 43.627 12.78 43.067 12.56C42.517 12.34 41.982 12.025 41.462 11.615C40.942 11.205 40.507 10.665 40.157 9.995C39.817 9.315 39.647 8.46 39.647 7.43C39.647 5.98 40.012 4.775 40.742 3.815C41.472 2.855 42.447 2.14 43.667 1.67C44.887 1.2 46.237 0.969999 47.717 0.979999C49.207 0.999999 50.537 1.255 51.707 1.745C52.877 2.235 53.857 2.95 54.647 3.89C55.437 4.82 56.007 5.96 56.357 7.31L51.947 8.06C51.787 7.36 51.492 6.77 51.062 6.29C50.632 5.81 50.117 5.445 49.517 5.195C48.927 4.945 48.307 4.81 47.657 4.79C47.017 4.77 46.412 4.86 45.842 5.06C45.282 5.25 44.822 5.53 44.462 5.9C44.112 6.27 43.937 6.71 43.937 7.22C43.937 7.69 44.082 8.075 44.372 8.375C44.662 8.665 45.027 8.9 45.467 9.08C45.907 9.26 46.357 9.41 46.817 9.53L50.567 10.55C51.127 10.7 51.747 10.9 52.427 11.15C53.107 11.39 53.757 11.73 54.377 12.17C55.007 12.6 55.522 13.17 55.922 13.88C56.332 14.59 56.537 15.49 56.537 16.58C56.537 17.74 56.292 18.755 55.802 19.625C55.322 20.485 54.672 21.2 53.852 21.77C53.032 22.33 52.102 22.75 51.062 23.03C50.032 23.31 48.967 23.45 47.867 23.45ZM61.334 23V1.4H65.414V23H61.334ZM71.4109 23V1.4H75.4909V19.19H84.7909V23H71.4109ZM97.2255 23.45C95.0655 23.45 93.2005 22.98 91.6305 22.04C90.0705 21.1 88.8655 19.785 88.0155 18.095C87.1755 16.405 86.7555 14.44 86.7555 12.2C86.7555 9.96 87.1755 7.995 88.0155 6.305C88.8655 4.615 90.0705 3.3 91.6305 2.36C93.2005 1.42 95.0655 0.95 97.2255 0.95C99.3855 0.95 101.245 1.42 102.805 2.36C104.375 3.3 105.58 4.615 106.42 6.305C107.27 7.995 107.695 9.96 107.695 12.2C107.695 14.44 107.27 16.405 106.42 18.095C105.58 19.785 104.375 21.1 102.805 22.04C101.245 22.98 99.3855 23.45 97.2255 23.45ZM97.2255 19.61C98.5955 19.63 99.7355 19.335 100.645 18.725C101.555 18.115 102.235 17.25 102.685 16.13C103.145 15.01 103.375 13.7 103.375 12.2C103.375 10.7 103.145 9.4 102.685 8.3C102.235 7.2 101.555 6.345 100.645 5.735C99.7355 5.125 98.5955 4.81 97.2255 4.79C95.8555 4.77 94.7155 5.065 93.8055 5.675C92.8955 6.285 92.2105 7.15 91.7505 8.27C91.3005 9.39 91.0755 10.7 91.0755 12.2C91.0755 13.7 91.3005 15 91.7505 16.1C92.2105 17.2 92.8955 18.055 93.8055 18.665C94.7155 19.275 95.8555 19.59 97.2255 19.61ZM111.89 23V1.4H116.03L125.42 15.8V1.4H129.56V23H125.42L116.03 8.6V23H111.89ZM0.1 57V35.4H3.76L10.9 49.74L18.04 35.4H21.7V57H17.89V44.1L11.62 57H10.18L3.91 44.1V57H0.1ZM27.1105 57V35.4H41.2105V39.21H31.1905V43.83H39.4105V47.64H31.1905V53.19H41.2105V57H27.1105ZM51.0159 57V39.21H44.2059V35.4H61.9059V39.21H55.0959V57H51.0159ZM65.5164 57V35.4H74.6364C74.8464 35.4 75.1264 35.41 75.4764 35.43C75.8364 35.44 76.1564 35.47 76.4364 35.52C77.7264 35.72 78.7814 36.145 79.6014 36.795C80.4314 37.445 81.0414 38.265 81.4314 39.255C81.8214 40.235 82.0164 41.33 82.0164 42.54C82.0164 44.35 81.5664 45.9 80.6664 47.19C79.7664 48.47 78.3564 49.26 76.4364 49.56L74.6364 49.68H69.5964V57H65.5164ZM77.6964 57L73.4364 48.21L77.6364 47.4L82.3164 57H77.6964ZM69.5964 45.87H74.4564C74.6664 45.87 74.8964 45.86 75.1464 45.84C75.3964 45.82 75.6264 45.78 75.8364 45.72C76.3864 45.57 76.8114 45.32 77.1114 44.97C77.4114 44.61 77.6164 44.215 77.7264 43.785C77.8464 43.345 77.9064 42.93 77.9064 42.54C77.9064 42.15 77.8464 41.74 77.7264 41.31C77.6164 40.87 77.4114 40.475 77.1114 40.125C76.8114 39.765 76.3864 39.51 75.8364 39.36C75.6264 39.3 75.3964 39.26 75.1464 39.24C74.8964 39.22 74.6664 39.21 74.4564 39.21H69.5964V45.87ZM87.1141 57V35.4H91.1941V57H87.1141ZM106.161 57.45C104.001 57.45 102.136 56.98 100.566 56.04C99.006 55.1 97.801 53.785 96.951 52.095C96.111 50.405 95.691 48.44 95.691 46.2C95.691 43.96 96.111 41.995 96.951 40.305C97.801 38.615 99.006 37.3 100.566 36.36C102.136 35.42 104.001 34.95 106.161 34.95C108.641 34.95 110.721 35.565 112.401 36.795C114.091 38.025 115.281 39.69 115.971 41.79L111.861 42.93C111.461 41.62 110.786 40.605 109.836 39.885C108.886 39.155 107.661 38.79 106.161 38.79C104.791 38.79 103.646 39.095 102.726 39.705C101.816 40.315 101.131 41.175 100.671 42.285C100.211 43.395 99.981 44.7 99.981 46.2C99.981 47.7 100.211 49.005 100.671 50.115C101.131 51.225 101.816 52.085 102.726 52.695C103.646 53.305 104.791 53.61 106.161 53.61C107.661 53.61 108.886 53.245 109.836 52.515C110.786 51.785 111.461 50.77 111.861 49.47L115.971 50.61C115.281 52.71 114.091 54.375 112.401 55.605C110.721 56.835 108.641 57.45 106.161 57.45ZM129.542 57.45C127.942 57.45 126.497 57.17 125.207 56.61C123.927 56.04 122.872 55.23 122.042 54.18C121.222 53.12 120.702 51.86 120.482 50.4L124.742 49.77C125.042 51.01 125.662 51.965 126.602 52.635C127.542 53.305 128.612 53.64 129.812 53.64C130.482 53.64 131.132 53.535 131.762 53.325C132.392 53.115 132.907 52.805 133.307 52.395C133.717 51.985 133.922 51.48 133.922 50.88C133.922 50.66 133.887 50.45 133.817 50.25C133.757 50.04 133.652 49.845 133.502 49.665C133.352 49.485 133.137 49.315 132.857 49.155C132.587 48.995 132.242 48.85 131.822 48.72L126.212 47.07C125.792 46.95 125.302 46.78 124.742 46.56C124.192 46.34 123.657 46.025 123.137 45.615C122.617 45.205 122.182 44.665 121.832 43.995C121.492 43.315 121.322 42.46 121.322 41.43C121.322 39.98 121.687 38.775 122.417 37.815C123.147 36.855 124.122 36.14 125.342 35.67C126.562 35.2 127.912 34.97 129.392 34.98C130.882 35 132.212 35.255 133.382 35.745C134.552 36.235 135.532 36.95 136.322 37.89C137.112 38.82 137.682 39.96 138.032 41.31L133.622 42.06C133.462 41.36 133.167 40.77 132.737 40.29C132.307 39.81 131.792 39.445 131.192 39.195C130.602 38.945 129.982 38.81 129.332 38.79C128.692 38.77 128.087 38.86 127.517 39.06C126.957 39.25 126.497 39.53 126.137 39.9C125.787 40.27 125.612 40.71 125.612 41.22C125.612 41.69 125.757 42.075 126.047 42.375C126.337 42.665 126.702 42.9 127.142 43.08C127.582 43.26 128.032 43.41 128.492 43.53L132.242 44.55C132.802 44.7 133.422 44.9 134.102 45.15C134.782 45.39 135.432 45.73 136.052 46.17C136.682 46.6 137.197 47.17 137.597 47.88C138.007 48.59 138.212 49.49 138.212 50.58C138.212 51.74 137.967 52.755 137.477 53.625C136.997 54.485 136.347 55.2 135.527 55.77C134.707 56.33 133.777 56.75 132.737 57.03C131.707 57.31 130.642 57.45 129.542 57.45Z" fill="#FB5D01"/>
</svg>
