<svg width="54" height="54" viewBox="0 0 54 54" fill="none" xmlns="http://www.w3.org/2000/svg">
<path d="M44.1004 5.4H43.2004V4.5C43.1973 2.01577 41.1846 0.00307618 38.7004 0H9.90039C7.41616 0.00307618 5.40347 2.01577 5.40039 4.5V44.1C5.40347 46.5842 7.41616 48.5969 9.90039 48.6H10.8004V49.5C10.8035 51.9842 12.8162 53.9969 15.3004 54H44.1004C46.5846 53.9969 48.5973 51.9842 48.6004 49.5V9.9C48.5973 7.41577 46.5846 5.40308 44.1004 5.4ZM36.0004 1.8V5.92734L34.8367 4.76367C34.4852 4.41255 33.9156 4.41255 33.5641 4.76367L32.4004 5.92734V1.8H36.0004ZM7.20039 44.1V4.5C7.20039 3.00894 8.40933 1.8 9.90039 1.8H30.6004V8.1C30.6004 8.46387 30.8197 8.79214 31.1559 8.93145C31.492 9.07075 31.8792 8.99341 32.1367 8.73633L34.2004 6.67266L36.2641 8.73633C36.5216 8.99341 36.9087 9.07075 37.2449 8.93145C37.5811 8.79214 37.8004 8.46387 37.8004 8.1V1.8H38.7004C40.1915 1.8 41.4004 3.00894 41.4004 4.5V44.1C41.4004 45.5911 40.1915 46.8 38.7004 46.8H9.90039C8.40933 46.8 7.20039 45.5911 7.20039 44.1ZM46.8004 49.5C46.8004 50.9911 45.5914 52.2 44.1004 52.2H15.3004C13.8093 52.2 12.6004 50.9911 12.6004 49.5V48.6H38.7004C41.1846 48.5969 43.1973 46.5842 43.2004 44.1V7.2H44.1004C45.5914 7.2 46.8004 8.40894 46.8004 9.9V49.5Z" fill="#3B40A5"/>
<path d="M19.7378 8.6895C19.6082 8.33794 19.2747 8.10283 18.8998 8.1002H11.6998C11.2028 8.1002 10.7998 8.50317 10.7998 9.0002V16.2002C10.7998 16.6972 11.2028 17.1002 11.6998 17.1002H18.8998C19.3968 17.1002 19.7998 16.6972 19.7998 16.2002V11.1729L22.2361 8.73652L20.9635 7.46387L19.7378 8.6895ZM17.9998 15.3002H12.5998V9.9002H17.9998V10.4275L16.1998 12.2275L15.0361 11.0639L13.7635 12.3365L15.5635 14.1365C15.915 14.4876 16.4846 14.4876 16.8361 14.1365L17.9998 12.9729V15.3002Z" fill="#3B40A5"/>
<path d="M20.9635 20.0635L19.7378 21.2891C19.6082 20.9375 19.2747 20.7024 18.8998 20.6998H11.6998C11.2028 20.6998 10.7998 21.1028 10.7998 21.5998V28.7998C10.7998 29.2968 11.2028 29.6998 11.6998 29.6998H18.8998C19.3968 29.6998 19.7998 29.2968 19.7998 28.7998V23.7725L22.2361 21.3361L20.9635 20.0635ZM17.9998 27.8998H12.5998V22.4998H17.9998V23.0271L16.1998 24.8271L15.0361 23.6635L13.7635 24.9361L15.5635 26.7361C15.915 27.0873 16.4846 27.0873 16.8361 26.7361L17.9998 25.5725V27.8998Z" fill="#3B40A5"/>
<path d="M18.8998 32.3999H11.6998C11.2028 32.3999 10.7998 32.8029 10.7998 33.2999V40.4999C10.7998 40.9969 11.2028 41.3999 11.6998 41.3999H18.8998C19.3968 41.3999 19.7998 40.9969 19.7998 40.4999V33.2999C19.7998 32.8029 19.3968 32.3999 18.8998 32.3999ZM17.9998 39.5999H12.5998V34.1999H17.9998V39.5999Z" fill="#3B40A5"/>
<path d="M23.4004 13.5H32.4004V15.3H23.4004V13.5Z" fill="#3B40A5"/>
<path d="M23.4004 9.8999H28.8004V11.6999H23.4004V9.8999Z" fill="#3B40A5"/>
<path d="M23.4004 26.1001H32.4004V27.9001H23.4004V26.1001Z" fill="#3B40A5"/>
<path d="M23.4004 22.5H28.8004V24.3H23.4004V22.5Z" fill="#3B40A5"/>
<path d="M23.4004 37.7998H32.4004V39.5998H23.4004V37.7998Z" fill="#3B40A5"/>
<path d="M23.4004 34.2002H28.8004V36.0002H23.4004V34.2002Z" fill="#3B40A5"/>
<path d="M30.5996 34.2002H32.3996V36.0002H30.5996V34.2002Z" fill="#3B40A5"/>
</svg>
