<svg width="54" height="54" viewBox="0 0 54 54" fill="none" xmlns="http://www.w3.org/2000/svg">
<path d="M26.9999 0C12.1499 0 0 12.06 0 26.9999C0 41.9399 12.1499 53.9999 26.9999 53.9999C41.85 53.9999 53.9999 41.85 53.9999 26.9999C53.9999 12.1499 41.85 0 26.9999 0ZM26.9999 52.2C13.14 52.2 1.80001 40.86 1.80001 27.0001C1.80001 13.1401 13.14 1.80001 26.9999 1.80001C40.8599 1.80001 52.2 13.14 52.2 26.9999C52.2 40.8599 40.8599 52.2 26.9999 52.2Z" fill="#3B40A5"/>
<path d="M27 9C17.1 9 9 17.1 9 27C9 27.99 9.08996 28.98 9.27 29.88C9.27 30.33 9.80999 30.69 10.26 30.6C10.71 30.6 11.07 30.06 10.98 29.61C10.8901 28.8 10.8 27.9 10.8 27C10.8 18.09 18.09 10.8 27 10.8C35.91 10.8 43.2 18.09 43.2 27C43.2 35.91 35.91 43.2 27 43.2C22.9741 43.2 19.183 41.7923 16.2087 39.0512L21.271 33.9889C22.8813 35.3094 24.8715 35.9999 27 35.9999C31.95 35.9999 35.9999 31.95 35.9999 27C35.9999 22.05 31.9499 18.0001 27 18.0001C22.0501 18.0001 18.0001 22.0501 18.0001 27C18.0001 27.54 18.0001 27.99 18.1801 28.4401C18.1801 28.8901 18.7201 29.25 19.1701 29.1601C19.6201 29.1601 19.9801 28.6201 19.8901 28.1701C19.8002 27.8101 19.8002 27.3601 19.8002 27C19.8002 23.04 23.0401 19.8 27.0002 19.8C30.9603 19.8 34.2003 23.0399 34.2003 27C34.2003 30.96 30.9603 34.2 27.0002 34.2C25.332 34.2 23.7927 33.6871 22.5416 32.7187L25.1664 30.0939C25.7044 30.4148 26.3317 30.6001 27.0002 30.6001C28.9803 30.6001 30.6002 28.9802 30.6002 27.0001C30.6002 25.0201 28.9803 23.4001 27.0002 23.4001C25.0202 23.4001 23.4002 25.0201 23.4002 27.0001C23.4002 27.6687 23.5855 28.2959 23.9064 28.8339L20.6103 32.13L14.3104 38.4299L11.0704 41.6699C10.7105 42.0298 10.7105 42.5698 11.0704 42.9299C11.2505 43.1099 11.4304 43.1999 11.7004 43.1999C11.9704 43.1999 12.1504 43.1099 12.3303 42.9299L14.9482 40.3121C18.2139 43.3383 22.528 44.9999 27.0003 44.9999C36.9003 44.9999 45.0003 36.9899 45.0003 26.9999C45 17.1 36.9 9 27 9ZM27 25.2C27.99 25.2 28.8 26.01 28.8 27C28.8 27.99 27.99 28.8 27 28.8C26.5518 28.8 26.1415 28.6328 25.8257 28.3593C25.7996 28.3251 25.7717 28.2916 25.7401 28.26C25.7085 28.2284 25.675 28.2005 25.6408 28.1745C25.3673 27.8585 25.2001 27.4482 25.2001 27.0001C25.2 26.01 26.01 25.2 27 25.2Z" fill="#3B40A5"/>
<path d="M9.89983 17.0998C9.89983 16.1098 9.08984 15.2998 8.09982 15.2998C7.10979 15.2998 6.2998 16.1098 6.2998 17.0998C6.2998 18.0898 7.10979 18.8998 8.09982 18.8998C9.08984 18.8998 9.89983 18.0898 9.89983 17.0998Z" fill="#3B40A5"/>
<path d="M34.2002 35.0998C34.2002 36.0898 35.0102 36.8998 36.0002 36.8998C36.9902 36.8998 37.8002 36.0898 37.8002 35.0998C37.8002 34.1098 36.9902 33.2998 36.0002 33.2998C35.0102 33.2998 34.2002 34.1099 34.2002 35.0998Z" fill="#3B40A5"/>
<path d="M38.7004 11.7001C39.6904 11.7001 40.5004 10.8901 40.5004 9.90011C40.5004 8.91009 39.6904 8.1001 38.7004 8.1001C37.7104 8.1001 36.9004 8.91009 36.9004 9.90011C36.9004 10.8901 37.7104 11.7001 38.7004 11.7001Z" fill="#3B40A5"/>
</svg>
