<svg width="56" height="56" viewBox="0 0 56 56" fill="none" xmlns="http://www.w3.org/2000/svg">
<path d="M19.6195 27.0451C17.4999 24.6511 14.6738 23.3333 11.6601 23.3333C8.64635 23.3333 5.82021 24.6511 3.70154 27.0451C-0.602989 31.9087 -0.602989 39.8206 3.70154 44.6842L11.6601 53.675L19.6186 44.6842C23.9241 39.8206 23.9241 31.9087 19.6195 27.0451ZM18.2214 43.4466L11.661 50.8582L5.09968 43.4466C1.39808 39.2662 1.39808 32.4631 5.09968 28.2827C6.85901 26.2947 9.18954 25.1999 11.6601 25.1999C14.1306 25.1999 16.4621 26.2947 18.2205 28.2827C21.9221 32.4631 21.9221 39.2653 18.2214 43.4466Z" fill="#3B40A5"/>
<path d="M45.4969 22.8732L51.53 16.0729C54.7761 12.4143 54.7761 6.46333 51.53 2.80467C49.9246 0.995867 47.7817 0 45.496 0C43.2112 0 41.0683 0.995867 39.4629 2.80467C36.2168 6.46333 36.2168 12.4143 39.4629 16.0729L45.4969 22.8732ZM40.8592 4.04413C42.1052 2.63947 43.7516 1.86667 45.496 1.86667C47.2413 1.86667 48.8877 2.63947 50.1337 4.04413C52.7732 7.01867 52.7732 11.8589 50.1337 14.8335L45.4969 20.0611L40.8592 14.8335C38.2197 11.8589 38.2197 7.01867 40.8592 4.04413Z" fill="#3B40A5"/>
<path d="M49.097 50.8825C48.5939 50.7696 48.0946 51.0851 47.9817 51.5881C47.8743 52.0641 47.6662 52.5019 47.3629 52.8873C47.0446 53.2924 47.1137 53.8795 47.5197 54.1977C47.6914 54.3321 47.8939 54.3975 48.0955 54.3975C48.3727 54.3975 48.6462 54.2752 48.8301 54.0409C49.3005 53.4436 49.6365 52.738 49.8026 51.9988C49.9155 51.4948 49.6001 50.9955 49.097 50.8825Z" fill="#3B40A5"/>
<path d="M29.8618 28.9332C29.4577 28.9323 29.0647 28.8604 28.6933 28.7185C28.2154 28.5365 27.6731 28.7764 27.4883 29.258C27.3054 29.7396 27.5471 30.2791 28.0278 30.4629C28.6121 30.6851 29.2271 30.7989 29.8599 30.7999H30.1931C30.7093 30.7999 31.1265 30.3827 31.1265 29.8665C31.1265 29.3504 30.7093 28.9332 30.1931 28.9332H29.8618Z" fill="#3B40A5"/>
<path d="M27.6463 23.0308C27.8153 23.0308 27.9851 22.9851 28.1391 22.8899C28.5526 22.6323 29.0099 22.4746 29.4962 22.4204C30.0086 22.3635 30.3782 21.9024 30.3222 21.39C30.2662 20.8776 29.8079 20.5118 29.2918 20.5641C28.5246 20.649 27.8041 20.8972 27.1507 21.3051C26.713 21.5776 26.5805 22.1535 26.853 22.5912C27.0303 22.875 27.3346 23.0308 27.6463 23.0308Z" fill="#3B40A5"/>
<path d="M16.8596 54.1333H14.9929C14.4768 54.1333 14.0596 54.5505 14.0596 55.0666C14.0596 55.5828 14.4768 56 14.9929 56H16.8596C17.3757 56 17.7929 55.5828 17.7929 55.0666C17.7929 54.5505 17.3748 54.1333 16.8596 54.1333Z" fill="#3B40A5"/>
<path d="M33.5933 37.3333C33.513 37.3333 33.4337 37.3351 33.3544 37.3389C32.8392 37.3594 32.4397 37.7943 32.4602 38.3095C32.4798 38.8117 32.8942 39.2046 33.3917 39.2046C33.4048 39.2046 33.4178 39.2046 33.4309 39.2037L35.2593 39.1999C35.7754 39.1999 36.1926 38.7827 36.1926 38.2666C36.1926 37.7505 35.7754 37.3333 35.2593 37.3333H33.5933Z" fill="#3B40A5"/>
<path d="M33.1267 22.4001H34.9934C35.5095 22.4001 35.9267 21.9829 35.9267 21.4668C35.9267 20.9506 35.5095 20.5334 34.9934 20.5334H33.1267C32.6106 20.5334 32.1934 20.9506 32.1934 21.4668C32.1934 21.9829 32.6106 22.4001 33.1267 22.4001Z" fill="#3B40A5"/>
<path d="M44.5925 37.3333C44.0764 37.3333 43.6592 37.7505 43.6592 38.2666C43.6592 38.7827 44.0764 39.1999 44.5925 39.1999H46.4592C46.9753 39.1999 47.3925 38.7827 47.3925 38.2666C47.3925 37.7505 46.9753 37.3333 46.4592 37.3333H44.5925Z" fill="#3B40A5"/>
<path d="M47.9277 29.8667C47.9277 29.3506 47.5105 28.9333 46.9943 28.9333H45.1277C44.6115 28.9333 44.1943 29.3506 44.1943 29.8667C44.1943 30.3828 44.6115 30.8 45.1277 30.8H46.9943C47.5095 30.8 47.9277 30.3828 47.9277 29.8667Z" fill="#3B40A5"/>
<path d="M38.9929 39.1999H40.8596C41.3757 39.1999 41.7929 38.7827 41.7929 38.2666C41.7929 37.7505 41.3757 37.3333 40.8596 37.3333H38.9929C38.4768 37.3333 38.0596 37.7505 38.0596 38.2666C38.0596 38.7827 38.4777 39.1999 38.9929 39.1999Z" fill="#3B40A5"/>
<path d="M40.5935 22.4001C41.1096 22.4001 41.5268 21.9829 41.5268 21.4668C41.5268 20.9506 41.1096 20.5334 40.5935 20.5334H38.7268C38.2107 20.5334 37.7935 20.9506 37.7935 21.4668C37.7935 21.9829 38.2107 22.4001 38.7268 22.4001H40.5935Z" fill="#3B40A5"/>
<path d="M33.9275 28.9333C33.4113 28.9333 32.9941 29.3506 32.9941 29.8667C32.9941 30.3828 33.4113 30.8 33.9275 30.8H35.7941C36.3103 30.8 36.7275 30.3828 36.7275 29.8667C36.7275 29.3506 36.3103 28.9333 35.7941 28.9333H33.9275Z" fill="#3B40A5"/>
<path d="M42.3276 29.8667C42.3276 29.3506 41.9104 28.9333 41.3942 28.9333H39.5276C39.0114 28.9333 38.5942 29.3506 38.5942 29.8667C38.5942 30.3828 39.0114 30.8 39.5276 30.8H41.3942C41.9094 30.8 42.3276 30.3828 42.3276 29.8667Z" fill="#3B40A5"/>
<path d="M55.4642 33.2565C55.3821 32.7469 54.9014 32.3987 54.3946 32.4827C53.885 32.5639 53.5388 33.0437 53.6209 33.5523C53.647 33.7185 53.662 33.8874 53.6601 34.0675C53.6601 34.3811 53.6153 34.691 53.5276 34.9897C53.3829 35.4843 53.6657 36.0033 54.1613 36.1479C54.249 36.1731 54.3368 36.1853 54.4236 36.1853C54.8277 36.1853 55.2001 35.9221 55.3196 35.5142C55.4568 35.0447 55.5268 34.5585 55.5268 34.0741C55.5286 33.8053 55.5081 33.5299 55.4642 33.2565Z" fill="#3B40A5"/>
<path d="M39.2595 54.1333H37.3928C36.8767 54.1333 36.4595 54.5505 36.4595 55.0666C36.4595 55.5828 36.8767 56 37.3928 56H39.2595C39.7756 56 40.1928 55.5828 40.1928 55.0666C40.1928 54.5505 39.7747 54.1333 39.2595 54.1333Z" fill="#3B40A5"/>
<path d="M33.6599 54.1333H31.7932C31.2771 54.1333 30.8599 54.5505 30.8599 55.0666C30.8599 55.5828 31.2771 56 31.7932 56H33.6599C34.176 56 34.5932 55.5828 34.5932 55.0666C34.5932 54.5505 34.1751 54.1333 33.6599 54.1333Z" fill="#3B40A5"/>
<path d="M43.9272 46.6667C43.9272 46.1506 43.51 45.7334 42.9938 45.7334H41.1272C40.611 45.7334 40.1938 46.1506 40.1938 46.6667C40.1938 47.1829 40.611 47.6001 41.1272 47.6001H42.9938C43.509 47.6001 43.9272 47.1829 43.9272 46.6667Z" fill="#3B40A5"/>
<path d="M38.3271 46.6667C38.3271 46.1506 37.9099 45.7334 37.3938 45.7334H35.5271C35.011 45.7334 34.5938 46.1506 34.5938 46.6667C34.5938 47.1829 35.011 47.6001 35.5271 47.6001H37.3938C37.909 47.6001 38.3271 47.1829 38.3271 46.6667Z" fill="#3B40A5"/>
<path d="M44.7933 54.1333H42.9919C42.4758 54.1333 42.0586 54.5505 42.0586 55.0666C42.0586 55.5828 42.4758 56 42.9919 56L44.8315 55.999L44.8586 55.0657V55.999C45.3747 55.999 45.7593 55.5818 45.7593 55.0657C45.7593 54.5505 45.3094 54.1333 44.7933 54.1333Z" fill="#3B40A5"/>
<path d="M48.0956 49.2044C48.2972 49.2044 48.5016 49.1391 48.6714 49.0047C49.0774 48.6855 49.1465 48.0984 48.8282 47.6943C48.3588 47.0979 47.753 46.6051 47.0745 46.2681C46.6106 46.0376 46.0525 46.2271 45.8229 46.6881C45.5933 47.1501 45.7818 47.7101 46.2429 47.9397C46.675 48.1535 47.0614 48.468 47.3601 48.8488C47.5449 49.0821 47.8184 49.2044 48.0956 49.2044Z" fill="#3B40A5"/>
<path d="M51.6551 37.0804C51.2547 37.2484 50.831 37.3333 50.3933 37.3333H50.1926C49.6765 37.3333 49.2593 37.7505 49.2593 38.2666C49.2593 38.7828 49.6765 39.2 50.1926 39.2H50.3933C51.0802 39.2 51.7475 39.0656 52.3766 38.8014C52.8526 38.6017 53.0757 38.0548 52.8759 37.5797C52.6771 37.1046 52.1265 36.8806 51.6551 37.0804Z" fill="#3B40A5"/>
<path d="M26.1602 27.8646C26.6492 27.7031 26.9162 27.1758 26.7556 26.6858C26.6483 26.3582 26.5932 26.0156 26.5932 25.6703C26.5942 25.5294 26.6026 25.3884 26.6194 25.2512C26.6838 24.7398 26.3216 24.2722 25.8102 24.2087C25.2828 24.1499 24.8311 24.5083 24.7676 25.0179C24.7415 25.2288 24.7275 25.4435 24.7266 25.6656C24.7266 26.2144 24.8124 26.7539 24.9814 27.2691C25.1111 27.662 25.476 27.9112 25.868 27.9112C25.9651 27.9112 26.064 27.8972 26.1602 27.8646Z" fill="#3B40A5"/>
<path d="M22.4597 54.1333H20.593C20.0769 54.1333 19.6597 54.5505 19.6597 55.0666C19.6597 55.5828 20.0769 56 20.593 56H22.4597C22.9758 56 23.393 55.5828 23.393 55.0666C23.393 54.5505 22.9749 54.1333 22.4597 54.1333Z" fill="#3B40A5"/>
<path d="M31.847 47.2211C32.2017 47.2211 32.5395 47.0186 32.6963 46.676C32.9101 46.2066 32.7047 45.6531 32.2362 45.4394C31.7985 45.2387 31.4018 44.9372 31.0901 44.5658C30.7578 44.171 30.1698 44.1196 29.775 44.4519C29.3802 44.7832 29.3289 45.3722 29.6611 45.767C30.1502 46.3484 30.7718 46.8226 31.4597 47.1362C31.5857 47.1931 31.7173 47.2211 31.847 47.2211Z" fill="#3B40A5"/>
<path d="M52.9627 29.6222C52.2963 29.2358 51.5683 29.009 50.8002 28.9483C50.2878 28.911 49.837 29.2909 49.7968 29.8061C49.7567 30.3203 50.1403 30.7693 50.6546 30.8094C51.1418 30.8477 51.6038 30.9914 52.0266 31.2369C52.174 31.3227 52.3355 31.3629 52.4942 31.3629C52.8162 31.3629 53.1298 31.1958 53.3024 30.8981C53.561 30.4529 53.4088 29.8817 52.9627 29.6222Z" fill="#3B40A5"/>
<path d="M28.0598 54.1333H26.1931C25.677 54.1333 25.2598 54.5505 25.2598 55.0666C25.2598 55.5828 25.677 56 26.1931 56H28.0598C28.5759 56 28.9931 55.5828 28.9931 55.0666C28.9931 54.5505 28.575 54.1333 28.0598 54.1333Z" fill="#3B40A5"/>
<path d="M30.3846 41.8499C30.477 41.3701 30.6711 40.9268 30.9623 40.531C31.2675 40.1166 31.1788 39.5324 30.7635 39.2262C30.3482 38.922 29.7648 39.0097 29.4587 39.4251C29.0023 40.0467 28.6962 40.7439 28.5506 41.4989C28.4535 42.0048 28.7848 42.4938 29.2916 42.5918C29.3504 42.603 29.4102 42.6087 29.468 42.6087C29.9067 42.6068 30.2978 42.296 30.3846 41.8499Z" fill="#3B40A5"/>
<path d="M45.7266 14.0001C48.5565 14.0001 50.8599 11.6966 50.8599 8.86673C50.8599 6.03686 48.5565 3.7334 45.7266 3.7334C42.8967 3.7334 40.5933 6.03686 40.5933 8.86673C40.5933 11.6966 42.8967 14.0001 45.7266 14.0001ZM45.7266 5.60007C47.5279 5.60007 48.9933 7.0654 48.9933 8.86673C48.9933 10.6681 47.5279 12.1334 45.7266 12.1334C43.9253 12.1334 42.4599 10.6681 42.4599 8.86673C42.4599 7.0654 43.9262 5.60007 45.7266 5.60007Z" fill="#3B40A5"/>
<path d="M11.6601 28.9333C8.57166 28.9333 6.06006 31.4449 6.06006 34.5333C6.06006 37.6217 8.57166 40.1333 11.6601 40.1333C14.7485 40.1333 17.2601 37.6217 17.2601 34.5333C17.2601 31.4449 14.7485 28.9333 11.6601 28.9333ZM11.6601 38.2667C9.60113 38.2667 7.92673 36.5923 7.92673 34.5333C7.92673 32.4744 9.60113 30.8 11.6601 30.8C13.719 30.8 15.3934 32.4744 15.3934 34.5333C15.3934 36.5923 13.719 38.2667 11.6601 38.2667Z" fill="#3B40A5"/>
</svg>
