<svg width="52" height="52" viewBox="0 0 52 52" fill="none" xmlns="http://www.w3.org/2000/svg">
<g clip-path="url(#clip0_7_360)">
<path d="M51.9953 0.996089C51.9844 0.909416 51.9736 0.822642 51.9411 0.735969C51.9302 0.703454 51.9194 0.660067 51.9086 0.627552C51.8544 0.508364 51.7785 0.399946 51.6918 0.302401C51.5943 0.215728 51.4859 0.139826 51.3667 0.085668C51.3342 0.0747957 51.2908 0.0531529 51.2583 0.0531529C51.1716 0.0315101 51.0848 0.00976562 50.9982 0.00976562C50.9548 0.00976562 50.9223 0.00976562 50.879 0.00976562C50.7814 0.00976562 50.673 0.0314085 50.5755 0.0639235C50.5538 0.0747957 50.5321 0.0747957 50.5104 0.0855663H50.4996L0.653981 21.7407C0.101225 21.9792 -0.148023 22.6186 0.090353 23.1714C0.187898 23.399 0.361346 23.5832 0.578079 23.6916L18.6998 33.2835L28.3026 51.4053C28.4869 51.763 28.8554 51.9797 29.2565 51.9906H29.2998C29.7117 51.9797 30.0802 51.7196 30.2537 51.3403L51.9193 1.50546V1.49459C51.9302 1.47294 51.9302 1.4512 51.941 1.42956C51.9735 1.33201 51.9951 1.23447 51.9951 1.12605C51.9953 1.08276 52.006 1.03938 51.9953 0.996089ZM3.59111 22.8137L46.1533 4.31262L19.3175 31.1375L3.59111 22.8137ZM29.1805 48.403L20.8566 32.6766L47.6815 5.84083L29.1805 48.403Z" fill="#FB5D01"/>
</g>
<defs>
<clipPath id="clip0_7_360">
<rect width="52" height="52" fill="white"/>
</clipPath>
</defs>
</svg>
