<svg width="49" height="49" viewBox="0 0 49 49" fill="none" xmlns="http://www.w3.org/2000/svg">
<g clip-path="url(#clip0_7_334)">
<path d="M14.7 35.1167V36.7501C14.7 37.2008 15.0659 37.5667 15.5166 37.5667C15.9674 37.5667 16.3333 37.2008 16.3333 36.7501V35.1167C16.3333 34.6659 15.9674 34.3 15.5166 34.3C15.0659 34.3 14.7 34.6659 14.7 35.1167Z" fill="#FB5D01"/>
<path d="M48.1834 47.3666H47.3667V21.6416C47.3667 21.1908 47.0009 20.825 46.5501 20.825C46.0993 20.825 45.7335 21.1908 45.7335 21.6416V47.3666H3.26663V21.6416C3.26663 21.1908 2.90076 20.825 2.45 20.825C1.99924 20.825 1.63337 21.1908 1.63337 21.6416V47.3666H0.816635C0.365873 47.3666 0 47.7325 0 48.1832C0 48.634 0.365873 49 0.816635 49H48.1833C48.634 49 48.9999 48.6341 48.9999 48.1833C48.9999 47.7326 48.6341 47.3666 48.1834 47.3666Z" fill="#FB5D01"/>
<path d="M18.7834 45.7333C19.2341 45.7333 19.6 45.3674 19.6 44.9166V25.3166C19.6 24.8659 19.2341 24.5 18.7834 24.5H7.35C6.89924 24.5 6.53337 24.8659 6.53337 25.3166V44.9166C6.53337 45.3674 6.89924 45.7333 7.35 45.7333C7.80076 45.7333 8.16663 45.3674 8.16663 44.9166V26.1333H17.9666V44.9166C17.9666 45.3674 18.3325 45.7333 18.7834 45.7333Z" fill="#FB5D01"/>
<path d="M34.0607 29.6394C33.7414 29.3201 33.2253 29.3201 32.906 29.6394C32.5866 29.9587 32.5866 30.4748 32.906 30.7941L36.1726 34.0607C36.3319 34.22 36.541 34.3 36.75 34.3C36.9591 34.3 37.1681 34.22 37.3274 34.0607C37.6467 33.7414 37.6467 33.2252 37.3274 32.906L34.0607 29.6394Z" fill="#FB5D01"/>
<path d="M44.9166 0H4.08337C1.83176 0 0 1.83176 0 4.08337V18.7009C0 18.9467 0.11025 19.1786 0.299742 19.3338C0.489234 19.4881 0.739881 19.5501 0.979234 19.5011C2.28348 19.2365 3.38272 18.4583 4.0826 17.4039C4.96048 18.7269 6.46398 19.5999 8.16673 19.5999C9.86872 19.5999 11.3714 18.7277 12.2501 17.4055C13.1288 18.7277 14.6315 19.5999 16.3335 19.5999C18.0354 19.5999 19.5381 18.7277 20.4168 17.4055C21.2954 18.7278 22.7981 19.6 24.5 19.6C26.202 19.6 27.7046 18.7278 28.5834 17.4056C29.4621 18.7278 30.9647 19.6 32.6667 19.6C34.3686 19.6 35.8713 18.7278 36.7501 17.4056C37.6288 18.7278 39.1315 19.6 40.8335 19.6C42.5362 19.6 44.0397 18.727 44.9176 17.404C45.6175 18.4584 46.7167 19.2366 48.021 19.5012C48.2618 19.5511 48.5102 19.489 48.7004 19.3338C48.8899 19.1787 49.0002 18.9467 49.0002 18.701V4.08337C49 1.83176 47.1682 0 44.9166 0ZM47.3666 17.5289C46.3809 16.9573 45.7333 15.8883 45.7333 14.7V4.08337C45.7333 3.6326 45.3674 3.26673 44.9166 3.26673C44.4659 3.26673 44.1 3.6326 44.1 4.08337V14.7C44.1 16.5016 42.6349 17.9666 40.8334 17.9666C39.0318 17.9666 37.5667 16.5015 37.5667 14.7V4.08337C37.5667 3.6326 37.2009 3.26673 36.7501 3.26673C36.2993 3.26673 35.9335 3.6326 35.9335 4.08337V14.7C35.9335 16.5016 34.4683 17.9666 32.6668 17.9666C30.8652 17.9666 29.4002 16.5015 29.4002 14.7V4.08337C29.4002 3.6326 29.0343 3.26673 28.5836 3.26673C28.1328 3.26673 27.7669 3.6326 27.7669 4.08337V14.7C27.7669 16.5016 26.3018 17.9666 24.5003 17.9666C22.6987 17.9666 21.2337 16.5015 21.2337 14.7V4.08337C21.2337 3.6326 20.8678 3.26673 20.417 3.26673C19.9663 3.26673 19.6004 3.6326 19.6004 4.08337V14.7C19.6004 16.5016 18.1353 17.9666 16.3337 17.9666C14.5322 17.9666 13.0671 16.5015 13.0671 14.7V4.08337C13.0671 3.6326 12.7012 3.26673 12.2505 3.26673C11.7997 3.26673 11.4338 3.6326 11.4338 4.08337V14.7C11.4338 16.5016 9.96872 17.9666 8.16721 17.9666C6.3656 17.9666 4.90057 16.5015 4.90057 14.7V4.08337C4.90057 3.6326 4.5347 3.26673 4.08394 3.26673C3.63318 3.26673 3.2673 3.6326 3.2673 4.08337V14.7C3.2673 15.8883 2.61968 16.9573 1.63394 17.5289V4.08337C1.63394 2.73261 2.73319 1.63337 4.08394 1.63337H44.9173C46.2681 1.63337 47.3673 2.73261 47.3673 4.08337V17.5289H47.3666Z" fill="#FB5D01"/>
<path d="M41.65 42.4666C42.1008 42.4666 42.4666 42.1008 42.4666 41.65V25.3166C42.4666 24.8659 42.1008 24.5 41.65 24.5H22.05C21.5992 24.5 21.2334 24.8659 21.2334 25.3166V41.65C21.2334 42.1008 21.5992 42.4666 22.05 42.4666H41.65ZM22.8666 26.1334H40.8333V40.8334H22.8666V26.1334Z" fill="#FB5D01"/>
<path d="M37.3274 28.0059C37.0081 27.6865 36.4919 27.6865 36.1726 28.0059C35.8534 28.3252 35.8534 28.8414 36.1726 29.1606L37.806 30.794C37.9652 30.9532 38.1743 31.0333 38.3834 31.0333C38.5925 31.0333 38.8015 30.9532 38.9607 30.794C39.2801 30.4746 39.2801 29.9585 38.9607 29.6392L37.3274 28.0059Z" fill="#FB5D01"/>
</g>
<defs>
<clipPath id="clip0_7_334">
<rect width="49" height="49" fill="white"/>
</clipPath>
</defs>
</svg>
