<svg width="56" height="56" viewBox="0 0 56 56" fill="none" xmlns="http://www.w3.org/2000/svg">
<path d="M19.6196 27.0451C17.5 24.6511 14.6739 23.3333 11.6601 23.3333C8.64641 23.3333 5.82027 24.6511 3.70161 27.0451C-0.602928 31.9087 -0.602928 39.8206 3.70161 44.6842L11.6601 53.675L19.6187 44.6842C23.9241 39.8206 23.9241 31.9087 19.6196 27.0451ZM18.2215 43.4466L11.6611 50.8582L5.09974 43.4466C1.39814 39.2662 1.39814 32.4631 5.09974 28.2827C6.85907 26.2947 9.18961 25.1999 11.6601 25.1999C14.1307 25.1999 16.4621 26.2947 18.2205 28.2827C21.9221 32.4631 21.9221 39.2653 18.2215 43.4466Z" fill="#FB5D01"/>
<path d="M45.4972 22.8732L51.5303 16.0729C54.7764 12.4143 54.7764 6.46333 51.5303 2.80467C49.9249 0.995867 47.782 0 45.4963 0C43.2115 0 41.0685 0.995867 39.4632 2.80467C36.2171 6.46333 36.2171 12.4143 39.4632 16.0729L45.4972 22.8732ZM40.8595 4.04413C42.1055 2.63947 43.7519 1.86667 45.4963 1.86667C47.2416 1.86667 48.888 2.63947 50.134 4.04413C52.7735 7.01867 52.7735 11.8589 50.134 14.8335L45.4972 20.0611L40.8595 14.8335C38.22 11.8589 38.22 7.01867 40.8595 4.04413Z" fill="#FB5D01"/>
<path d="M49.0971 50.8825C48.594 50.7696 48.0947 51.0851 47.9817 51.5881C47.8744 52.0641 47.6663 52.5019 47.3629 52.8873C47.0447 53.2924 47.1137 53.8795 47.5197 54.1977C47.6915 54.3321 47.894 54.3975 48.0956 54.3975C48.3728 54.3975 48.6463 54.2752 48.8301 54.0409C49.3005 53.4436 49.6365 52.738 49.8027 51.9988C49.9156 51.4948 49.6001 50.9955 49.0971 50.8825Z" fill="#FB5D01"/>
<path d="M29.862 28.9332C29.4579 28.9323 29.0649 28.8604 28.6935 28.7185C28.2156 28.5365 27.6733 28.7764 27.4885 29.258C27.3056 29.7396 27.5473 30.2791 28.028 30.4629C28.6123 30.6851 29.2273 30.7989 29.8601 30.7999H30.1933C30.7095 30.7999 31.1267 30.3827 31.1267 29.8665C31.1267 29.3504 30.7095 28.9332 30.1933 28.9332H29.862Z" fill="#FB5D01"/>
<path d="M27.6463 23.0308C27.8152 23.0308 27.9851 22.9851 28.1391 22.8899C28.5525 22.6323 29.0099 22.4746 29.4961 22.4204C30.0085 22.3635 30.3781 21.9024 30.3221 21.39C30.2661 20.8776 29.8079 20.5118 29.2917 20.5641C28.5245 20.649 27.804 20.8972 27.1507 21.3051C26.7129 21.5776 26.5804 22.1535 26.8529 22.5912C27.0303 22.875 27.3345 23.0308 27.6463 23.0308Z" fill="#FB5D01"/>
<path d="M16.8598 54.1333H14.9931C14.477 54.1333 14.0598 54.5505 14.0598 55.0666C14.0598 55.5828 14.477 56 14.9931 56H16.8598C17.3759 56 17.7931 55.5828 17.7931 55.0666C17.7931 54.5505 17.375 54.1333 16.8598 54.1333Z" fill="#FB5D01"/>
<path d="M33.5935 37.3333C33.5132 37.3333 33.4339 37.3351 33.3545 37.3389C32.8393 37.3594 32.4399 37.7943 32.4604 38.3095C32.48 38.8117 32.8944 39.2046 33.3919 39.2046C33.4049 39.2046 33.418 39.2046 33.4311 39.2037L35.2595 39.1999C35.7756 39.1999 36.1928 38.7827 36.1928 38.2666C36.1928 37.7505 35.7756 37.3333 35.2595 37.3333H33.5935Z" fill="#FB5D01"/>
<path d="M33.1268 22.4001H34.9935C35.5096 22.4001 35.9268 21.9829 35.9268 21.4668C35.9268 20.9506 35.5096 20.5334 34.9935 20.5334H33.1268C32.6107 20.5334 32.1935 20.9506 32.1935 21.4668C32.1935 21.9829 32.6107 22.4001 33.1268 22.4001Z" fill="#FB5D01"/>
<path d="M44.5928 37.3333C44.0767 37.3333 43.6595 37.7505 43.6595 38.2666C43.6595 38.7827 44.0767 39.1999 44.5928 39.1999H46.4595C46.9756 39.1999 47.3928 38.7827 47.3928 38.2666C47.3928 37.7505 46.9756 37.3333 46.4595 37.3333H44.5928Z" fill="#FB5D01"/>
<path d="M47.9276 29.8667C47.9276 29.3506 47.5104 28.9333 46.9943 28.9333H45.1276C44.6115 28.9333 44.1943 29.3506 44.1943 29.8667C44.1943 30.3828 44.6115 30.8 45.1276 30.8H46.9943C47.5095 30.8 47.9276 30.3828 47.9276 29.8667Z" fill="#FB5D01"/>
<path d="M38.9928 39.1999H40.8595C41.3756 39.1999 41.7928 38.7827 41.7928 38.2666C41.7928 37.7505 41.3756 37.3333 40.8595 37.3333H38.9928C38.4767 37.3333 38.0595 37.7505 38.0595 38.2666C38.0595 38.7827 38.4776 39.1999 38.9928 39.1999Z" fill="#FB5D01"/>
<path d="M40.5935 22.4001C41.1096 22.4001 41.5268 21.9829 41.5268 21.4668C41.5268 20.9506 41.1096 20.5334 40.5935 20.5334H38.7268C38.2107 20.5334 37.7935 20.9506 37.7935 21.4668C37.7935 21.9829 38.2107 22.4001 38.7268 22.4001H40.5935Z" fill="#FB5D01"/>
<path d="M33.9276 28.9333C33.4115 28.9333 32.9943 29.3506 32.9943 29.8667C32.9943 30.3828 33.4115 30.8 33.9276 30.8H35.7943C36.3104 30.8 36.7276 30.3828 36.7276 29.8667C36.7276 29.3506 36.3104 28.9333 35.7943 28.9333H33.9276Z" fill="#FB5D01"/>
<path d="M42.3276 29.8667C42.3276 29.3506 41.9104 28.9333 41.3943 28.9333H39.5276C39.0115 28.9333 38.5943 29.3506 38.5943 29.8667C38.5943 30.3828 39.0115 30.8 39.5276 30.8H41.3943C41.9095 30.8 42.3276 30.3828 42.3276 29.8667Z" fill="#FB5D01"/>
<path d="M55.4643 33.2565C55.3821 32.7469 54.9015 32.3987 54.3947 32.4827C53.8851 32.5639 53.5388 33.0437 53.6209 33.5523C53.6471 33.7185 53.662 33.8874 53.6601 34.0675C53.6601 34.3811 53.6153 34.691 53.5276 34.9897C53.3829 35.4843 53.6657 36.0033 54.1613 36.1479C54.2491 36.1731 54.3368 36.1853 54.4236 36.1853C54.8277 36.1853 55.2001 35.9221 55.3196 35.5142C55.4568 35.0447 55.5268 34.5585 55.5268 34.0741C55.5287 33.8053 55.5081 33.5299 55.4643 33.2565Z" fill="#FB5D01"/>
<path d="M39.2597 54.1333H37.3931C36.8769 54.1333 36.4597 54.5505 36.4597 55.0666C36.4597 55.5828 36.8769 56 37.3931 56H39.2597C39.7759 56 40.1931 55.5828 40.1931 55.0666C40.1931 54.5505 39.7749 54.1333 39.2597 54.1333Z" fill="#FB5D01"/>
<path d="M33.6597 54.1333H31.7931C31.2769 54.1333 30.8597 54.5505 30.8597 55.0666C30.8597 55.5828 31.2769 56 31.7931 56H33.6597C34.1759 56 34.5931 55.5828 34.5931 55.0666C34.5931 54.5505 34.1749 54.1333 33.6597 54.1333Z" fill="#FB5D01"/>
<path d="M43.9273 46.6667C43.9273 46.1506 43.5101 45.7334 42.994 45.7334H41.1273C40.6112 45.7334 40.194 46.1506 40.194 46.6667C40.194 47.1829 40.6112 47.6001 41.1273 47.6001H42.994C43.5092 47.6001 43.9273 47.1829 43.9273 46.6667Z" fill="#FB5D01"/>
<path d="M38.3273 46.6667C38.3273 46.1506 37.9101 45.7334 37.394 45.7334H35.5273C35.0112 45.7334 34.594 46.1506 34.594 46.6667C34.594 47.1829 35.0112 47.6001 35.5273 47.6001H37.394C37.9092 47.6001 38.3273 47.1829 38.3273 46.6667Z" fill="#FB5D01"/>
<path d="M44.7935 54.1333H42.9921C42.476 54.1333 42.0588 54.5505 42.0588 55.0666C42.0588 55.5828 42.476 56 42.9921 56L44.8317 55.999L44.8588 55.0657V55.999C45.3749 55.999 45.7595 55.5818 45.7595 55.0657C45.7595 54.5505 45.3096 54.1333 44.7935 54.1333Z" fill="#FB5D01"/>
<path d="M48.0956 49.2044C48.2972 49.2044 48.5016 49.1391 48.6715 49.0047C49.0775 48.6855 49.1465 48.0984 48.8283 47.6943C48.3588 47.0979 47.7531 46.6051 47.0745 46.2681C46.6107 46.0376 46.0525 46.2271 45.8229 46.6881C45.5933 47.1501 45.7819 47.7101 46.2429 47.9397C46.6751 48.1535 47.0615 48.468 47.3601 48.8488C47.5449 49.0821 47.8184 49.2044 48.0956 49.2044Z" fill="#FB5D01"/>
<path d="M51.3959 37.0731C50.9955 37.2411 50.5717 37.326 50.134 37.326H49.9333C49.4172 37.326 49 37.7432 49 38.2593C49 38.7755 49.4172 39.1927 49.9333 39.1927H50.134C50.8209 39.1927 51.4883 39.0583 52.1173 38.7941C52.5933 38.5944 52.8164 38.0475 52.6167 37.5724C52.4179 37.0973 51.8672 36.8733 51.3959 37.0731Z" fill="#FB5D01"/>
<path d="M26.1604 27.8646C26.6495 27.7031 26.9164 27.1758 26.7559 26.6858C26.6485 26.3582 26.5935 26.0156 26.5935 25.6703C26.5944 25.5294 26.6028 25.3884 26.6196 25.2512C26.684 24.7398 26.3219 24.2722 25.8104 24.2087C25.2831 24.1499 24.8313 24.5083 24.7679 25.0179C24.7417 25.2288 24.7277 25.4435 24.7268 25.6656C24.7268 26.2144 24.8127 26.7539 24.9816 27.2691C25.1113 27.662 25.4763 27.9112 25.8683 27.9112C25.9653 27.9112 26.0643 27.8972 26.1604 27.8646Z" fill="#FB5D01"/>
<path d="M22.4597 54.1333H20.5931C20.0769 54.1333 19.6597 54.5505 19.6597 55.0666C19.6597 55.5828 20.0769 56 20.5931 56H22.4597C22.9759 56 23.3931 55.5828 23.3931 55.0666C23.3931 54.5505 22.9749 54.1333 22.4597 54.1333Z" fill="#FB5D01"/>
<path d="M31.8472 47.2211C32.2019 47.2211 32.5397 47.0186 32.6965 46.676C32.9103 46.2066 32.7049 45.6531 32.2364 45.4394C31.7987 45.2387 31.402 44.9372 31.0903 44.5658C30.758 44.171 30.17 44.1196 29.7752 44.4519C29.3804 44.7832 29.3291 45.3722 29.6613 45.767C30.1504 46.3484 30.772 46.8226 31.4599 47.1362C31.5859 47.1931 31.7175 47.2211 31.8472 47.2211Z" fill="#FB5D01"/>
<path d="M52.9629 29.6222C52.2965 29.2358 51.5685 29.009 50.8004 28.9483C50.288 28.911 49.8372 29.2909 49.7971 29.8061C49.7569 30.3203 50.1405 30.7693 50.6548 30.8094C51.142 30.8477 51.604 30.9914 52.0268 31.2369C52.1743 31.3227 52.3357 31.3629 52.4944 31.3629C52.8164 31.3629 53.13 31.1958 53.3027 30.8981C53.5612 30.4529 53.4091 29.8817 52.9629 29.6222Z" fill="#FB5D01"/>
<path d="M28.0597 54.1333H26.1931C25.6769 54.1333 25.2597 54.5505 25.2597 55.0666C25.2597 55.5828 25.6769 56 26.1931 56H28.0597C28.5759 56 28.9931 55.5828 28.9931 55.0666C28.9931 54.5505 28.5749 54.1333 28.0597 54.1333Z" fill="#FB5D01"/>
<path d="M30.3847 41.8499C30.4771 41.3701 30.6712 40.9268 30.9624 40.531C31.2676 40.1166 31.1789 39.5324 30.7636 39.2262C30.3483 38.922 29.7649 39.0097 29.4588 39.4251C29.0024 40.0467 28.6963 40.7439 28.5507 41.4989C28.4536 42.0048 28.7849 42.4938 29.2917 42.5918C29.3505 42.603 29.4103 42.6087 29.4681 42.6087C29.9068 42.6068 30.2979 42.296 30.3847 41.8499Z" fill="#FB5D01"/>
<path d="M45.7268 14.0001C48.5567 14.0001 50.8601 11.6966 50.8601 8.86673C50.8601 6.03686 48.5567 3.7334 45.7268 3.7334C42.8969 3.7334 40.5935 6.03686 40.5935 8.86673C40.5935 11.6966 42.8969 14.0001 45.7268 14.0001ZM45.7268 5.60007C47.5281 5.60007 48.9935 7.0654 48.9935 8.86673C48.9935 10.6681 47.5281 12.1334 45.7268 12.1334C43.9255 12.1334 42.4601 10.6681 42.4601 8.86673C42.4601 7.0654 43.9264 5.60007 45.7268 5.60007Z" fill="#FB5D01"/>
<path d="M11.6602 28.9333C8.57175 28.9333 6.06015 31.4449 6.06015 34.5333C6.06015 37.6217 8.57175 40.1333 11.6602 40.1333C14.7486 40.1333 17.2602 37.6217 17.2602 34.5333C17.2602 31.4449 14.7486 28.9333 11.6602 28.9333ZM11.6602 38.2667C9.60122 38.2667 7.92682 36.5923 7.92682 34.5333C7.92682 32.4744 9.60122 30.8 11.6602 30.8C13.7191 30.8 15.3935 32.4744 15.3935 34.5333C15.3935 36.5923 13.7191 38.2667 11.6602 38.2667Z" fill="#FB5D01"/>
</svg>
