<svg width="52" height="52" viewBox="0 0 52 52" fill="none" xmlns="http://www.w3.org/2000/svg">
<g clip-path="url(#clip0_15_393)">
<path d="M51.9952 0.996089C51.9843 0.909416 51.9735 0.822642 51.941 0.735969C51.9302 0.703454 51.9194 0.660067 51.9085 0.627552C51.8544 0.508364 51.7785 0.399946 51.6918 0.302401C51.5942 0.215728 51.4858 0.139826 51.3666 0.085668C51.3341 0.0747957 51.2907 0.0531529 51.2582 0.0531529C51.1715 0.0315101 51.0848 0.00976562 50.9981 0.00976562C50.9547 0.00976562 50.9222 0.00976562 50.8789 0.00976562C50.7814 0.00976562 50.6729 0.0314085 50.5754 0.0639235C50.5538 0.0747957 50.532 0.0747957 50.5104 0.0855663H50.4995L0.65392 21.7407C0.101164 21.9792 -0.148084 22.6186 0.0902919 23.1714C0.187837 23.399 0.361285 23.5832 0.578018 23.6916L18.6998 33.2835L28.3026 51.4053C28.4868 51.763 28.8553 51.9797 29.2564 51.9906H29.2998C29.7116 51.9797 30.0801 51.7196 30.2536 51.3403L51.9193 1.50546V1.49459C51.9302 1.47294 51.9302 1.4512 51.9409 1.42956C51.9734 1.33201 51.9951 1.23447 51.9951 1.12605C51.9952 1.08276 52.006 1.03938 51.9952 0.996089ZM3.59105 22.8137L46.1532 4.31262L19.3175 31.1375L3.59105 22.8137ZM29.1804 48.403L20.8565 32.6766L47.6815 5.84083L29.1804 48.403Z" fill="#3B40A5"/>
</g>
<defs>
<clipPath id="clip0_15_393">
<rect width="52" height="52" fill="white"/>
</clipPath>
</defs>
</svg>
