<svg width="51" height="51" viewBox="0 0 51 51" fill="none" xmlns="http://www.w3.org/2000/svg">
<path d="M25.4998 1.44336C12.235 1.44336 1.44336 12.235 1.44336 25.4998C1.44336 38.7646 12.235 49.5565 25.5001 49.5565C28.325 49.5565 30.9147 49.1024 33.4054 48.2146C34.4601 49.6108 36.1286 50.5187 38.0095 50.5187C41.1934 50.5187 43.7832 47.929 43.7832 44.7451C43.7832 43.7275 43.5163 42.7719 43.0521 41.9408C47.2472 37.4675 49.5565 31.6549 49.5565 25.4998C49.5565 12.235 38.7649 1.44336 25.4998 1.44336ZM38.0093 48.5943C35.8869 48.5943 34.1603 46.8677 34.1603 44.7453C34.1603 42.623 35.8869 40.8963 38.0093 40.8963C40.1316 40.8963 41.8583 42.623 41.8583 44.7453C41.8583 46.8677 40.1316 48.5943 38.0093 48.5943ZM41.8172 40.4165C40.7996 39.5202 39.4688 38.9715 38.0093 38.9715C34.8254 38.9715 32.2357 41.5612 32.2357 44.7451C32.2357 45.3528 32.3312 45.938 32.5061 46.4886C30.3015 47.2421 28.0043 47.6319 25.4998 47.6319C13.2963 47.6319 3.36775 37.7034 3.36775 25.4998C3.36775 13.2963 13.2963 3.36775 25.4998 3.36775C37.7034 3.36775 47.6319 13.2963 47.6319 25.4998C47.6319 31.072 45.5598 36.328 41.8172 40.4165Z" fill="#3B40A5"/>
<path d="M38.4905 15.8771C38.1633 15.8771 37.847 15.9206 37.5404 15.9896C37.5049 15.9033 37.4703 15.8161 37.4079 15.7404C34.469 12.1583 30.1285 10.1035 25.4998 10.1035C17.0104 10.1035 10.1035 17.0104 10.1035 25.4998C10.1035 33.9891 17.0104 40.896 25.4998 40.896C33.9892 40.896 40.8963 33.9894 40.8963 25.4998C40.8963 24.8288 40.8502 24.414 40.7682 23.8741C41.9957 23.1089 42.8207 21.7571 42.8207 20.2074C42.8207 17.8195 40.8783 15.8771 38.4905 15.8771ZM25.5 38.9717C18.0717 38.9717 12.0284 32.9283 12.0284 25.5C12.0284 18.0717 18.0717 12.0284 25.5 12.0284C29.4935 12.0284 33.2361 13.7828 35.8063 16.8365C34.8116 17.6307 34.1605 18.8385 34.1605 20.2076C34.1605 22.5954 36.1028 24.5378 38.4907 24.5378C38.6349 24.5378 38.7711 24.5091 38.9116 24.4953C38.9506 24.8028 38.9717 25.0838 38.9717 25.5C38.9719 32.9283 32.9286 38.9717 25.5 38.9717ZM38.4907 22.613C37.1644 22.613 36.0851 21.5337 36.0851 20.2074C36.0851 18.881 37.1644 17.8018 38.4907 17.8018C39.817 17.8018 40.8963 18.881 40.8963 20.2074C40.8963 21.5337 39.817 22.613 38.4907 22.613Z" fill="#3B40A5"/>
<path d="M25.4998 17.8018C21.2551 17.8018 17.8018 21.2553 17.8018 25.4998C17.8018 29.7442 21.2553 33.1978 25.4998 33.1978C29.7442 33.1978 33.1978 29.7442 33.1978 25.4998C33.1978 21.2553 29.7445 17.8018 25.4998 17.8018ZM25.4998 31.2734C22.3159 31.2734 19.7261 28.6836 19.7261 25.4998C19.7261 22.3159 22.3159 19.7261 25.4998 19.7261C28.6836 19.7261 31.2734 22.3159 31.2734 25.4998C31.2734 28.6836 28.6836 31.2734 25.4998 31.2734Z" fill="#3B40A5"/>
<path d="M50.7182 0.281857C50.3423 -0.0939523 49.7333 -0.0939523 49.3575 0.281857L43.5836 6.05549C43.2078 6.4313 43.2078 7.04035 43.5836 7.41616C43.7718 7.60406 44.0179 7.69802 44.264 7.69802C44.5103 7.69802 44.7564 7.60406 44.9443 7.41616L50.7179 1.64253C51.094 1.26672 51.094 0.657667 50.7182 0.281857Z" fill="#3B40A5"/>
<path d="M6.05549 43.5838L0.281857 49.3574C-0.0939523 49.7332 -0.0939523 50.3423 0.281857 50.7181C0.469762 50.906 0.715861 51 0.962194 51C1.20853 51 1.45463 50.906 1.64253 50.7181L7.41616 44.9445C7.79197 44.5687 7.79197 43.9596 7.41616 43.5838C7.04035 43.2077 6.4313 43.2077 6.05549 43.5838Z" fill="#3B40A5"/>
</svg>
