<svg width="51" height="51" viewBox="0 0 51 51" fill="none" xmlns="http://www.w3.org/2000/svg">
<path d="M46.6473 21.2966V21.2967C46.0951 18.496 45.0143 15.8843 43.4265 13.5149L46.5059 10.4354L40.5646 4.49408L37.4851 7.5735C35.1157 5.98573 32.504 4.90477 29.7033 4.35273V0H21.2967V4.35273C18.496 4.90487 15.8843 5.98573 13.5149 7.5735L10.4354 4.49408L4.49408 10.4354L7.5735 13.5149C5.98573 15.8843 4.90477 18.496 4.35273 21.2967H0V29.7033H4.35273C4.90477 32.5036 5.98543 35.1148 7.5728 37.4841L4.49378 40.5516L10.4349 46.5067L13.5151 43.4267C15.8846 45.0145 18.4962 46.0953 21.2969 46.6475V51H29.7035V46.6473C32.5042 46.0951 35.1159 45.0143 37.4853 43.4265L40.5655 46.5065L46.5066 40.5514L43.4276 37.4839C45.015 35.1147 46.0956 32.5034 46.6477 29.7031H51V21.2965H46.6473V21.2966ZM49.3187 28.022H45.2306L45.1152 28.7268C44.6162 31.7732 43.4513 34.588 41.6527 37.0927L41.2355 37.6738L44.1278 40.5552L40.5639 44.1276L37.6728 41.2364L37.0928 41.6528C34.5879 43.4514 31.7733 44.6163 28.7269 45.1153L28.0221 45.2307V49.3187H22.9782V45.2306L22.2734 45.1152C19.227 44.6162 16.4122 43.4513 13.9075 41.6527L13.3275 41.2363L10.4364 44.1275L6.87245 40.5551L9.76481 37.6737L9.34764 37.0926C7.549 34.5877 6.38406 31.7731 5.88512 28.7267L5.76967 28.022H1.68131V22.9781H5.76937L5.88482 22.2733C6.38377 19.2269 7.5487 16.4121 9.34734 13.9074L9.76371 13.3274L6.87175 10.4355L10.4354 6.87185L13.3273 9.76371L13.9073 9.34734C16.4122 7.5487 19.2268 6.38377 22.2732 5.88482L22.978 5.76937V1.68141H28.0219V5.76937L28.7267 5.88482C31.7731 6.38377 34.5879 7.5487 37.0926 9.34734L37.6726 9.76371L40.5645 6.87185L44.1281 10.4354L41.2363 13.3273L41.6527 13.9073C43.4513 16.4122 44.6162 19.2268 45.1152 22.2732L45.2306 22.978H49.3186V28.022H49.3187Z" fill="#3B40A5"/>
<path d="M25.5 10.0879C17.0017 10.0879 10.0879 17.0017 10.0879 25.5C10.0879 33.9982 17.0017 40.912 25.5 40.912C33.9982 40.912 40.912 33.9982 40.912 25.5C40.912 17.0017 33.9982 10.0879 25.5 10.0879ZM26.3408 11.7958C33.2436 12.2147 38.7852 17.7564 39.2043 24.6593H32.4534C32.0697 21.4676 29.5326 18.9304 26.3408 18.5467V11.7958ZM24.6592 11.7956V18.5465C21.4675 18.9302 18.9303 21.4673 18.5466 24.6591H11.7957C12.2147 17.7563 17.7563 12.2147 24.6592 11.7956ZM24.6591 39.2041C17.7563 38.7852 12.2147 33.2435 11.7956 26.3406H18.5465C18.9302 29.5323 21.4673 32.0695 24.6591 32.4532V39.2041ZM20.1757 25.5C20.1757 22.5643 22.5643 20.1757 25.5 20.1757C28.4356 20.1757 30.8242 22.5643 30.8242 25.5C30.8242 28.4356 28.4357 30.8242 25.5 30.8242C22.5643 30.8242 20.1757 28.4356 20.1757 25.5ZM26.3407 39.2043V32.4534C29.5324 32.0697 32.0696 29.5326 32.4533 26.3408H39.2042C38.7852 33.2436 33.2436 38.7852 26.3407 39.2043Z" fill="#3B40A5"/>
<path d="M27.9177 14.2659L27.5654 15.9098C31.3299 16.7164 34.2835 19.6698 35.0902 23.434L36.7342 23.0816C35.789 18.6712 32.3283 15.2108 27.9177 14.2659Z" fill="#3B40A5"/>
<path d="M23.0822 14.2659C18.6716 15.2108 15.2109 18.6713 14.2656 23.0817L15.9097 23.4341C16.7164 19.6699 19.67 16.7164 23.4344 15.9099L23.0822 14.2659Z" fill="#3B40A5"/>
<path d="M15.9106 27.5659L14.2666 27.9183C15.2118 32.3288 18.6725 35.7893 23.0831 36.7342L23.4354 35.0902C19.6709 34.2836 16.7172 31.3302 15.9106 27.5659Z" fill="#3B40A5"/>
<path d="M35.0901 27.5659C34.2834 31.3302 31.3298 34.2837 27.5654 35.0901L27.9177 36.7341C32.3283 35.7892 35.789 32.3286 36.7343 27.9182L35.0901 27.5659Z" fill="#3B40A5"/>
<path d="M25.5002 21.8572C23.4916 21.8572 21.8574 23.4914 21.8574 25.5C21.8574 27.5086 23.4916 29.1428 25.5002 29.1428C27.5089 29.1428 29.1431 27.5085 29.1431 25.5C29.1431 23.4915 27.5089 21.8572 25.5002 21.8572ZM25.5002 27.4615C24.4187 27.4615 23.5387 26.5815 23.5387 25.5C23.5387 24.4185 24.4188 23.5385 25.5002 23.5385C26.5817 23.5385 27.4617 24.4185 27.4617 25.5C27.4617 26.5815 26.5818 27.4615 25.5002 27.4615Z" fill="#3B40A5"/>
</svg>
