<svg width="58" height="58" viewBox="0 0 58 58" fill="none" xmlns="http://www.w3.org/2000/svg">
<path d="M47.405 4.35913H3.81418C1.71111 4.35913 0 6.07024 0 8.17331V41.1086C0 43.2118 1.71111 44.9228 3.81418 44.9228H24.1565C24.658 44.9228 25.0647 44.5162 25.0647 44.0146C25.0647 43.5131 24.6582 43.1064 24.1565 43.1064H3.81418C2.71252 43.1064 1.81624 42.2101 1.81624 41.1085V13.9249H49.4029V20.7666C49.4029 21.2681 49.8094 21.6747 50.311 21.6747C50.8125 21.6747 51.2192 21.2682 51.2192 20.7666V8.17331C51.2192 6.07024 49.5081 4.35913 47.405 4.35913ZM49.403 12.1086H1.81624V8.17331C1.81624 7.07165 2.71252 6.17537 3.81418 6.17537H47.405C48.5067 6.17537 49.403 7.07165 49.403 8.17331V12.1086Z" fill="#3B40A5"/>
<path d="M46.4363 8.23389H14.4697C13.9682 8.23389 13.5615 8.64045 13.5615 9.14206C13.5615 9.64367 13.9681 10.0502 14.4697 10.0502H46.4363C46.9378 10.0502 47.3445 9.64367 47.3445 9.14206C47.3445 8.64045 46.9378 8.23389 46.4363 8.23389Z" fill="#3B40A5"/>
<path d="M13.5015 18.8894H7.68943C7.18793 18.8894 6.78125 19.296 6.78125 19.7976C6.78125 20.2992 7.18782 20.7058 7.68943 20.7058H13.5015C14.003 20.7058 14.4097 20.2992 14.4097 19.7976C14.4097 19.296 14.003 18.8894 13.5015 18.8894Z" fill="#3B40A5"/>
<path d="M24.1569 22.7642H19.3135C18.812 22.7642 18.4053 23.1707 18.4053 23.6723C18.4053 24.1739 18.8118 24.5805 19.3135 24.5805H24.1569C24.6584 24.5805 25.0651 24.1739 25.0651 23.6723C25.0651 23.1707 24.6585 22.7642 24.1569 22.7642Z" fill="#3B40A5"/>
<path d="M9.62676 28.5764H7.68943C7.18793 28.5764 6.78125 28.983 6.78125 29.4846C6.78125 29.9862 7.18782 30.3928 7.68943 30.3928H9.62676C10.1283 30.3928 10.5349 29.9862 10.5349 29.4846C10.5349 28.983 10.1283 28.5764 9.62676 28.5764Z" fill="#3B40A5"/>
<path d="M9.62676 32.4512H7.68943C7.18793 32.4512 6.78125 32.8577 6.78125 33.3593C6.78125 33.861 7.18782 34.2675 7.68943 34.2675H9.62676C10.1283 34.2675 10.5349 33.861 10.5349 33.3593C10.5349 32.8577 10.1283 32.4512 9.62676 32.4512Z" fill="#3B40A5"/>
<path d="M19.3131 32.4512H13.5009C12.9995 32.4512 12.5928 32.8577 12.5928 33.3593C12.5928 33.861 12.9993 34.2675 13.5009 34.2675H19.3131C19.8146 34.2675 20.2212 33.861 20.2212 33.3593C20.2212 32.8577 19.8146 32.4512 19.3131 32.4512Z" fill="#3B40A5"/>
<path d="M19.3131 36.3257H13.5009C12.9995 36.3257 12.5928 36.7322 12.5928 37.2339C12.5928 37.7355 12.9993 38.142 13.5009 38.142H19.3131C19.8146 38.142 20.2212 37.7355 20.2212 37.2339C20.2212 36.7322 19.8146 36.3257 19.3131 36.3257Z" fill="#3B40A5"/>
<path d="M22.2191 28.5764H13.5009C12.9995 28.5764 12.5928 28.983 12.5928 29.4846C12.5928 29.9862 12.9993 30.3928 13.5009 30.3928H22.2191C22.7206 30.3928 23.1272 29.9862 23.1272 29.4846C23.1272 28.983 22.7206 28.5764 22.2191 28.5764Z" fill="#3B40A5"/>
<path d="M9.62676 36.3257H7.68943C7.18793 36.3257 6.78125 36.7322 6.78125 37.2339C6.78125 37.7355 7.18782 38.142 7.68943 38.142H9.62676C10.1283 38.142 10.5349 37.7355 10.5349 37.2339C10.5349 36.7322 10.1283 36.3257 9.62676 36.3257Z" fill="#3B40A5"/>
<path d="M29.9689 18.8894H17.3759C16.8745 18.8894 16.4678 19.296 16.4678 19.7976C16.4678 20.2992 16.8743 20.7058 17.3759 20.7058H29.9689C30.4704 20.7058 30.877 20.2992 30.877 19.7976C30.877 19.296 30.4705 18.8894 29.9689 18.8894Z" fill="#3B40A5"/>
<path d="M15.4389 22.7642H7.68943C7.18793 22.7642 6.78125 23.1707 6.78125 23.6723C6.78125 24.1739 7.18782 24.5805 7.68943 24.5805H15.4389C15.9404 24.5805 16.3471 24.1739 16.3471 23.6723C16.3471 23.1707 15.9404 22.7642 15.4389 22.7642Z" fill="#3B40A5"/>
<path d="M57.9995 37.2338C57.9995 36.7323 57.593 36.3257 57.0914 36.3257H57.0033C56.9596 35.5756 56.863 34.8395 56.7155 34.1218L56.7982 34.0996C57.2827 33.9698 57.5701 33.4718 57.4404 32.9873C57.3106 32.5028 56.8124 32.2155 56.3281 32.3451L56.2441 32.3676C56.0084 31.6595 55.7225 30.9743 55.391 30.3158L55.4687 30.2708C55.903 30.02 56.0519 29.4646 55.8011 29.0302C55.5503 28.5958 54.9949 28.447 54.5606 28.6979L54.4801 28.7443C54.0707 28.125 53.6182 27.5369 53.1263 26.9839L53.1937 26.9165C53.5484 26.5618 53.5484 25.9868 53.1937 25.6321C52.839 25.2776 52.264 25.2775 51.9093 25.6321L51.8419 25.6995C51.2891 25.2077 50.7009 24.7551 50.0815 24.3458L50.128 24.2654C50.3788 23.8311 50.2299 23.2757 49.7956 23.0249C49.3613 22.7739 48.8059 22.9229 48.5551 23.3572L48.5101 23.4349C47.8515 23.1034 47.1661 22.8176 46.4581 22.5818L46.4807 22.4979C46.6105 22.0134 46.3229 21.5155 45.8385 21.3856C45.3544 21.2556 44.8561 21.5433 44.7262 22.0278L44.7039 22.1105C43.9862 21.963 43.2501 21.8663 42.5001 21.8226V21.7346C42.5001 21.2331 42.0935 20.8264 41.5919 20.8264C41.0903 20.8264 40.6837 21.233 40.6837 21.7346V21.8226C39.9337 21.8663 39.1976 21.963 38.4798 22.1105L38.4576 22.0278C38.3278 21.5433 37.83 21.2562 37.3453 21.3856C36.8608 21.5154 36.5734 22.0134 36.7032 22.4979L36.7258 22.5818C36.0177 22.8176 35.3324 23.1035 34.6739 23.4349L34.6289 23.3572C34.3781 22.9229 33.8227 22.7741 33.3884 23.0249C32.9541 23.2757 32.8052 23.8311 33.056 24.2654L33.1025 24.3458C32.4832 24.7552 31.895 25.2078 31.3421 25.6997L31.2747 25.6323C30.92 25.2776 30.345 25.2776 29.9904 25.6323C29.6357 25.9869 29.6357 26.562 29.9904 26.9165L30.0578 26.9839C29.566 27.5366 29.1134 28.1249 28.704 28.7443L28.6236 28.6979C28.1892 28.447 27.6338 28.5959 27.383 29.0302C27.1322 29.4646 27.2811 30.02 27.7154 30.2708L27.7931 30.3158C27.4615 30.9744 27.1757 31.6597 26.94 32.3676L26.856 32.3451C26.3723 32.2158 25.8737 32.5028 25.7437 32.9873C25.6139 33.4718 25.9014 33.9696 26.3858 34.0996L26.4685 34.1218C26.321 34.8395 26.2244 35.5756 26.1807 36.3257H26.0927C25.5912 36.3257 25.1846 36.7322 25.1846 37.2338C25.1846 37.7355 25.5911 38.142 26.0927 38.142H26.1808C26.2245 38.8921 26.3211 39.6282 26.4686 40.3459L26.3859 40.3681C25.9014 40.4979 25.614 40.9959 25.7437 41.4804C25.8525 41.8862 26.2194 42.1538 26.6204 42.1538C26.6982 42.1538 26.7773 42.1437 26.856 42.1226L26.94 42.1001C27.1757 42.8082 27.4616 43.4934 27.7931 44.1519L27.7154 44.1969C27.2811 44.4477 27.1322 45.0031 27.383 45.4374C27.5512 45.7288 27.8564 45.8916 28.1703 45.8916C28.3244 45.8916 28.4805 45.8524 28.6236 45.7698L28.704 45.7234C29.1134 46.3427 29.5659 46.9308 30.0577 47.4838L29.9903 47.5512C29.6356 47.9058 29.6357 48.4809 29.9903 48.8355C30.1677 49.0128 30.4 49.1014 30.6324 49.1014C30.8647 49.1014 31.0973 49.0128 31.2746 48.8354L31.342 48.768C31.8947 49.2599 32.4829 49.7124 33.1024 50.1217L33.0559 50.2022C32.8051 50.6365 32.954 51.1919 33.3883 51.4427C33.5312 51.5253 33.6875 51.5645 33.8415 51.5645C34.1554 51.5645 34.4606 51.4015 34.6288 51.1103L34.6738 51.0326C35.3324 51.3642 36.0178 51.65 36.7257 51.8858L36.7031 51.9696C36.5733 52.4541 36.8608 52.9521 37.3452 53.0819C37.4239 53.103 37.503 53.113 37.5808 53.113C37.9817 53.113 38.3488 52.8455 38.4575 52.4397L38.4797 52.357C39.1975 52.5045 39.9336 52.6011 40.6836 52.6448V52.7329C40.6836 53.2344 41.0902 53.641 41.5918 53.641C42.0934 53.641 42.4999 53.2345 42.4999 52.7329V52.6448C43.25 52.6011 43.9861 52.5046 44.7038 52.357L44.726 52.4397C44.8348 52.8455 45.2017 53.113 45.6027 53.113C45.6805 53.113 45.7596 53.103 45.8383 53.0819C46.3229 52.9521 46.6102 52.4541 46.4804 51.9696L46.4579 51.8858C47.166 51.65 47.8512 51.3641 48.5097 51.0326L48.5547 51.1103C48.7229 51.4017 49.0281 51.5645 49.342 51.5645C49.4961 51.5645 49.6522 51.5253 49.7953 51.4427C50.2296 51.1919 50.3784 50.6365 50.1276 50.2022L50.0812 50.1217C50.7005 49.7123 51.2888 49.2598 51.8416 48.7679L51.909 48.8353C52.0863 49.0126 52.3187 49.1013 52.5511 49.1013C52.7834 49.1013 53.0159 49.0127 53.1931 48.8353C53.5478 48.4806 53.5478 47.9056 53.1931 47.551L53.1257 47.4836C53.6176 46.9309 54.0702 46.3427 54.4796 45.7233L54.56 45.7697C54.7029 45.8523 54.8592 45.8915 55.0132 45.8915C55.3271 45.8915 55.6323 45.7285 55.8005 45.4373C56.0513 45.003 55.9025 44.4476 55.4682 44.1968L55.3904 44.1518C55.722 43.4932 56.0078 42.8078 56.2436 42.1L56.3274 42.1225C56.4061 42.1436 56.4852 42.1536 56.563 42.1536C56.9639 42.1536 57.331 41.8861 57.4397 41.4803C57.5695 40.9958 57.282 40.4978 56.7976 40.368L56.7149 40.3458C56.8624 39.628 56.9591 38.8919 57.0028 38.1419H57.091V38.142C57.593 38.142 57.9995 37.7353 57.9995 37.2338ZM41.5925 50.8559C34.0811 50.8559 27.9704 44.7451 27.9704 37.2337C27.9704 29.7224 34.0812 23.6117 41.5925 23.6117C49.1037 23.6117 55.2146 29.7225 55.2146 37.2337C55.2146 44.745 49.1038 50.8559 41.5925 50.8559Z" fill="#3B40A5"/>
<path d="M41.5929 25.6702C35.2167 25.6702 30.0293 30.8575 30.0293 37.2338C30.0293 43.6101 35.2167 48.7974 41.5929 48.7974C47.9692 48.7974 53.1566 43.6101 53.1566 37.2338C53.1566 30.8575 47.9692 25.6702 41.5929 25.6702ZM41.5929 46.9813C36.2182 46.9813 31.8455 42.6087 31.8455 37.2339C31.8455 31.8592 36.2182 27.4865 41.5929 27.4865C46.9677 27.4865 51.3403 31.8592 51.3403 37.2339C51.3403 42.6087 46.9677 46.9813 41.5929 46.9813Z" fill="#3B40A5"/>
<path d="M41.5933 29.5449C37.3536 29.5449 33.9043 32.9942 33.9043 37.2339C33.9043 41.4735 37.3535 44.9228 41.5933 44.9228C45.8329 44.9228 49.2822 41.4737 49.2822 37.2339C49.2822 32.9942 45.8329 29.5449 41.5933 29.5449ZM41.5933 43.1065C38.3551 43.1065 35.7206 40.472 35.7206 37.2339C35.7206 33.9957 38.3551 31.3613 41.5933 31.3613C44.8314 31.3613 47.4659 33.9957 47.4659 37.2339C47.4659 40.472 44.8314 43.1065 41.5933 43.1065Z" fill="#3B40A5"/>
<path d="M4.78318 10.0502C5.28475 10.0502 5.69135 9.64364 5.69135 9.14206C5.69135 8.64049 5.28475 8.23389 4.78318 8.23389C4.2816 8.23389 3.875 8.64049 3.875 9.14206C3.875 9.64364 4.2816 10.0502 4.78318 10.0502Z" fill="#3B40A5"/>
<path d="M7.68943 10.0502C8.191 10.0502 8.5976 9.64364 8.5976 9.14206C8.5976 8.64049 8.191 8.23389 7.68943 8.23389C7.18785 8.23389 6.78125 8.64049 6.78125 9.14206C6.78125 9.64364 7.18785 10.0502 7.68943 10.0502Z" fill="#3B40A5"/>
<path d="M10.5947 10.0502C11.0963 10.0502 11.5029 9.64364 11.5029 9.14206C11.5029 8.64049 11.0963 8.23389 10.5947 8.23389C10.0931 8.23389 9.68652 8.64049 9.68652 9.14206C9.68652 9.64364 10.0931 10.0502 10.5947 10.0502Z" fill="#3B40A5"/>
</svg>
