<svg width="1241" height="632" viewBox="0 0 1241 632" fill="none" xmlns="http://www.w3.org/2000/svg"><g opacity=".07" fill="#fff"><path d="M518.935 133.269l.729 5.211-7.683 1.576-1.132 11.023h9.406l12.4-1.153 6.412-7.614-6.865-2.67-3.763-4.265-5.643-8.964-2.541-12.914-10.578 2.158-2.945 4.541v5.033l5.052 3.576 7.151 4.462z"/><path d="M510.061 137.525l.502-6.935-6.077-2.63-8.677 1.95-6.412 10.245v6.708h7.495l13.169-9.338zm-179.384 34.289h-9.15v4.778h2.197s.157.985.295 2.305l5.693-.512 3.378-2.108 1.025-4.453 4.501-.345 1.812-3.763-4.215-.906-3.566.099-1.97 4.905zm-22.131 8.363l6.747-.561.551-4.659-4.018-3.143-2.896 3.763-.384 4.6zm703.594 222.592l-19.636.591-.778-10.688 3.182 1.379 7.692-.896-.79-9.792-21.341.257-5.782-7.704.266-4.117-27.41-24.685-6.865 5.339 39.338 47.972 5.535 1.851v2.591h-7.407l1.872 5.979 48.154 2.108-16.03-10.185zm34.28-53.508l-3.33-1.359-1.56-8.245h-4.84l-3.08 8.284-3.68 3.29-27.87 15.18v14.953l9.27 12.293h23.45l3.04-7.644 5.27-4.807v-3.516l3.33-2.108v-26.321zm17.35 26.321l-14.1 5.437.29 3.132h-3.54v19.495h7.12l-.98-12.432 5.54 2.059v8.708l5.86-.394-.19-26.005zm118.7 118.028l-3.87-15.741-14.35-12.303-1.14-23.454-9.39-16.214-8.52-.453-3.53 29.443-16.17-1.172-4.7-2.788-.44-11.614 8.51 1.773 7.3-7.112-15.52-9.358h-18.12l-13.08 18.618h-5.25v-5.871l-15.77 1.113-24.75 28.172-13.16.296-14.64 9.988-.94 43.805-8.91 8.521v7.693l42.71-14.647 34.48-1.379 12.79 28.172 39.25 1.33 37.82-35.57 9.39-21.248zm-81.27 77.189l13.87 1.438 11.17-6.137.29-8.471-12.3-1.32-13.03 14.49zm133.49-38.457l-5.77 1.133-.17-13.032-10.63.68-1.42 20.39-9.3 6.364-17.29 2.354-27.73 19.74-4.65 3.872v6.56l14.39-2.157 35.24-21.553 9.88-6.561 10.63-4.708 10.79-6.068-3.97-7.014zM1125.7 386.791l-8.97.296.74-9.358-8.57-5.043-12.06 12.155 8.13 9.988 17.59 2.552 9.79 5.142.3 4.797h-6.46l.34 9.89 21.25-1.36 7.73-8.284 8.39-.778v15.189h14.35v-6.127h-7.31l-1.21-18.469-34.47-15.643-9.56 5.053zm-255.798-44.228l3.378 9.062 12.114-4.511 1.212-12.53-9.652-1.862-7.052 9.841zM727.551 448.13l-16.507-2.147v12.825l5.929 6.856-4.511 6.955-6.707 7.703v14.155l9.16 8.816 8.233-13.278 16.212-23.76 7.742-37.333h-9.85l-9.701 19.208zm339.739-39.392h-5.48v2.896l4.21 1.32 1.27-4.216zm-24.13 4.216h-6.47v3.527h6.47v-3.527zm9.16 3.527h3.97v-3.093l2.94-.434v-3.034h-6.39l-2.63 3.034-3.79 3.527v3.083l5.9-.542v-2.541zm16.41 2.856h6.41v-3.339l4.42.483-.59-5.635-7.26 1.133-.69 3.635-8.11.867h-.41v5.585h6.23v-2.729z"/><path d="M952.428 340.061l37.959 36.447 2.009-6.472-30.857-43.894 3.24-12.835 16.261 18.469 9.061.926 11.949-7.939-1.96-11.959-19.798-15.839-.769-14.402 5.614-7.575 9.909 3.162-.739 6.768 5.683 8.786 5.05-3.625-2.79-10.382 27.97-10.028 12.25-10.235-1.9-18.519-24.3-25.571-.45-20.824h10.78l33.61 25.571 9.5-2.492-6.36-8.235-17.97-10.944 1.13-16.292 21.31.049 1.73-20.164-8.14-10.629 4.85-5.24 10.33 10.432 3.39-4.414-13.47-15.179-32.93-3.97-4.41-8.816 9.56-13.623 7.55 5.674 22.81 1.97 28.71-19.18 4.8 5.97-6.41 10.038v9.919l26.4 21.583 8.37-4.364-3.12-14.401-18.81-17.564 24.79-1.665v-7.151l11.91-2.423-9.12-6.324.34-4.857 25.26 4.049 4.8-4.049-34.05-14.352-123.82-6.363-11.524-5.881-18.467-2.817-13.749-.444-12.578 12.698-5.25-.404-16.704-12.392h-49.177L858.92 44.211l-45.651 2.866-34.601 15.604.207 17.947-10.716 3.221-2.403-18.016-4.028-6.216-11.908-2.975-2.787 10.786 3.486 8.846-42.627-2.817-20.279 9.378-3.083-8.885-5.142 1.32-3.723 9.87-10.627 8.333-25.962-.709-1.222-5.753 27.243-1.152 5.535-4.778-32.768-15.238-39.929 1.201-22.347 11.437-8.431 15.012-14.892 5.772-6.215 6.817 1.428 7.88 7.682 1.054 4.649 11.535 13.031-5.319 2.304 15.386h-4.117l-10.716-1.595-11.956 2.009-11.563 16.342-16.655 2.67-2.345 14.165 7.062 1.645-2.019 9.141-16.586-3.261-15.079 3.261-3.152 8.422 2.561 17.662 8.953 4.157 14.794-.049 10.095-.956 3.093-8.028 15.66-20.312 10.342 2.098 10.144-9.19 1.901 7.181 24.997 16.903-3.092 4.108-11.268-.66 4.265 6.166 7.003 1.527 8.125-3.378-.138-9.821 3.674-1.823-2.994-3.103-16.704-9.289-4.304-12.421h13.808l4.413 4.364 12.006 10.343.423 12.49 12.44 13.18 4.609-18.056 8.579-4.728 1.596 14.795 8.391 9.23 25.254-.384 7.505 5.556v13.258l-9.219 8.373h-25.618l-15.572-11.643-16.359 1.645v9.989h-5.25l-5.574-4.019-28.366-7.231V209l-36.048 2.797-11.179 5.98h-14.203l-7.042-.7-17.334 9.644v18.095l-35.467 25.651 2.984 10.875h7.15l-1.812 10.392-5.043 1.911-.295 27.188 30.572 34.88H493.8l.926-2.147h23.894l6.973-6.364h13.562l7.496 7.487 20.24 2.058-2.65 27.001 22.476 39.727-11.858 22.636.837 10.629 9.406 9.309v25.67l12.193 16.46v21.356h36.245l27.233-27.926 8.53-15.229 10.923-2.404V471.25l7.18-8.531 15.148-20.873-3.152-31.65-6.658-11.751 29.892-28.606 32.867-47.086-6.284-2.984-34.245 7.2-8.865-4.363-35.939-67.801 2.491-2.946 35.714 43.293.876 13.387 8.136 8.284 16.95-1.073 34.916-25.375 11.08-7.162-.187-8.845-11.701-1.438s-41.111-19.386-41.111-20.243c0-.887.247-16.608.247-16.608h9.11l1.32 11.466 19.009 10.973 21.796 1.044 47.089 7.723 11.1 6.984v10.777l-1.428 14.716 24.259 39.737 7.682 1.813 7.84-11.319 4.275-32.181 8.076-17.327 12.962-4.866 22.869 2.206 28.859 25.602v36.644h.029v-.01zM620.805 87.021l-15.758 9.723v6.363l8.903 4.167.69 8.649-12.745 18.853-22.043-.216-1.369-4.512 13.769-7.033.148-26.084 23.323-16.352h5.102v6.442h-.02zm48.941 111.163v-.049l-20.752-.897-6.186.897v-14.136l4.669-5.26 4.984-1.576 11.08-1.251 2.344-3.773 4.541 2.236.6 12.934 12.105 4.975 1.024 5.91-14.409-.01zm79.7 10.097h-.049l-3.674 3.447-8.402-.63-1.595-2.522-13.178-1.014.925-4.207 7.062-6.008v-5.073l-13.424-9.703-.591-12.422 2.738-6.077 10.824-1.005 9.17 3.852.443 6.412-13.119-.729-.63 5.92 16.349 10.875v8.029l7.151 5.141v5.714zM396.174 385.767l-28.257-.246L345.52 377l-1.074-15.968-7.485-13.091-20.132-.236-11.76-18.431-10.391-4.994-.531 5.497-18.911 1.172-6.953-9.644-19.788-4.019-16.27 18.766-25.51-4.315-1.861-28.852-18.714-3.211 7.505-14.087-2.167-8.136-24.435 16.421-15.434-1.862-5.585-12.106 3.438-12.491 8.519-15.632 19.541-9.949h37.87l-.098 11.534 13.621 6.275-1.123-19.72 9.8-9.821 19.787-13.003 1.261-9.122 19.807-20.528 21.008-11.584-1.881-1.488 14.153-13.406 5.25 1.349 2.403 3.015 5.378-6.019 1.231-.621-5.821-.788-5.978-1.999v-5.842l3.132-2.59h7.052l3.24 1.398 2.738 5.556 3.379-.492v-.335l1.024.285 9.8-1.566 1.359-4.797 5.486 1.399v5.171l-5.131 3.625.778 5.753 17.837 5.467s.049.098.049.197l4.068-.345.295-7.673-14.104-6.413-.837-3.773 11.71-4.019.483-11.141-12.203-7.476-.788-18.854-16.891 8.235h-6.117l1.606-14.382-22.732-5.437-9.495 7.122v21.878l-17.01 5.319-6.855 14.253-7.347 1.153v-18.174l-15.976-2.256-7.977-5.162-3.241-11.732 28.593-16.755 13.966-4.266 1.369 9.388 7.84-.394.63-4.728 8.135-1.153.089-1.596-3.427-1.517-.838-4.964 9.997-.867 6.028-6.314.433-.443v.049l1.813-1.911 21.166-2.65 9.248 7.91-24.485 13.013 31.104 7.318 3.979-10.441h13.661l4.737-9.033-9.534-2.413V67.054l-30.129-13.347-20.722 2.403-11.81 6.127.887 14.953-12.213-1.91-1.862-8.226 11.622-10.678-21.215-1.054-6.185 1.793-2.699 7.22 8.047 1.38-1.625 8.008-13.562.818-2.108 5.26-19.836.561s-.444-11.19-1.232-11.19c-.837 0 15.434-.236 15.434-.236l11.75-11.496-6.412-3.24-8.519 8.323-14.163-.778-8.471-11.752h-18.132l-18.94 14.155h17.335l1.605 5.064-4.55 4.265 19.206.571 2.935 6.905-21.6-.867-1.073-5.309-13.563-2.965-7.199-3.94-32 .295-9.84 9.575-6.707-.571-7.456-4.315-22.092-6.62h-40.51l-23.421 15.95-15.73 2.433-7.19 5.605 11.17 1.645v4.482H9.347L0 103.008l11.937 10.147 32.769.285 4.56-4.876h27.38l9.89 8.797-.592 13.643 8.343 7.713-6.954 4.974 1.566 17.948-24.731 30.113v28.241l13.266 6.423v25.345l12.903 21.799 10.273 1.566 1.329-7.466-12.144-18.864-2.403-18.371h7.2l3.083 18.913 17.728 25.837-4.747 8.334 11.356 17.248 28.031 6.935v-4.512l11.159 1.537-1.024 8.038 8.765 1.517 13.622 3.822 19.206 21.848 24.485 1.823 2.403 20.036-16.793 11.702-.837 17.78-2.344 10.984 24.239 30.369 1.861 10.333s8.825 2.403 9.8 2.403c1.074 0 19.787 14.165 19.787 14.165v54.818l6.658 1.961-4.648 25.276 11.218 14.894-2.019 25.069 14.754 26.065 18.999 16.568 19.019.345 1.901-6.078-13.957-11.8.828-5.891 2.561-7.24.531-7.25-9.553-.286-4.895-5.979 7.977-7.634 1.074-5.684-8.815-2.492.483-5.349 12.547-1.852 19.049-9.112 6.422-11.761 19.974-25.67-4.541-19.938 6.126-10.678 18.359.542 12.341-9.703 4.019-38.653 13.73-17.485 2.442-11.17-12.548-4.019-8.234-13.584zM246.683 193.328h-10.194l1.635-6.935 4.797-.512 1.073-2.355 7.299-1.004v6.225h.039l-4.649 4.581zm7.042-17.17l-4.806 3.113-6.018 1.044v-10.53h10.824v6.373zm9.111-7.368l4.944 3.014-3.959 3.261-3.772-3.261 2.787-3.014zm-6.461 7.979h.788l12.242 3.546v6.285h-10.282l-2.738-4.029-.01-5.802zm-7.988-17.219l6.619 6.029-6.619 1.615v-7.644zm-28.011 1.005l9.199-3.802h12.647v3.802h2.738v6.639h-19.246l-7.111-1.96 1.773-4.679zm-1.773 17.238l7.298-7.988h10.578l-13.562 18.962-5.634-3.014 1.32-7.96zm-9.79-45.154l7.545 1.743-2.611 10.245-8.184 2.63-5.141-10.658 8.391-3.96zm-37.969-48.376v-.6h7.013l.63-2.424h11.475v5.024l-3.388 4.354h-15.73v-6.354zm11.13 15.593s7.052-1.24 7.594-1.24c.541 0 0 7.023 0 7.023l-15.789 1.004-2.974-3.575 11.169-3.212z"/></g></svg>