<svg width="42" height="42" viewBox="0 0 42 42" fill="none" xmlns="http://www.w3.org/2000/svg"><g clip-path="url(#clip0_3_47)" fill="#fff"><path d="M41.916 40.839l-8.494-24.04a.853.853 0 00-.806-.627h-3.913c1.107-2.668 1.682-4.71 1.682-6.074C30.385 4.556 26.095 0 20.733 0c-5.277 0-9.652 4.47-9.652 10.098 0 1.51.703 3.698 1.707 6.074H9.382a.86.86 0 00-.806.627L.082 40.839c-.275.883.54 1.158.806 1.158H41.11a.843.843 0 00.807-1.158zM20.733 1.776c4.375 0 7.867 3.75 7.867 8.314 0 4.847-6.795 15.64-7.867 17.425-2.686-4.556-7.868-13.856-7.868-17.425 0-4.556 3.484-8.314 7.868-8.314zM2.14 40.212l7.867-22.255h3.578c2.565 5.5 7.147 12.955 7.147 12.955s6.984-12.5 7.19-12.955h4.066l7.868 22.255H2.14z"/><path d="M26.901 32.525h-11.71v1.785H26.9v-1.785zM24.842 9.283c0-2.23-1.878-4.11-4.11-4.11-2.23 0-4.109 1.88-4.109 4.11a4.1 4.1 0 004.11 4.11c2.325 0 4.11-1.87 4.11-4.11zm-6.434-.086a2.31 2.31 0 012.325-2.325 2.31 2.31 0 012.325 2.325 2.31 2.31 0 01-2.325 2.325c-1.253 0-2.325-1.072-2.325-2.325z"/></g><defs><clipPath id="clip0_3_47"><path fill="#fff" d="M0 0h42v42H0z"/></clipPath></defs></svg>