<svg width="139" height="58" viewBox="0 0 139 58" fill="none" xmlns="http://www.w3.org/2000/svg"><path d="M.1 23V1.4h14.1v3.81H4.18v4.62h8.22v3.81H4.18v5.55H14.2V23H.1zm18.895 0V1.4h9.12c.21 0 .49.01.84.03.36.01.68.04.96.09 1.29.2 2.345.625 3.165 1.275a5.74 5.74 0 011.83 2.46c.39.98.585 2.075.585 3.285s-.2 2.31-.6 3.3c-.39.98-1 1.795-1.83 2.445-.82.65-1.87 1.075-3.15 1.275a16.16 16.16 0 01-1.8.12h-5.04V23h-4.08zm4.08-11.13h4.86c.21 0 .44-.01.69-.03.25-.02.48-.06.69-.12.55-.15.975-.4 1.275-.75.3-.36.505-.755.615-1.185.12-.44.18-.855.18-1.245 0-.39-.06-.8-.18-1.23a2.867 2.867 0 00-.615-1.185c-.3-.36-.725-.615-1.275-.765-.21-.06-.44-.1-.69-.12-.25-.02-.48-.03-.69-.03h-4.86v6.66zm24.792 11.58c-1.6 0-3.045-.28-4.335-.84-1.28-.57-2.335-1.38-3.165-2.43-.82-1.06-1.34-2.32-1.56-3.78l4.26-.63c.3 1.24.92 2.195 1.86 2.865.94.67 2.01 1.005 3.21 1.005.67 0 1.32-.105 1.95-.315.63-.21 1.145-.52 1.545-.93.41-.41.615-.915.615-1.515 0-.22-.035-.43-.105-.63a1.591 1.591 0 00-.315-.585c-.15-.18-.365-.35-.645-.51a4.88 4.88 0 00-1.035-.435l-5.61-1.65c-.42-.12-.91-.29-1.47-.51a6.49 6.49 0 01-1.605-.945c-.52-.41-.955-.95-1.305-1.62-.34-.68-.51-1.535-.51-2.565 0-1.45.365-2.655 1.095-3.615.73-.96 1.705-1.675 2.925-2.145 1.22-.47 2.57-.7 4.05-.69 1.49.02 2.82.275 3.99.765a7.624 7.624 0 012.94 2.145c.79.93 1.36 2.07 1.71 3.42l-4.41.75c-.16-.7-.455-1.29-.885-1.77a4.234 4.234 0 00-1.545-1.095 5.13 5.13 0 00-1.86-.405c-.64-.02-1.245.07-1.815.27-.56.19-1.02.47-1.38.84-.35.37-.525.81-.525 1.32 0 .47.145.855.435 1.155.29.29.655.525 1.095.705.44.18.89.33 1.35.45l3.75 1.02c.56.15 1.18.35 1.86.6.68.24 1.33.58 1.95 1.02.63.43 1.145 1 1.545 1.71.41.71.615 1.61.615 2.7 0 1.16-.245 2.175-.735 3.045a6.355 6.355 0 01-1.95 2.145c-.82.56-1.75.98-2.79 1.26-1.03.28-2.095.42-3.195.42zM61.334 23V1.4h4.08V23h-4.08zm10.077 0V1.4h4.08v17.79h9.3V23H71.41zm25.814.45c-2.16 0-4.024-.47-5.594-1.41-1.56-.94-2.766-2.255-3.615-3.945-.84-1.69-1.26-3.655-1.26-5.895 0-2.24.42-4.205 1.26-5.895.85-1.69 2.054-3.005 3.614-3.945C93.2 1.42 95.066.95 97.227.95s4.019.47 5.579 1.41c1.57.94 2.775 2.255 3.615 3.945.85 1.69 1.275 3.655 1.275 5.895 0 2.24-.425 4.205-1.275 5.895-.84 1.69-2.045 3.005-3.615 3.945-1.56.94-3.42 1.41-5.58 1.41zm0-3.84c1.37.02 2.51-.275 3.42-.885.91-.61 1.59-1.475 2.04-2.595.46-1.12.69-2.43.69-3.93s-.23-2.8-.69-3.9c-.45-1.1-1.13-1.955-2.04-2.565-.91-.61-2.05-.925-3.42-.945-1.37-.02-2.51.275-3.42.885-.91.61-1.595 1.475-2.055 2.595-.45 1.12-.674 2.43-.674 3.93s.225 2.8.675 3.9c.46 1.1 1.144 1.955 2.054 2.565.91.61 2.05.925 3.42.945zM111.89 23V1.4h4.14l9.39 14.4V1.4h4.14V23h-4.14l-9.39-14.4V23h-4.14zM.1 57V35.4h3.66l7.14 14.34 7.14-14.34h3.66V57h-3.81V44.1L11.62 57h-1.44L3.91 44.1V57H.1zm27.01 0V35.4h14.1v3.81H31.19v4.62h8.22v3.81h-8.22v5.55h10.02V57h-14.1zm23.906 0V39.21h-6.81V35.4h17.7v3.81h-6.81V57h-4.08zm14.5 0V35.4h9.12c.21 0 .49.01.84.03.36.01.68.04.96.09 1.29.2 2.345.625 3.165 1.275a5.74 5.74 0 011.83 2.46c.39.98.585 2.075.585 3.285 0 1.81-.45 3.36-1.35 4.65-.9 1.28-2.31 2.07-4.23 2.37l-1.8.12h-5.04V57h-4.08zm12.18 0l-4.26-8.79 4.2-.81 4.68 9.6h-4.62zm-8.1-11.13h4.86c.21 0 .44-.01.69-.03.25-.02.48-.06.69-.12.55-.15.975-.4 1.275-.75.3-.36.505-.755.615-1.185.12-.44.18-.855.18-1.245 0-.39-.06-.8-.18-1.23a2.867 2.867 0 00-.615-1.185c-.3-.36-.725-.615-1.275-.765-.21-.06-.44-.1-.69-.12-.25-.02-.48-.03-.69-.03h-4.86v6.66zM87.114 57V35.4h4.08V57h-4.08zm19.047.45c-2.16 0-4.025-.47-5.595-1.41-1.56-.94-2.765-2.255-3.615-3.945-.84-1.69-1.26-3.655-1.26-5.895 0-2.24.42-4.205 1.26-5.895.85-1.69 2.055-3.005 3.615-3.945 1.57-.94 3.435-1.41 5.595-1.41 2.48 0 4.56.615 6.24 1.845 1.69 1.23 2.88 2.895 3.57 4.995l-4.11 1.14c-.4-1.31-1.075-2.325-2.025-3.045-.95-.73-2.175-1.095-3.675-1.095-1.37 0-2.515.305-3.435.915-.91.61-1.595 1.47-2.055 2.58-.46 1.11-.69 2.415-.69 3.915s.23 2.805.69 3.915c.46 1.11 1.145 1.97 2.055 2.58.92.61 2.065.915 3.435.915 1.5 0 2.725-.365 3.675-1.095.95-.73 1.625-1.745 2.025-3.045l4.11 1.14c-.69 2.1-1.88 3.765-3.57 4.995-1.68 1.23-3.76 1.845-6.24 1.845zm23.381 0c-1.6 0-3.045-.28-4.335-.84-1.28-.57-2.335-1.38-3.165-2.43-.82-1.06-1.34-2.32-1.56-3.78l4.26-.63c.3 1.24.92 2.195 1.86 2.865.94.67 2.01 1.005 3.21 1.005.67 0 1.32-.105 1.95-.315.63-.21 1.145-.52 1.545-.93.41-.41.615-.915.615-1.515 0-.22-.035-.43-.105-.63a1.591 1.591 0 00-.315-.585c-.15-.18-.365-.35-.645-.51a4.88 4.88 0 00-1.035-.435l-5.61-1.65c-.42-.12-.91-.29-1.47-.51a6.49 6.49 0 01-1.605-.945c-.52-.41-.955-.95-1.305-1.62-.34-.68-.51-1.535-.51-2.565 0-1.45.365-2.655 1.095-3.615.73-.96 1.705-1.675 2.925-2.145 1.22-.47 2.57-.7 4.05-.69 1.49.02 2.82.275 3.99.765a7.624 7.624 0 012.94 2.145c.79.93 1.36 2.07 1.71 3.42l-4.41.75c-.16-.7-.455-1.29-.885-1.77a4.234 4.234 0 00-1.545-1.095 5.13 5.13 0 00-1.86-.405c-.64-.02-1.245.07-1.815.27-.56.19-1.02.47-1.38.84-.35.37-.525.81-.525 1.32 0 .47.145.855.435 1.155.29.29.655.525 1.095.705.44.18.89.33 1.35.45l3.75 1.02c.56.15 1.18.35 1.86.6.68.24 1.33.58 1.95 1.02.63.43 1.145 1 1.545 1.71.41.71.615 1.61.615 2.7 0 1.16-.245 2.175-.735 3.045a6.355 6.355 0 01-1.95 2.145c-.82.56-1.75.98-2.79 1.26-1.03.28-2.095.42-3.195.42z" fill="#FB5D01"/></svg>