<svg width="49" height="49" viewBox="0 0 49 49" fill="none" xmlns="http://www.w3.org/2000/svg"><g clip-path="url(#clip0_7_334)" fill="#FB5D01"><path d="M14.7 35.117v1.633a.817.817 0 001.633 0v-1.633a.817.817 0 00-1.633 0z"/><path d="M48.183 47.367h-.816V21.642a.817.817 0 00-1.633 0v25.725H3.267V21.642a.817.817 0 00-1.634 0v25.725H.817a.817.817 0 000 1.633h47.366a.817.817 0 000-1.633z"/><path d="M18.783 45.733a.817.817 0 00.817-.816v-19.6a.817.817 0 00-.817-.817H7.35a.817.817 0 00-.817.817v19.6a.817.817 0 001.634 0V26.133h9.8v18.784c0 .45.366.816.816.816zM34.06 29.64a.816.816 0 10-1.154 1.154l3.267 3.267a.814.814 0 001.154 0 .816.816 0 000-1.155l-3.266-3.267zM44.917 0H4.083A4.088 4.088 0 000 4.083v14.618a.818.818 0 00.98.8 4.896 4.896 0 003.103-2.097 4.897 4.897 0 008.167.002 4.899 4.899 0 004.084 2.194 4.899 4.899 0 004.083-2.195A4.898 4.898 0 0024.5 19.6a4.899 4.899 0 004.083-2.194 4.899 4.899 0 004.084 2.194 4.899 4.899 0 004.083-2.194 4.897 4.897 0 008.167-.002 4.896 4.896 0 003.104 2.097.818.818 0 00.98-.8V4.083A4.088 4.088 0 0044.916 0zm2.45 17.529a3.279 3.279 0 01-1.634-2.829V4.083a.817.817 0 00-1.633 0V14.7a3.27 3.27 0 01-3.267 3.267 3.27 3.27 0 01-3.266-3.267V4.083a.817.817 0 00-1.633 0V14.7a3.27 3.27 0 01-3.267 3.267A3.27 3.27 0 0129.4 14.7V4.083a.817.817 0 00-1.633 0V14.7a3.27 3.27 0 01-3.267 3.267 3.27 3.27 0 01-3.266-3.267V4.083a.817.817 0 00-1.634 0V14.7a3.27 3.27 0 01-3.266 3.267 3.27 3.27 0 01-3.267-3.267V4.083a.817.817 0 00-1.633 0V14.7a3.27 3.27 0 01-3.267 3.267A3.27 3.27 0 014.901 14.7V4.083a.817.817 0 00-1.634 0V14.7a3.279 3.279 0 01-1.633 2.829V4.083c0-1.35 1.1-2.45 2.45-2.45h40.833c1.351 0 2.45 1.1 2.45 2.45V17.53z"/><path d="M41.65 42.467c.45 0 .817-.366.817-.817V25.317a.817.817 0 00-.817-.817h-19.6a.817.817 0 00-.817.817V41.65c0 .45.366.817.817.817h19.6zM22.867 26.133h17.966v14.7H22.867v-14.7z"/><path d="M37.327 28.006a.816.816 0 10-1.154 1.155l1.633 1.633a.815.815 0 001.155 0 .816.816 0 000-1.155l-1.634-1.633z"/></g><defs><clipPath id="clip0_7_334"><path fill="#fff" d="M0 0h49v49H0z"/></clipPath></defs></svg>