<svg width="56" height="56" viewBox="0 0 56 56" fill="none" xmlns="http://www.w3.org/2000/svg"><path d="M19.62 27.045c-2.12-2.394-4.946-3.712-7.96-3.712-3.014 0-5.84 1.318-7.958 3.712-4.305 4.864-4.305 12.776 0 17.64l7.958 8.99 7.959-8.99c4.305-4.864 4.305-12.776 0-17.64zm-1.4 16.402l-6.56 7.411-6.56-7.411c-3.702-4.18-3.702-10.984 0-15.164 1.76-1.988 4.09-3.083 6.56-3.083 2.47 0 4.802 1.095 6.56 3.083 3.702 4.18 3.702 10.982.002 15.164zm27.277-20.574l6.033-6.8c3.246-3.659 3.246-9.61 0-13.268C49.925.995 47.782 0 45.496 0c-2.285 0-4.428.996-6.033 2.805-3.246 3.658-3.246 9.61 0 13.268l6.034 6.8zM40.86 4.044c1.246-1.405 2.893-2.177 4.637-2.177 1.746 0 3.392.772 4.638 2.177 2.64 2.975 2.64 7.815 0 10.79l-4.637 5.227-4.638-5.227c-2.639-2.975-2.639-7.815 0-10.79zm8.237 46.839a.933.933 0 00-1.115.705 3.236 3.236 0 01-.62 1.3.933.933 0 101.468 1.153 5.16 5.16 0 00.973-2.042.934.934 0 00-.706-1.117zm-19.235-21.95c-.404 0-.797-.073-1.168-.215a.937.937 0 00-1.206.54.935.935 0 00.54 1.205 5.16 5.16 0 001.832.337h.333a.933.933 0 100-1.867h-.331zm-2.216-5.903a.933.933 0 00.493-.14c.413-.258.87-.415 1.357-.47a.935.935 0 00-.204-1.856 5.06 5.06 0 00-2.141.741.933.933 0 00.495 1.726zM16.86 54.133h-1.867a.932.932 0 100 1.867h1.867a.932.932 0 100-1.867zm16.733-16.8c-.08 0-.16.002-.239.006a.933.933 0 00.038 1.866l.04-.001 1.828-.004a.932.932 0 100-1.867h-1.666zM33.127 22.4h1.866a.932.932 0 100-1.867h-1.866a.932.932 0 100 1.867zm11.466 14.933a.932.932 0 100 1.867h1.866a.932.932 0 100-1.867h-1.866zm3.335-7.466a.933.933 0 00-.934-.934h-1.866a.933.933 0 100 1.867h1.866a.933.933 0 00.934-.933zM38.993 39.2h1.866a.932.932 0 100-1.867h-1.866a.932.932 0 100 1.867zm1.6-16.8a.932.932 0 100-1.867h-1.866a.932.932 0 100 1.867h1.867zm-6.665 6.533a.933.933 0 100 1.867h1.866a.932.932 0 100-1.867h-1.866zm8.4.934a.933.933 0 00-.934-.934h-1.866a.933.933 0 100 1.867h1.866a.933.933 0 00.934-.933zm13.136 3.39a.933.933 0 10-1.843.295 3.27 3.27 0 01-.093 1.437.933.933 0 101.792.525 5.142 5.142 0 00.144-2.258zM39.26 54.133h-1.867a.932.932 0 100 1.867h1.867a.933.933 0 100-1.867zm-5.6 0h-1.867a.932.932 0 100 1.867h1.867a.933.933 0 100-1.867zm10.267-7.466a.932.932 0 00-.933-.934h-1.867a.932.932 0 100 1.867h1.867a.933.933 0 00.933-.933zm-5.6 0a.932.932 0 00-.933-.934h-1.867a.932.932 0 100 1.867h1.867a.933.933 0 00.933-.933zm6.467 7.466h-1.802a.932.932 0 100 1.867l1.84-.001.027-.933v.933c.516 0 .9-.417.9-.933s-.45-.933-.965-.933zm3.302-4.929a.933.933 0 00.733-1.51 5.175 5.175 0 00-1.754-1.426.933.933 0 10-.832 1.672c.432.214.819.528 1.117.909a.936.936 0 00.736.355zm3.3-12.131a3.24 3.24 0 01-1.262.253h-.2a.932.932 0 100 1.867h.2c.687 0 1.354-.135 1.983-.399a.933.933 0 10-.721-1.72zM26.16 27.865a.935.935 0 00.596-1.18 3.26 3.26 0 01-.136-1.434.933.933 0 00-.81-1.042.929.929 0 00-1.042.809 5.139 5.139 0 00.214 2.251.935.935 0 001.178.596zm-3.7 26.268h-1.867a.932.932 0 100 1.867h1.867a.933.933 0 100-1.867zm9.387-6.912a.933.933 0 00.39-1.782 3.303 3.303 0 01-1.147-.873.933.933 0 10-1.429 1.201 5.17 5.17 0 001.799 1.37.94.94 0 00.387.084zm21.116-17.599a5.076 5.076 0 00-2.163-.674.933.933 0 10-.146 1.861c.488.039.95.182 1.373.428a.934.934 0 10.936-1.615zM28.06 54.133h-1.867a.932.932 0 100 1.867h1.867a.933.933 0 100-1.867zm2.325-12.283a3.24 3.24 0 01.577-1.319.934.934 0 00-1.503-1.106 5.115 5.115 0 00-.908 2.074.934.934 0 101.834.35z" fill="#FB5D01"/><path d="M45.727 14a5.14 5.14 0 005.133-5.133 5.14 5.14 0 00-5.133-5.134 5.14 5.14 0 00-5.133 5.134A5.14 5.14 0 0045.727 14zm0-8.4a3.27 3.27 0 013.267 3.267 3.27 3.27 0 01-3.267 3.266 3.27 3.27 0 01-3.267-3.266A3.27 3.27 0 0145.727 5.6zM11.66 28.933a5.606 5.606 0 00-5.6 5.6c0 3.089 2.512 5.6 5.6 5.6 3.089 0 5.6-2.511 5.6-5.6 0-3.088-2.511-5.6-5.6-5.6zm0 9.334a3.737 3.737 0 01-3.733-3.734A3.737 3.737 0 0111.66 30.8a3.737 3.737 0 013.733 3.733 3.737 3.737 0 01-3.733 3.734z" fill="#FB5D01"/></svg>