<svg width="52" height="52" viewBox="0 0 52 52" fill="none" xmlns="http://www.w3.org/2000/svg"><g clip-path="url(#clip0_15_393)"><path d="M51.995.996a1.048 1.048 0 00-.054-.26c-.01-.033-.022-.076-.033-.108a1.308 1.308 0 00-.216-.326 1.311 1.311 0 00-.325-.216c-.033-.011-.076-.033-.109-.033-.087-.021-.173-.043-.26-.043h-.12a.996.996 0 00-.303.054c-.021.01-.043.01-.065.022h-.01L.654 21.74a1.086 1.086 0 00-.564 1.43c.098.228.271.412.488.52L18.7 33.284l9.603 18.122c.184.358.552.575.953.586h.044c.412-.011.78-.271.954-.65L51.919 1.504v-.01c.011-.022.011-.044.022-.065a.94.94 0 00.054-.304c0-.043.011-.087 0-.13zM3.591 22.814L46.153 4.313 19.318 31.138 3.59 22.813zm25.59 25.589l-8.325-15.726L47.681 5.84l-18.5 42.562z" fill="#3B40A5"/></g><defs><clipPath id="clip0_15_393"><path fill="#fff" d="M0 0h52v52H0z"/></clipPath></defs></svg>